<svg xmlns="http://www.w3.org/2000/svg" viewBox="0 0 388 389" id="Syl8lkUnz">
    <style>
        @-webkit-keyframes S1beIxJ82f_B1AnWkLhM_Animation{0%{-webkit-transform: translate(0px, 400px);transform: translate(0px, 400px);}20%{-webkit-transform: translate(0px, 220px);transform: translate(0px, 220px);}80%{-webkit-transform: translate(0px, 0px);transform: translate(0px, 0px);}100%{-webkit-transform: translate(0px, 0px);transform: translate(0px, 0px);}}@keyframes S1beIxJ82f_B1AnWkLhM_Animation{0%{-webkit-transform: translate(0px, 400px);transform: translate(0px, 400px);}20%{-webkit-transform: translate(0px, 220px);transform: translate(0px, 220px);}80%{-webkit-transform: translate(0px, 0px);transform: translate(0px, 0px);}100%{-webkit-transform: translate(0px, 0px);transform: translate(0px, 0px);}}
        #Syl8lkUnz *{
            -webkit-animation-duration: 5s;
            animation-duration: 5s;
            animation-fill-mode:both;
            -webkit-animation-timing-function: cubic-bezier(0, 0, 1, 1);
            animation-timing-function: cubic-bezier(0, 0, 1, 1);
        }

        #r1xg8ekL3f{isolation: isolate;}#SyMgLeyUnG{opacity: 0.6;mix-blend-mode: multiply;}#BJXxUgJU3z{-webkit-transform:  translate(-4.71px, -4.65px);transform:  translate(-4.71px, -4.65px);}#B1NlIxJL2M{-webkit-transform:  translate(-4.71px, -4.65px);transform:  translate(-4.71px, -4.65px);}#HyBeIekInz{-webkit-transform:  translate(-4.71px, -4.65px);transform:  translate(-4.71px, -4.65px);}#SyLlUg183G{-webkit-transform:  translate(-4.71px, -4.65px);transform:  translate(-4.71px, -4.65px);}#BkveUxyI3f{fill: #1d1d1b;-webkit-transform:  translate(-4.71px, -4.65px);transform:  translate(-4.71px, -4.65px);}#ryugIx1Ihf{fill: #1d1d1b;-webkit-transform:  translate(-4.71px, -4.65px);transform:  translate(-4.71px, -4.65px);}#r1Yx8lkI3M{fill: #1d1d1b;-webkit-transform:  translate(-4.71px, -4.65px);transform:  translate(-4.71px, -4.65px);}#HycxLly83G{fill: #1d1d1b;-webkit-transform:  translate(-4.71px, -4.65px);transform:  translate(-4.71px, -4.65px);}#ryixLg1U2f{opacity: 0.6;mix-blend-mode: multiply;}#rk3gUeJL2z{-webkit-transform:  translate(-4.71px, -4.65px);transform:  translate(-4.71px, -4.65px);}#SJ6gLlk8hz{fill: #fff;-webkit-transform:  translate(-4.71px, -4.65px);transform:  translate(-4.71px, -4.65px);}#S1ClLeJI2z{opacity: 0.6;mix-blend-mode: multiply;}#rJklxUlyUhf{-webkit-transform:  translate(-4.71px, -4.65px);transform:  translate(-4.71px, -4.65px);}#rkgle8e182z{fill: #fff;-webkit-transform:  translate(-4.71px, -4.65px);transform:  translate(-4.71px, -4.65px);}#SJbgxIgk83f{opacity: 0.6;mix-blend-mode: multiply;}#Skzel8lkI3M{-webkit-transform:  translate(-4.71px, -4.65px);transform:  translate(-4.71px, -4.65px);}#SkmxeIxJIhz{fill: #fff;-webkit-transform:  translate(-4.71px, -4.65px);transform:  translate(-4.71px, -4.65px);}#H1BleIekL2f{fill: #c6c6c6;-webkit-transform:  translate(-4.71px, -4.65px);transform:  translate(-4.71px, -4.65px);}#BJLlgLx1LnG{opacity: 0.6;mix-blend-mode: multiply;}#r1DegIxJU2M{-webkit-transform:  translate(-4.71px, -4.65px);transform:  translate(-4.71px, -4.65px);}#SkugeLx1UnM{fill: #f6f6f6;-webkit-transform:  translate(-4.71px, -4.65px);transform:  translate(-4.71px, -4.65px);}#H15gx8l1UhG{fill: #fff;}#HJollUeJL3z{fill: #1d1d1b;-webkit-transform:  translate(-4.71px, -4.65px);transform:  translate(-4.71px, -4.65px);}#Bk3lgLlyU3f{fill: #e1e6e7;}#r16exUxy83M{fill: #e1e6e7;}#BkAelLly82M{fill: #1d1d1b;-webkit-transform:  translate(-4.71px, -4.65px);transform:  translate(-4.71px, -4.65px);}#SJkZxUgyU3f{fill: #fff;-webkit-transform:  translate(-78.88px, 66.77px) rotate(-19.55deg);transform:  translate(-78.88px, 66.77px) rotate(-19.55deg);}#HkxbeLlJ8nG{fill: #fff;-webkit-transform:  translate(-72.79px, 87.85px) rotate(-19.55deg);transform:  translate(-72.79px, 87.85px) rotate(-19.55deg);}#ryZbgLxJ8hM{fill: #fff;}#ryzbx8g1L2G{fill: #fff;}#S1beIxJ82f_B1AnWkLhM{-webkit-animation-name: S1beIxJ82f_B1AnWkLhM_Animation;animation-name: S1beIxJ82f_B1AnWkLhM_Animation;-webkit-transform-origin: 50% 50%;transform-origin: 50% 50%;transform-box: fill-box;-webkit-transform: translate(0px, 400px);transform: translate(0px, 400px);}
    </style>
    <defs/>
    <title>
        ORDINATEUR
    </title>
    <g id="r1xg8ekL3f">
        <g id="S1beIxJ82f_B1AnWkLhM" data-animator-group="true" data-animator-type="0">
            <g id="S1beIxJ82f">
                <g id="SyMgLeyUnG">
                    <path d="M174.11,117.38c3.29-17.17,4.89-28,6-36-14.43,8-20.53,33.08-20.53,33.08L173.93,120a11,11,0,0,1,.18-2.61Zm0,0" id="BJXxUgJU3z"/>
                    <path d="M251.23,5h0a4.46,4.46,0,0,0-3.44.09l-.09,0C234.59,11.21,203,28.19,193.4,53.23c-4.38,11.37-5.12,16.6-6.74,28.07-1.16,8.26-2.76,19.57-6.4,38.6a4.49,4.49,0,0,0,2.8,5l38.28,14.74a4.5,4.5,0,0,0,3.44-.09,4.43,4.43,0,0,0,2-1.77c10.06-16.57,16.46-26,21.13-32.94,6.49-9.59,9.45-14,13.83-25.34,9.65-25.08-2.38-58.8-8-72.14A4.54,4.54,0,0,0,251.23,5ZM242.75,68.6a15,15,0,1,1-8.59-19.32,15,15,0,0,1,8.59,19.32Zm0,0" id="B1NlIxJL2M"/>
                    <path d="M213.1,144.62c-1.4,1.44-2.75,2.91-4.23,4.27A86.83,86.83,0,0,1,196,158.52c-1.92,1.19-3.87,2.34-5.86,3.41l-.27-.79a101,101,0,0,1-4.14-15.76c-.44-2.59-.7-5.18-.9-7.8-.13-1.63-.1-3.25-.07-4.87l-1.57-.61a29.5,29.5,0,0,0-3.65,8.83,43.09,43.09,0,0,0-.93,14.14A52.3,52.3,0,0,0,182.22,170a13,13,0,0,0,.92,2,5,5,0,0,0,2.06,1.81,5.18,5.18,0,0,0,2.69.46,7,7,0,0,0,2.13-.7,50.29,50.29,0,0,0,11.72-7.56c6.43-5.5,12.08-13,13.56-21.47l-1.54-.59c-.21.26-.44.51-.66.76Zm0,0" id="HyBeIekInz"/>
                    <path d="M232.44,142.8l14.31,5.51s12.3-22.7,6.95-38.31c-4.5,6.68-10.57,15.79-19.65,30.73a11.26,11.26,0,0,1-1.61,2.07Zm0,0" id="SyLlUg183G"/>
                </g>
                <path d="M171.27,117.38c3.29-17.17,4.9-28,6-36-14.43,8-20.52,33.08-20.52,33.08L171.09,120a12.16,12.16,0,0,1,.18-2.61Zm0,0" id="BkveUxyI3f"/>
                <path d="M248.39,5h0A4.46,4.46,0,0,0,245,5l-.08,0c-13.12,6.14-44.67,23.12-54.31,48.16-4.37,11.37-5.11,16.6-6.73,28.07-1.17,8.26-2.77,19.57-6.41,38.6a4.49,4.49,0,0,0,2.8,5l38.29,14.74a4.51,4.51,0,0,0,5.46-1.86c10.06-16.57,16.46-26,21.12-32.94,6.49-9.59,9.46-14,13.83-25.34,9.66-25.08-2.38-58.8-8-72.14A4.51,4.51,0,0,0,248.39,5ZM239.91,68.6a15,15,0,1,1-8.58-19.32,15,15,0,0,1,8.58,19.32Zm0,0" id="ryugIx1Ihf"/>
                <path d="M210.26,144.62c-1.4,1.44-2.74,2.91-4.23,4.27a86.83,86.83,0,0,1-12.85,9.63c-1.91,1.19-3.86,2.34-5.85,3.41-.1-.26-.19-.52-.28-.79a100.94,100.94,0,0,1-4.13-15.76c-.45-2.59-.71-5.18-.91-7.8-.12-1.63-.09-3.25-.06-4.87l-1.57-.61a29.52,29.52,0,0,0-3.66,8.83,43.36,43.36,0,0,0-.92,14.14A52.3,52.3,0,0,0,179.39,170a12,12,0,0,0,.91,2,5.1,5.1,0,0,0,2.07,1.81,5.16,5.16,0,0,0,2.68.46,7,7,0,0,0,2.14-.7,50.23,50.23,0,0,0,11.71-7.56c6.44-5.5,12.08-13,13.56-21.47l-1.53-.59c-.22.26-.44.51-.67.76Zm0,0" id="r1Yx8lkI3M"/>
                <path d="M229.61,142.8l14.31,5.51s12.29-22.7,7-38.31c-4.51,6.68-10.58,15.79-19.65,30.73a11.26,11.26,0,0,1-1.61,2.07Zm0,0" id="HycxLly83G"/>
                <g id="ryixLg1U2f">
                    <path d="M195.14,182.94a49.45,49.45,0,0,1-10.32,6.42,7,7,0,0,1-2.14.69,5,5,0,0,1-2.68-.46,5,5,0,0,1-2.07-1.81,11.28,11.28,0,0,1-.91-2,51.75,51.75,0,0,1-3.56-14.6c-5.36,24-7.22,76.38,49,90.3C222.42,261.52,179.61,236.94,195.14,182.94Z" id="rk3gUeJL2z"/>
                </g>
                <path d="M192.31,182.94A49.45,49.45,0,0,1,182,189.36a7.15,7.15,0,0,1-2.14.69,5,5,0,0,1-2.69-.46,4.94,4.94,0,0,1-2.06-1.81,12.11,12.11,0,0,1-.92-2,52.44,52.44,0,0,1-3.56-14.6c-5.35,24-7.21,76.38,49,90.3C219.59,261.52,176.77,236.94,192.31,182.94Z" id="SJ6gLlk8hz"/>
                <g id="S1ClLeJI2z">
                    <path d="M170.48,118.44c.24-.67,1.12,9.2.3,13.39a71.33,71.33,0,0,1-2.43,8.67l-.76-3.85-4.86,11.22-1.16-3.1A75.42,75.42,0,0,1,156,152c-3,3.47-3.16,3.42-3.31-1.18a75.72,75.72,0,0,1,.29-9.14l-2.86,1.67,3.33-11.77-3,2.5a70.66,70.66,0,0,1,3.6-8.25c2-3.76,8.93-10.86,8.69-10.19l3.82,1.55,3.93,1.21h0Z" id="rJklxUlyUhf"/>
                </g>
                <path d="M167.65,118.44c.24-.67,1.12,9.2.29,13.39a70.22,70.22,0,0,1-2.42,8.67l-.76-3.85-4.87,11.22-1.15-3.1a76.55,76.55,0,0,1-5.56,7.27c-3,3.47-3.15,3.42-3.31-1.18a74.48,74.48,0,0,1,.3-9.14l-2.86,1.67,3.33-11.77-3,2.5a71.66,71.66,0,0,1,3.61-8.25c2-3.76,8.93-10.86,8.69-10.19l3.81,1.55,3.93,1.21Z" id="rkgle8e182z"/>
                <g id="SJbgxIgk83f">
                    <path d="M243.54,146.34c.24-.67,1.11,9.2.29,13.39a71.33,71.33,0,0,1-2.43,8.67l-.75-3.85-4.87,11.22-1.16-3.1a75.42,75.42,0,0,1-5.55,7.27c-3,3.47-3.16,3.43-3.31-1.18a75.85,75.85,0,0,1,.29-9.14l-2.86,1.67,3.33-11.77-3,2.51a70.43,70.43,0,0,1,3.6-8.26c2-3.76,8.93-10.86,8.7-10.18l3.81,1.54,3.93,1.21Z" id="Skzel8lkI3M"/>
                </g>
                <path d="M240.7,146.34c.24-.67,1.12,9.2.29,13.39a70.22,70.22,0,0,1-2.42,8.67l-.76-3.85L233,175.77l-1.16-3.1a76.55,76.55,0,0,1-5.56,7.27c-3,3.47-3.15,3.43-3.3-1.18a73.5,73.5,0,0,1,.29-9.14l-2.86,1.67,3.33-11.77-3,2.51a71.42,71.42,0,0,1,3.61-8.26c2-3.76,8.93-10.86,8.69-10.18l3.82,1.54,3.92,1.21Z" id="SkmxeIxJIhz"/>
            </g>
        </g>
        <g id="SJ4gxIl1U2f">
            <path d="M72.27,185.8a59.42,59.42,0,0,1,56.92,42.38,39.25,39.25,0,0,1,22.7,30.14,28.15,28.15,0,0,1,23.89,5.17,19.81,19.81,0,0,1,19.57-16.69h7.26a19.83,19.83,0,0,1,19.58,16.69,28.13,28.13,0,0,1,23.88-5.17,39.25,39.25,0,0,1,22.7-30.14A59.45,59.45,0,0,1,346,189.36v95.06H211.42v0l-.1,0h-24.7l-.09,0v0H52V189.36a59.35,59.35,0,0,1,20.3-3.56Z" id="H1BleIekL2f"/>
            <g id="BJLlgLx1LnG">
                <path d="M72.27,183.63A59.42,59.42,0,0,1,129.19,226a39.25,39.25,0,0,1,22.7,30.14,28.12,28.12,0,0,1,23.89,5.18,19.81,19.81,0,0,1,19.57-16.7l.91,0q2.72.12,5.43,0l.92,0a19.83,19.83,0,0,1,19.58,16.7,28.1,28.1,0,0,1,23.88-5.18A39.25,39.25,0,0,1,268.77,226,59.45,59.45,0,0,1,346,187.19v91.56H52V187.19a59.35,59.35,0,0,1,20.3-3.56Z" id="r1DegIxJU2M"/>
            </g>
            <path d="M72.27,189.3a59.42,59.42,0,0,1,56.92,42.38,39.25,39.25,0,0,1,22.7,30.14A28.15,28.15,0,0,1,175.78,267a19.81,19.81,0,0,1,19.57-16.69l.91,0q2.72.12,5.43,0l.92,0A19.83,19.83,0,0,1,222.19,267a28.13,28.13,0,0,1,23.88-5.17,39.25,39.25,0,0,1,22.7-30.14A59.45,59.45,0,0,1,346,192.86v91.56H52V192.86a59.35,59.35,0,0,1,20.3-3.56Z" id="SkugeLx1UnM"/>
        </g>
        <g id="ByYggUg182M">
            <polygon points="41.16 283.86 347.75 283.86 383.03 383.01 5.87 383.01 41.16 283.86" id="H15gx8l1UhG"/>
            <path d="M387.74,393.74H10.59a7.49,7.49,0,0,1-4.87-2.43c-1.22-1.22-1.22-3.65-.61-5.47l35.28-99.16a5.85,5.85,0,0,1,5.48-4.26H352.46a5.86,5.86,0,0,1,5.48,4.26l34.67,97.94c.61.61.61,1.83.61,3A5.26,5.26,0,0,1,387.74,393.74ZM19.1,381.58H378.62l-30.42-87H50.13Z" id="HJollUeJL3z"/>
            <polygon points="341.67 333.13 331.93 302.1 56.97 302.1 47.24 333.13 341.67 333.13" id="Bk3lgLlyU3f"/>
            <polygon points="164.04 343.47 157.95 364.76 230.95 364.76 224.26 343.47 164.04 343.47" id="r16exUxy83M"/>
            <path d="M352.46,294.59H45.87a5.74,5.74,0,0,1-6.08-6.08V110.27A17.92,17.92,0,0,1,58,92H340.29a17.92,17.92,0,0,1,18.25,18.25V288.51A6.54,6.54,0,0,1,352.46,294.59ZM52,282.42H346.38V110.27a5.75,5.75,0,0,0-6.09-6.08H58A5.74,5.74,0,0,0,52,110.27Z" id="BkAelLly82M"/>
            <circle cx="170.17" cy="250.94" r="6.63" id="SJkZxUgyU3f"/>
            <circle cx="234.41" cy="243.83" r="2.11" id="HkxbeLlJ8nG"/>
            <circle cx="149.61" cy="231.49" r="2.88" id="ryZbgLxJ8hM"/>
            <circle cx="222.36" cy="249.97" r="2.86" id="ryzbx8g1L2G"/>
        </g>
    </g>
</svg>