<svg xmlns="http://www.w3.org/2000/svg" viewBox="0 0 233.29 193.89"><defs><style>.cls-1{fill:#464655;}.cls-2{fill:#eff2fa;}.cls-3{fill:#fff;}.cls-4{fill:#f0c808;}.cls-5{fill:#1d1d1b;}.cls-6{fill:#d9d8d7;}.cls-7{fill:#e4003a;}.cls-8{fill:#242d3c;}.cls-9{fill:#3e4959;}.cls-10{fill:#ffed00;}.cls-11{fill:#010101;}</style></defs><title>cahier</title><g id="Calque_2" data-name="Calque 2"><circle class="cls-1" cx="123.27" cy="12.99" r="5.95"/><path class="cls-2" d="M142.33,65.85a10.71,10.71,0,1,1,14.11-5.51A10.72,10.72,0,0,1,142.33,65.85ZM149,50.59a6,6,0,1,0,3.06,7.84A6,6,0,0,0,149,50.59Z" transform="translate(-23.36 -43.06)"/><polygon class="cls-3" points="95.93 16.02 95.45 155.82 92.53 155.81 48.85 155.66 49.28 30.97 60.98 15.9 93.02 16.01 95.93 16.02"/><rect class="cls-3" x="174.37" y="88.42" width="11.65" height="87.38" transform="translate(24.11 268.79) rotate(-89.8)"/><path class="cls-4" d="M124.62,201.81a5.82,5.82,0,0,0-5.85,5.8l0-8.73.49-139.8,0-8.74a5.82,5.82,0,0,1,5.85-5.81l110.67.39-.18,52.43,5.79,8.75-.33,96.12-116.5-.41Zm99.25-63.73,0-11.65-87.38-.31,0,11.65Z" transform="translate(-23.36 -43.06)"/><path class="cls-3" d="M127.54,198.91,128,59.11l0-8.74a5.83,5.83,0,0,1,5.84-5.81l-8.73,0a5.82,5.82,0,0,0-5.85,5.81l0,8.74-.49,139.8,0,8.73a5.82,5.82,0,0,1,5.85-5.8h2.91Z" transform="translate(-23.36 -43.06)"/><rect class="cls-3" x="179.94" y="152.5" width="5.83" height="104.85" transform="translate(-46.06 344.01) rotate(-89.8)"/><rect class="cls-4" x="46.24" y="126.07" width="139.8" height="5.8" transform="translate(-36.58 201.61) rotate(-89.8)"/><path class="cls-5" d="M117.77,209.05a1.45,1.45,0,0,1-1.45-1.46l.54-157.28a1.46,1.46,0,0,1,2.92,0l-.55,157.28A1.46,1.46,0,0,1,117.77,209.05Z" transform="translate(-23.36 -43.06)"/><path class="cls-5" d="M240.11,203.65l-116.5-.41a1.46,1.46,0,0,1,0-2.91l116.5.41a1.46,1.46,0,1,1,0,2.91Z" transform="translate(-23.36 -43.06)"/><path class="cls-5" d="M234.27,209.45l-104.85-.36a1.46,1.46,0,1,1,0-2.91l104.85.36a1.47,1.47,0,0,1,1.45,1.46A1.45,1.45,0,0,1,234.27,209.45Z" transform="translate(-23.36 -43.06)"/><path class="cls-5" d="M123.57,214.89a7.28,7.28,0,0,1,.05-14.56,1.46,1.46,0,1,1,0,2.91,4.37,4.37,0,0,0,0,8.74,1.46,1.46,0,1,1,0,2.91Z" transform="translate(-23.36 -43.06)"/><path class="cls-5" d="M118.32,51.77a1.46,1.46,0,0,1-1.46-1.46,7.29,7.29,0,0,1,7.31-7.25,1.46,1.46,0,0,1,0,2.91,4.36,4.36,0,0,0-4.38,4.35A1.45,1.45,0,0,1,118.32,51.77Z" transform="translate(-23.36 -43.06)"/><path class="cls-5" d="M249.24,93a1.46,1.46,0,0,1-1.45-1.47l.09-26.21a1.46,1.46,0,1,1,2.91,0l-.09,26.21A1.47,1.47,0,0,1,249.24,93Z" transform="translate(-23.36 -43.06)"/><path class="cls-5" d="M240.11,203.65a1.46,1.46,0,0,1-1.45-1.46l.34-95.67-5.56-8.39a1.54,1.54,0,0,1-.24-.81l.19-52.43a1.46,1.46,0,0,1,2.91,0l-.18,52,5.55,8.39a1.45,1.45,0,0,1,.24.81l-.34,96.11A1.45,1.45,0,0,1,240.11,203.65Z" transform="translate(-23.36 -43.06)"/><path class="cls-5" d="M245.9,215.32l-122.33-.43a1.46,1.46,0,0,1,0-2.91l122.33.43a1.46,1.46,0,1,1,0,2.91Z" transform="translate(-23.36 -43.06)"/><path class="cls-5" d="M234.84,46.35,124.16,46a1.46,1.46,0,1,1,0-2.91l110.68.38a1.46,1.46,0,1,1,0,2.91Z" transform="translate(-23.36 -43.06)"/><path class="cls-5" d="M245.9,215.32a1.45,1.45,0,0,1-1.45-1.46l.37-107.76a1.46,1.46,0,0,1,.43-1l8.34-8.28.14-38.72-7.28,0A1.46,1.46,0,0,1,245,56.58l0-11.65a1.46,1.46,0,0,1,2.91,0l0,10.2,7.28,0a1.45,1.45,0,0,1,1.45,1.46L256.5,97.4a1.42,1.42,0,0,1-.43,1l-8.34,8.28-.37,107.16A1.46,1.46,0,0,1,245.9,215.32Z" transform="translate(-23.36 -43.06)"/><path class="cls-5" d="M246.49,46.39l-11.65,0a1.46,1.46,0,0,1,0-2.91l11.65,0a1.46,1.46,0,1,1,0,2.91Z" transform="translate(-23.36 -43.06)"/><path class="cls-5" d="M114.88,200.3l-43.68-.15a1.45,1.45,0,0,1-1.45-1.46l.44-128.15a1.46,1.46,0,0,1,.43-1L82.31,57.9a1.44,1.44,0,0,1,1-.42l32,.11a1.46,1.46,0,0,1,0,2.91l-31.43-.11L73.1,71.15l-.44,126.09,42.23.15a1.46,1.46,0,1,1,0,2.91Z" transform="translate(-23.36 -43.06)"/><path class="cls-5" d="M86.2,75a1.45,1.45,0,0,1-1.45-1.46l0-8.74a1.46,1.46,0,1,1,2.91,0l0,8.74A1.47,1.47,0,0,1,86.2,75Z" transform="translate(-23.36 -43.06)"/><path class="cls-5" d="M86.2,75l-8.74,0a1.46,1.46,0,0,1,0-2.91l8.74,0a1.46,1.46,0,1,1,0,2.91Z" transform="translate(-23.36 -43.06)"/><path class="cls-5" d="M115.2,110,89,109.92A1.46,1.46,0,1,1,89,107l26.21.09a1.46,1.46,0,1,1,0,2.91Z" transform="translate(-23.36 -43.06)"/><path class="cls-5" d="M115.16,121.66,89,121.57a1.46,1.46,0,1,1,0-2.91l26.21.09a1.46,1.46,0,0,1,0,2.91Z" transform="translate(-23.36 -43.06)"/><path class="cls-5" d="M115.12,133.31l-26.21-.09a1.46,1.46,0,1,1,0-2.91l26.21.09a1.46,1.46,0,1,1,0,2.91Z" transform="translate(-23.36 -43.06)"/><path class="cls-5" d="M115.08,145l-26.21-.09a1.46,1.46,0,1,1,0-2.91l26.21.09a1.46,1.46,0,0,1,0,2.91Z" transform="translate(-23.36 -43.06)"/><path class="cls-5" d="M115,156.61l-26.22-.09a1.46,1.46,0,0,1,0-2.91l26.22.09a1.46,1.46,0,1,1,0,2.91Z" transform="translate(-23.36 -43.06)"/><path class="cls-5" d="M222.86,139.51l-87.37-.3a1.46,1.46,0,0,1-1.46-1.46l0-11.65a1.46,1.46,0,0,1,1.47-1.45l87.37.3a1.45,1.45,0,0,1,1.45,1.46l0,11.65A1.44,1.44,0,0,1,222.86,139.51ZM137,136.3l84.46.3,0-8.74-84.47-.3Z" transform="translate(-23.36 -43.06)"/><path class="cls-5" d="M217.06,133.67l-75.73-.27a1.46,1.46,0,0,1,0-2.91l75.73.27a1.46,1.46,0,1,1,0,2.91Z" transform="translate(-23.36 -43.06)"/><path class="cls-5" d="M68.49,231.64l-43.68-.16A1.44,1.44,0,0,1,23.36,230l.44-128.15a1.5,1.5,0,0,1,.43-1L35.92,89.23a1.49,1.49,0,0,1,1-.42l32,.11a1.46,1.46,0,0,1,0,2.92l-31.43-.11L26.71,102.49l-.44,126.09,42.23.14a1.46,1.46,0,1,1,0,2.92Z" transform="translate(-23.36 -43.06)"/><path class="cls-5" d="M39.81,106.3a1.47,1.47,0,0,1-1.46-1.46l0-8.74a1.46,1.46,0,1,1,2.91,0l0,8.74A1.47,1.47,0,0,1,39.81,106.3Z" transform="translate(-23.36 -43.06)"/><path class="cls-5" d="M39.81,106.3l-8.74,0a1.46,1.46,0,0,1,0-2.92l8.74,0a1.46,1.46,0,0,1,0,2.92Z" transform="translate(-23.36 -43.06)"/><rect class="cls-6" x="44.99" y="144.96" width="5.74" height="1.32" transform="translate(-24.08 -42.82) rotate(-0.28)"/><rect class="cls-6" x="58.62" y="129.73" width="1.32" height="7.92" transform="translate(-24.02 -42.76) rotate(-0.28)"/><rect class="cls-6" x="45.15" y="176.86" width="5.74" height="1.32" transform="translate(-24.23 -42.82) rotate(-0.28)"/><rect class="cls-6" x="33.74" y="192.51" width="5.74" height="1.32" transform="translate(-24.31 -42.87) rotate(-0.28)"/><rect class="cls-7" x="39.33" y="121.9" width="5.74" height="79.16" transform="translate(-24.15 -42.84) rotate(-0.28)"/><rect class="cls-3" x="41.38" y="123.88" width="1.32" height="11.87" transform="translate(-24 -42.85) rotate(-0.28)"/><rect class="cls-8" x="39.25" y="137.73" width="5.74" height="15.83" transform="translate(-24.08 -42.84) rotate(-0.28)"/><rect class="cls-3" x="41.46" y="139.72" width="1.32" height="11.87" transform="translate(-24.08 -42.84) rotate(-0.28)"/><rect class="cls-3" x="41.54" y="155.56" width="1.32" height="11.86" transform="translate(-24.15 -42.84) rotate(-0.28)"/><rect class="cls-3" x="41.62" y="171.39" width="1.32" height="11.87" transform="translate(-24.23 -42.84) rotate(-0.28)"/><rect class="cls-3" x="41.69" y="187.21" width="1.32" height="11.87" transform="translate(-24.31 -42.84) rotate(-0.28)"/><rect class="cls-7" x="50.73" y="137.65" width="17.22" height="15.83" transform="translate(-24.07 -42.76) rotate(-0.28)"/><rect class="cls-7" x="50.89" y="169.56" width="11.48" height="15.82" transform="translate(-24.23 -42.77) rotate(-0.28)"/><rect class="cls-5" x="50.61" y="113.91" width="17.22" height="15.82" transform="translate(-23.96 -42.76) rotate(-0.28)"/><rect class="cls-5" x="31" y="185.36" width="5.74" height="15.82" transform="translate(-24.31 -42.89) rotate(-0.28)"/><rect class="cls-9" x="33.22" y="187.33" width="1.32" height="11.87" transform="translate(-24.31 -42.89) rotate(-0.28)"/><rect class="cls-3" x="53.1" y="171.56" width="1.32" height="11.87" transform="translate(-24.23 -42.79) rotate(-0.28)"/><rect class="cls-3" x="58.84" y="174.6" width="1.32" height="5.74" transform="translate(-24.23 -42.76) rotate(-0.28)"/><rect class="cls-3" x="75.9" y="139.55" width="1.32" height="11.87" transform="translate(-24.07 -42.67) rotate(-0.28)"/><rect class="cls-3" x="52.93" y="139.66" width="1.32" height="5.94" transform="translate(-24.06 -42.79) rotate(-0.28)"/><rect class="cls-3" x="52.96" y="147.39" width="1.32" height="4.14" transform="translate(-24.09 -42.79) rotate(-0.28)"/><rect class="cls-3" x="58.68" y="139.63" width="1.32" height="11.87" transform="translate(-24.07 -42.76) rotate(-0.28)"/><rect class="cls-3" x="64.43" y="143.09" width="1.32" height="8.39" transform="translate(-24.08 -42.73) rotate(-0.28)"/><rect class="cls-9" x="52.83" y="115.92" width="1.32" height="11.87" transform="translate(-23.96 -42.79) rotate(-0.28)"/><rect class="cls-9" x="58.58" y="120.52" width="1.32" height="7.24" transform="translate(-23.97 -42.76) rotate(-0.28)"/><rect class="cls-9" x="58.54" y="115.89" width="1.32" height="3.09" transform="translate(-23.94 -42.76) rotate(-0.28)"/><rect class="cls-9" x="64.32" y="122.46" width="1.32" height="5.28" transform="translate(-23.97 -42.73) rotate(-0.28)"/><polygon class="cls-3" points="60.95 193.77 50.02 188.31 60.95 182.85 60.95 193.77"/><rect class="cls-4" x="60.95" y="182.91" width="171.34" height="10.92"/><rect class="cls-10" x="60.95" y="182.91" width="171.34" height="5.46"/><polygon class="cls-11" points="54.3 190.45 50.02 188.31 54.3 186.16 54.3 190.45"/><rect class="cls-3" x="219.28" y="182.96" width="3.86" height="10.92"/><rect class="cls-11" x="223.13" y="182.96" width="9.16" height="10.92"/></g></svg>