<svg xmlns="http://www.w3.org/2000/svg" viewBox="0 0 277.16 235.2"><defs><style>.cls-1{isolation:isolate;}.cls-2,.cls-5{fill:none;stroke:#1d1d1b;stroke-miterlimit:10;}.cls-2{stroke-width:5px;}.cls-3{fill:#1d1d1b;}.cls-4{fill:#e4003a;}.cls-5{stroke-width:6px;}.cls-6{opacity:0.75;mix-blend-mode:multiply;}.cls-7{fill:#fff;}.cls-8{fill:#f0c808;}</style></defs><title>changement</title><g class="cls-1"><g id="Calque_5" data-name="Calque 5"><circle class="cls-2" cx="72.53" cy="103.77" r="16"/><rect class="cls-3" x="36.08" y="182.29" width="41" height="5" rx="2.5" ry="2.5" transform="matrix(0.99, 0.13, -0.13, 0.99, 23.31, -28.09)"/><rect class="cls-3" x="28.6" y="139.26" width="5" height="107.45" rx="2.5" ry="2.5" transform="translate(95 -13.93) rotate(28.43)"/><rect class="cls-3" x="52.46" y="136.62" width="68.06" height="5" rx="1.94" ry="1.94" transform="matrix(0.96, -0.27, 0.27, 0.96, -35.41, 6.59)"/><rect class="cls-3" x="63.99" y="183" width="5" height="41.24" rx="2.37" ry="2.37" transform="translate(96.12 -30.83) rotate(26.21)"/><path class="cls-4" d="M110.29,172.7l7.79,25.65a3,3,0,0,0,3.73,2l19.82-6a3,3,0,0,0,2-3.73l-13.71-45.12-10,18.78a18.25,18.25,0,0,1-9.61,8.45Zm0,0" transform="translate(-0.63 -22.4)"/><path d="M139.71,142.15l13.8,45.44a3,3,0,0,0,3.73,2l19.83-6a3,3,0,0,0,2-3.73l-8.13-26.75a18.09,18.09,0,0,1-13.47-1.45Zm0,0" transform="translate(-0.63 -22.4)"/><path class="cls-4" d="M180,147.25l9,29.58a3,3,0,0,0,3.73,2l19.83-6a3,3,0,0,0,2-3.73l-16.57-54.58-15.83,29.62a17.68,17.68,0,0,1-2.13,3.14Zm0,0" transform="translate(-0.63 -22.4)"/><path d="M221.24,70.77l-16.45,30.81,19.58,64.49a3,3,0,0,0,3.73,2l19.83-6a3,3,0,0,0,2-3.73L223.7,72c-.82-.35-1.45-.69-1.91-.91Zm0,0" transform="translate(-0.63 -22.4)"/><rect class="cls-3" x="-6.1" y="194.76" width="290.63" height="5" rx="2.5" ry="2.5" transform="translate(-53.93 29.15) rotate(-17.67)"/><path class="cls-5" d="M102.28,163.84l21.29-40.29s4.16-8.87,13.53-3.31,22.49,13.3,22.49,13.3,10,6,17.6-8.83,39.72-76.58,39.72-76.58" transform="translate(-0.63 -22.4)"/><polygon class="cls-3" points="230.98 32.78 215.58 26.66 200.19 20.54 213.19 10.27 226.19 0 228.58 16.39 230.98 32.78"/><g class="cls-6"><circle cx="216.81" cy="178.21" r="52.98"/></g><circle class="cls-7" cx="209.81" cy="182.21" r="52.98"/><path class="cls-8" d="M236.42,190.63l-4.1,4.27a2.71,2.71,0,0,0,.09,3.75,2.42,2.42,0,0,0,1.83.69,2.71,2.71,0,0,0,1.92-.78l8.28-8.72a2.57,2.57,0,0,0,0-3.57l-8.28-8.72a2.59,2.59,0,0,0-3.75,3.57l4.1,4.27H223.08a2.6,2.6,0,0,0-2,1l-27.56,32.18H178.35a2.62,2.62,0,1,0,0,5.23h16.39a2.84,2.84,0,0,0,2-.87l27.55-32.26Z" transform="translate(-0.63 -22.4)"/><path class="cls-3" d="M178.35,190.63h15.17l9.07,10.89a2.61,2.61,0,0,0,2,1,2.26,2.26,0,0,0,1.65-.61,2.62,2.62,0,0,0,.35-3.66l-9.85-11.86a2.61,2.61,0,0,0-2-1H178.35a2.62,2.62,0,0,0,0,5.24Z" transform="translate(-0.63 -22.4)"/><path class="cls-3" d="M236.16,210.59a2.59,2.59,0,0,0-3.75,3.58l4.1,4.27H224.3l-9.15-10.81a2.6,2.6,0,1,0-4,3.31l9.94,11.86a2.6,2.6,0,0,0,2,1h13.34l-4.1,4.27a2.71,2.71,0,0,0,.09,3.75,2.43,2.43,0,0,0,1.83.7,2.68,2.68,0,0,0,1.92-.79l8.28-8.72a2.57,2.57,0,0,0,0-3.57Z" transform="translate(-0.63 -22.4)"/></g></g></svg>