<svg xmlns="http://www.w3.org/2000/svg" viewBox="0 0 266.01 269.58"><defs><style>.cls-1{isolation:isolate;}.cls-2{fill:#f6f6f6;}.cls-3{fill:#e6e9ee;}.cls-11,.cls-4{fill:#e4003a;}.cls-17,.cls-5{fill:#1d1d1b;}.cls-6{fill:#acb3ba;}.cls-7{fill:#dc8744;}.cls-8{opacity:0.75;mix-blend-mode:multiply;}.cls-10,.cls-9{fill:#6b6b6b;}.cls-10{stroke:#6b6b6b;}.cls-10,.cls-11,.cls-12,.cls-19{stroke-miterlimit:10;}.cls-10,.cls-11,.cls-12{stroke-width:3px;}.cls-11{stroke:#000;}.cls-12,.cls-16{fill:#fff;}.cls-12{stroke:#1d1d1b;}.cls-13,.cls-17{opacity:0.92;}.cls-14,.cls-19{fill:none;}.cls-15{fill:#f0c808;}.cls-18{fill:#00222d;}.cls-19{stroke:#fff;}</style></defs><title>com</title><g class="cls-1"><g id="Calque_5" data-name="Calque 5"><polygon class="cls-2" points="27.68 185.85 27.68 158.12 0 158.12 0 13.67 131 13.67 131 185.85 27.68 185.85"/><polygon class="cls-3" points="27.68 184.85 0 157.12 27.68 157.12 27.68 184.85"/><path class="cls-4" d="M44.73,29h4.71V50H44.73l-10-13.19V50H30V29h4.4L44.73,42.5Z" transform="translate(-9.5 -1.77)"/><path class="cls-4" d="M69.77,29v4.19H59.32v4.34h9.42v4H59.32v4.34H70.14V50H54.62V28.89H69.77Z" transform="translate(-9.5 -1.77)"/><path class="cls-4" d="M80.85,41.05,84.57,29h4.92l3.72,12.1L97.4,29h5.07L95.13,50H91.61L87,35.36,82.45,50H79L71.64,29h5.07Z" transform="translate(-9.5 -1.77)"/><path class="cls-4" d="M109.72,33.14a1.76,1.76,0,0,0-.68,1.45,1.66,1.66,0,0,0,.83,1.44,15.73,15.73,0,0,0,3.83,1.3,11,11,0,0,1,4.66,2.22,5.57,5.57,0,0,1,1.65,4.3,5.8,5.8,0,0,1-2.12,4.6,8.32,8.32,0,0,1-5.59,1.76,13,13,0,0,1-9-3.72l2.79-3.42c2.28,2,4.35,3,6.32,3a3.21,3.21,0,0,0,2-.57,1.7,1.7,0,0,0,.73-1.5,1.75,1.75,0,0,0-.78-1.5,11.46,11.46,0,0,0-3.1-1.14,13.56,13.56,0,0,1-5.38-2.27,5.33,5.33,0,0,1-1.71-4.4,5.38,5.38,0,0,1,2.17-4.61,8.68,8.68,0,0,1,5.38-1.6,13.06,13.06,0,0,1,4.19.73,10.23,10.23,0,0,1,3.68,2.06l-2.38,3.42a9.15,9.15,0,0,0-5.64-2.07A2.61,2.61,0,0,0,109.72,33.14Z" transform="translate(-9.5 -1.77)"/><rect class="cls-5" x="11.8" y="60.13" width="107.41" height="1.97"/><rect class="cls-5" x="11.8" y="56.15" width="107.41" height="1.97"/><rect class="cls-6" x="11.8" y="68.2" width="47.86" height="34.04"/><rect class="cls-5" x="11.8" y="111.22" width="47.86" height="5.38"/><rect class="cls-5" x="11.8" y="121.74" width="47.86" height="5.38"/><rect class="cls-5" x="11.8" y="132.26" width="47.86" height="5.38"/><rect class="cls-5" x="11.8" y="142.78" width="47.86" height="5.38"/><rect class="cls-6" x="71.35" y="116.06" width="47.86" height="34.04"/><rect class="cls-5" x="71.35" y="99.66" width="47.86" height="5.38"/><rect class="cls-5" x="71.35" y="89.14" width="47.86" height="5.38"/><rect class="cls-5" x="71.35" y="78.62" width="47.86" height="5.38"/><rect class="cls-5" x="71.35" y="68.15" width="47.86" height="5.38"/></g><g id="Calque_3" data-name="Calque 3"><rect class="cls-7" x="167.5" y="127.25" width="4.5" height="25" rx="2.25" ry="2.25" transform="translate(4.58 293.26) rotate(-84.39)"/><rect class="cls-7" x="139.25" y="97.25" width="23.25" height="4.75" rx="2.37" ry="2.37" transform="matrix(0.56, -0.83, 0.83, 0.56, -25.62, 167.15)"/><rect class="cls-7" x="148.25" y="116.5" width="27.5" height="5" rx="2.5" ry="2.5" transform="translate(-44.48 77.18) rotate(-24.81)"/><rect class="cls-7" x="167.5" y="127.25" width="4.5" height="25" rx="2.25" ry="2.25" transform="translate(4.58 293.26) rotate(-84.39)"/><rect class="cls-7" x="139.25" y="97.25" width="23.25" height="4.75" rx="2.37" ry="2.37" transform="matrix(0.56, -0.83, 0.83, 0.56, -25.62, 167.15)"/><rect class="cls-7" x="148.25" y="116.5" width="27.5" height="5" rx="2.5" ry="2.5" transform="translate(-44.48 77.18) rotate(-24.81)"/><rect class="cls-7" x="167.5" y="127.25" width="4.5" height="25" rx="2.25" ry="2.25" transform="translate(4.58 293.26) rotate(-84.39)"/><rect class="cls-7" x="139.25" y="97.25" width="23.25" height="4.75" rx="2.37" ry="2.37" transform="matrix(0.56, -0.83, 0.83, 0.56, -25.62, 167.15)"/><rect class="cls-7" x="148.25" y="116.5" width="27.5" height="5" rx="2.5" ry="2.5" transform="translate(-44.48 77.18) rotate(-24.81)"/><rect class="cls-7" x="168.5" y="130.25" width="4.5" height="25" rx="2.25" ry="2.25" transform="translate(2.5 296.96) rotate(-84.39)"/><rect class="cls-7" x="140.25" y="100.25" width="23.25" height="4.75" rx="2.37" ry="2.37" transform="translate(-27.66 169.3) rotate(-55.97)"/><rect class="cls-7" x="149.25" y="119.5" width="27.5" height="5" rx="2.5" ry="2.5" transform="translate(-45.65 77.88) rotate(-24.81)"/><rect class="cls-7" x="168.5" y="130.25" width="4.5" height="25" rx="2.25" ry="2.25" transform="translate(2.5 296.96) rotate(-84.39)"/><rect class="cls-7" x="140.25" y="100.25" width="23.25" height="4.75" rx="2.37" ry="2.37" transform="translate(-27.66 169.3) rotate(-55.97)"/><rect class="cls-7" x="149.25" y="119.5" width="27.5" height="5" rx="2.5" ry="2.5" transform="translate(-45.65 77.88) rotate(-24.81)"/><rect class="cls-7" x="168.5" y="130.25" width="4.5" height="25" rx="2.25" ry="2.25" transform="translate(2.5 296.96) rotate(-84.39)"/><rect class="cls-7" x="140.25" y="100.25" width="23.25" height="4.75" rx="2.37" ry="2.37" transform="translate(-27.66 169.3) rotate(-55.97)"/><rect class="cls-7" x="149.25" y="119.5" width="27.5" height="5" rx="2.5" ry="2.5" transform="translate(-45.65 77.88) rotate(-24.81)"/><g class="cls-8"><rect class="cls-9" x="167.5" y="127.25" width="4.5" height="25" rx="2.25" ry="2.25" transform="translate(4.58 293.26) rotate(-84.39)"/><rect class="cls-9" x="139.25" y="97.25" width="23.25" height="4.75" rx="2.37" ry="2.37" transform="matrix(0.56, -0.83, 0.83, 0.56, -25.62, 167.15)"/><rect class="cls-9" x="148.25" y="116.5" width="27.5" height="5" rx="2.5" ry="2.5" transform="translate(-44.48 77.18) rotate(-24.81)"/></g><rect class="cls-5" x="168.5" y="130.25" width="4.5" height="25" rx="2.25" ry="2.25" transform="translate(2.5 296.96) rotate(-84.39)"/><rect class="cls-5" x="140.25" y="100.25" width="23.25" height="4.75" rx="2.37" ry="2.37" transform="translate(-27.66 169.3) rotate(-55.97)"/><rect class="cls-5" x="149.25" y="119.5" width="27.5" height="5" rx="2.5" ry="2.5" transform="translate(-45.65 77.88) rotate(-24.81)"/></g><g id="Calque_6" data-name="Calque 6"><g class="cls-8"><path class="cls-10" d="M141.67,141.67,113,84.33s-22.67,30-21.33,40.67c3.33,6,24,48.67,24,48.67s30.66,8,42.66,3.33A98.8,98.8,0,0,0,151,161" transform="translate(-9.5 -1.77)"/><polyline class="cls-10" points="102.17 195.23 91.5 171.23 78.83 174.56 88.17 222.56 113.5 221.23 106.83 207.89"/><path class="cls-10" d="M90.33,124.33S53,133.67,65.67,165,113,172.33,113,172.33Z" transform="translate(-9.5 -1.77)"/><path class="cls-10" d="M62.37,150.85s-16,1.32-8.07,20.16c7.23,17.1,20.25,6.74,20.25,6.74S62.6,166.9,62.37,150.85Z" transform="translate(-9.5 -1.77)"/></g><path class="cls-11" d="M142.67,146.67,114,89.33s-22.67,30-21.33,40.67c3.33,6,24,48.67,24,48.67s30.66,8,42.66,3.33A98.8,98.8,0,0,0,152,166" transform="translate(-9.5 -1.77)"/><polyline class="cls-11" points="103.17 200.23 92.5 176.23 79.83 179.56 89.17 227.56 114.5 226.23 107.83 212.89"/><path class="cls-12" d="M91.33,129.33S54,138.67,66.67,170,114,177.33,114,177.33Z" transform="translate(-9.5 -1.77)"/><path class="cls-12" d="M63.37,155.85s-16,1.32-8.07,20.16c7.23,17.1,20.25,6.74,20.25,6.74S63.6,171.9,63.37,155.85Z" transform="translate(-9.5 -1.77)"/></g><g id="Calque_7" data-name="Calque 7"><g class="cls-13"><g class="cls-8"><polygon points="260.34 131.86 180.15 131.86 180.15 184.08 220.33 184.08 224.2 186.47 244.49 199 244.93 184.08 260.34 184.08 260.34 131.86"/><polygon class="cls-14" points="260.34 131.86 180.15 131.86 180.15 184.08 220.33 184.08 224.2 186.47 244.49 199 244.93 184.08 260.34 184.08 260.34 131.86"/></g><polygon class="cls-15" points="266.01 126.19 185.82 126.19 185.82 178.41 226 178.41 229.87 180.8 250.16 193.33 250.6 178.41 266.01 178.41 266.01 126.19"/><polygon class="cls-14" points="266.01 126.19 185.82 126.19 185.82 178.41 226 178.41 229.87 180.8 250.16 193.33 250.6 178.41 266.01 178.41 266.01 126.19"/></g><rect class="cls-16" x="195.57" y="138.27" width="42.89" height="2.35" rx="1.18" ry="1.18"/><rect class="cls-16" x="195.54" y="145.33" width="47.43" height="2.35" rx="1.18" ry="1.18"/><rect class="cls-16" x="195.75" y="153.38" width="23.9" height="2.35" rx="1.18" ry="1.18"/><g class="cls-13"><g class="cls-8"><polygon points="235.68 18.36 137.49 18.36 137.49 82.3 186.69 82.3 191.42 85.22 216.27 100.57 216.81 82.3 235.68 82.3 235.68 18.36"/><polygon class="cls-14" points="235.68 18.36 137.49 18.36 137.49 82.3 186.69 82.3 191.42 85.22 216.27 100.57 216.81 82.3 235.68 82.3 235.68 18.36"/></g><polygon class="cls-15" points="241.35 12.69 143.16 12.69 143.16 76.63 192.36 76.63 197.09 79.56 221.94 94.9 222.48 76.63 241.35 76.63 241.35 12.69"/><polygon class="cls-14" points="241.35 12.69 143.16 12.69 143.16 76.63 192.36 76.63 197.09 79.56 221.94 94.9 222.48 76.63 241.35 76.63 241.35 12.69"/></g><path class="cls-16" d="M199.63,61.26c-1.91,0-2.72-.84-3.68-2.37a3.2,3.2,0,0,0-.67-.91c-1.17-.93-2.49-.08-3.66.42l-3.35,1.41c-.56.24-2.48,1.39-3,1.16a38.06,38.06,0,0,0-.71-4.31.85.85,0,0,0-1.55,0,14.6,14.6,0,0,1-1.47,2.42c-1.11,1.37-3.12,2.43-4.92,1.47a2.22,2.22,0,0,1-1-1.24,6.83,6.83,0,0,0,2-2.05c.77-1.22,1.87-3.36,1.43-4.85-.39-1.34-1.45-1.47-2.48-.73a7.46,7.46,0,0,0-2.75,6.74,3,3,0,0,1-3.78-.86c-.7-.82-2,.23-1.3,1a4.82,4.82,0,0,0,5.52,1.4,4.79,4.79,0,0,0,.92,1.4c3,3.12,6.21.56,8.24-2.21a12.83,12.83,0,0,0,0,2.05,1.74,1.74,0,0,0,.34,1c1,1.18,2.79.1,3.82-.33l3.83-1.62c1.15-.49,2.07-1.16,3.39-.09.22.17.27.57.48.77a5.5,5.5,0,0,0,4.24,1.91C200.52,62.9,200.71,61.24,199.63,61.26Zm-23-7.12c.34-.35.46-1,.56-.23a5.53,5.53,0,0,1-.88,2.12,6,6,0,0,1-1,1.29A5.51,5.51,0,0,1,176.64,54.14Z" transform="translate(-9.5 -1.77)"/><path class="cls-16" d="M199.63,61.26c-1.91,0-2.72-.84-3.68-2.37a3.2,3.2,0,0,0-.67-.91,1.91,1.91,0,0,0-1.68-.36l-.22,2.05a2.18,2.18,0,0,1,1.36.57c.22.18.27.58.48.77a5.47,5.47,0,0,0,4.24,1.91C200.52,62.9,200.71,61.24,199.63,61.26Z" transform="translate(-9.5 -1.77)"/><polygon class="cls-16" points="190.7 58.44 200.04 54.14 192.86 48.39 190.7 58.44"/><path class="cls-17" d="M209.6,55.9l-7.18-5.76L239.81,3.5a4.58,4.58,0,0,1,6.46-.72h0A4.61,4.61,0,0,1,247,9.25Z" transform="translate(-9.5 -1.77)"/><path class="cls-5" d="M246.27,2.78h0l-.07,0L206,53l3.63,2.91L247,9.25A4.61,4.61,0,0,0,246.27,2.78Z" transform="translate(-9.5 -1.77)"/><polygon class="cls-16" points="190.78 58.34 190.76 58.42 200.1 54.12 196.47 51.22 190.78 58.34"/><polygon class="cls-18" points="190.76 58.42 191.15 56.46 192.38 57.72 190.76 58.42"/><g class="cls-13"><g class="cls-8"><polygon points="143.19 212.05 205.13 212.05 205.13 252.38 174.1 252.38 171.11 254.23 155.44 263.91 155.09 252.38 143.19 252.38 143.19 212.05"/><polygon class="cls-14" points="143.19 212.05 205.13 212.05 205.13 252.38 174.1 252.38 171.11 254.23 155.44 263.91 155.09 252.38 143.19 252.38 143.19 212.05"/></g><polygon class="cls-15" points="137.52 217.72 199.47 217.72 199.47 258.05 168.43 258.05 165.44 259.9 149.77 269.58 149.43 258.05 137.52 258.05 137.52 217.72"/><polygon class="cls-14" points="137.52 217.72 199.47 217.72 199.47 258.05 168.43 258.05 165.44 259.9 149.77 269.58 149.43 258.05 137.52 258.05 137.52 217.72"/></g><path class="cls-16" d="M189.92,248.87a14.07,14.07,0,0,1-2.2.91,24,24,0,0,1-23.15-6.15c-2.61-2.86-3.62-6-2.85-8.94s3.23-5.15,6.92-6.34a24,24,0,0,1,23.14,6.16c2.61,2.86,3.62,6,2.85,8.93h0A8.7,8.7,0,0,1,189.92,248.87ZM166.81,230a8,8,0,0,0-4.31,4.92c-.69,2.63.26,5.53,2.67,8.19a23.25,23.25,0,0,0,22.3,5.92c3.41-1.1,5.68-3.15,6.38-5.77h0c.69-2.63-.25-5.53-2.67-8.19a23.22,23.22,0,0,0-22.29-5.93A14.11,14.11,0,0,0,166.81,230Z" transform="translate(-9.5 -1.77)"/><path class="cls-16" d="M186.12,241.17a21.1,21.1,0,0,1-4.36,10c-2.08,2.44-4.46,3.58-6.71,3.19s-4.11-2.25-5.26-5.25a18.54,18.54,0,0,1-1.11-6,1.74,1.74,0,0,1-.82,0,19.46,19.46,0,0,0,1.17,6.38c1.26,3.28,3.35,5.33,5.88,5.76a6.47,6.47,0,0,0,4.15-.72,11.23,11.23,0,0,0,3.32-2.75,21.84,21.84,0,0,0,4.54-10.41c.14-.8.23-1.59.29-2.37a1.71,1.71,0,0,1-.81,0C186.34,239.67,186.25,240.42,186.12,241.17Z" transform="translate(-9.5 -1.77)"/><path class="cls-16" d="M180.23,224.21c-2.53-.43-5.19.8-7.46,3.47a22,22,0,0,0-4.55,10.42c-.08.49-.15,1-.2,1.46a2,2,0,0,1,.82-.15c0-.44.11-.73.18-1.18a21,21,0,0,1,4.37-10,10.29,10.29,0,0,1,3.07-2.55,5.67,5.67,0,0,1,3.64-.65c2.24.39,4.11,2.25,5.26,5.25a18.11,18.11,0,0,1,1.08,5.16c.27-.07.56-.26.82-.2a17.38,17.38,0,0,0-1.15-5.25C184.86,226.69,182.77,224.65,180.23,224.21Z" transform="translate(-9.5 -1.77)"/><path class="cls-16" d="M189.29,248.5a14.66,14.66,0,0,1-2.2.91A24,24,0,0,1,164,243.26c-2.61-2.87-3.62-6-2.85-8.94s3.22-5.15,6.91-6.34a24,24,0,0,1,23.14,6.15c2.61,2.87,3.63,6,2.86,8.94h0A8.74,8.74,0,0,1,189.29,248.5Zm-23.1-18.89a7.94,7.94,0,0,0-4.31,4.92c-.7,2.62.25,5.53,2.67,8.18a23.22,23.22,0,0,0,22.29,5.93c3.42-1.1,5.69-3.16,6.38-5.78h0c.7-2.62-.25-5.53-2.67-8.18a23.2,23.2,0,0,0-22.29-5.93A13,13,0,0,0,166.19,229.61Z" transform="translate(-9.5 -1.77)"/><path class="cls-16" d="M186.62,240.8a21,21,0,0,1-4.36,10c-2.08,2.45-4.46,3.58-6.71,3.2s-4.11-2.25-5.26-5.25a17.88,17.88,0,0,1-1.14-5.89,1.77,1.77,0,0,1-.79-.09,18.85,18.85,0,0,0,1.17,6.27c1.26,3.28,3.35,5.32,5.88,5.76a6.54,6.54,0,0,0,4.15-.73,11.34,11.34,0,0,0,3.32-2.74,21.92,21.92,0,0,0,4.54-10.42c.14-.79.23-1.58.29-2.37a1.78,1.78,0,0,1-.82.07C186.83,239.37,186.75,240,186.62,240.8Z" transform="translate(-9.5 -1.77)"/><path class="cls-16" d="M180.73,223.84c-2.53-.44-5.19.79-7.46,3.47a22,22,0,0,0-4.55,10.41c-.08.49-.15,1-.2,1.47a1.71,1.71,0,0,1,.81,0c.06-.45.12-.89.19-1.34a21.11,21.11,0,0,1,4.37-10,10.44,10.44,0,0,1,3.07-2.55,5.73,5.73,0,0,1,3.64-.64c2.24.38,4.11,2.25,5.26,5.25a18,18,0,0,1,1.08,5.15,1.71,1.71,0,0,1,.81,0,18.57,18.57,0,0,0-1.14-5.45C185.36,226.32,183.27,224.27,180.73,223.84Z" transform="translate(-9.5 -1.77)"/><circle class="cls-19" cx="159.43" cy="239.4" r="2.15"/><circle class="cls-19" cx="177.69" cy="235.21" r="2.15"/></g></g></svg>