<svg xmlns="http://www.w3.org/2000/svg" viewBox="0 0 272.92 228.65"><defs><style>.cls-1,.cls-11{isolation:isolate;}.cls-2{fill:#dadada;}.cls-3{fill:#c6c6c6;}.cls-4{fill:#1d1d1b;}.cls-5{fill:#00222d;}.cls-6{opacity:0.75;mix-blend-mode:multiply;}.cls-7{fill:#303030;}.cls-8{fill:#e4003a;}.cls-9{fill:#f0c808;}.cls-10{fill:#ededed;}.cls-11,.cls-13{fill:none;}.cls-11{stroke:#fff;stroke-width:0.88px;opacity:0.2;}.cls-12{fill:#fff;}.cls-13{stroke:#e4003a;stroke-miterlimit:10;stroke-width:2px;}.cls-14{fill:#00678a;opacity:0.7;}.cls-15{fill:#00baee;}.cls-16{fill:#7aadd7;}</style></defs><title>dataV2</title><g class="cls-1"><g id="Calque_1" data-name="Calque 1"><rect id="Rectangle-62" class="cls-2" x="46.43" y="132.6" width="2.53" height="16.65"/><rect class="cls-3" x="141.28" y="153.96" width="43.4" height="17.75"/><path d="M252.31,160.9H84.05V70.3c0-1.44.5-6.14,6.87-6.14h154.7c6,0,6.69,4.3,6.69,6.14Zm-162.26-6H246.31V70.2a5.42,5.42,0,0,0-.69,0H90.92a4.63,4.63,0,0,0-.86.07.17.17,0,0,0,0,.07Z" transform="translate(-5.01 -22.69)"/><path class="cls-2" d="M83.07,157.9v14.8c0,2.36,1.68,4.93,4,4.93H248.86c2.36,0,3.85-2.57,3.85-4.93V157.9Zm0,0" transform="translate(-5.01 -22.69)"/><path class="cls-4" d="M203.76,197.19a4,4,0,0,0-3.94-3.94H136.7a3.95,3.95,0,1,0,0,7.89h63.12a4,4,0,0,0,3.94-3.95Zm0,0" transform="translate(-5.01 -22.69)"/><path class="cls-5" d="M171.93,166.78a3.95,3.95,0,1,1-3.94-3.94,3.95,3.95,0,0,1,3.94,3.94Zm0,0" transform="translate(-5.01 -22.69)"/><g class="cls-6"><polygon class="cls-7" points="91.84 129.2 244.7 129.2 244.7 69.51 222.68 91.95 217.06 74.29 196.73 95.77 192.66 86.22 181.28 98.96 171.52 84.63 153.64 104.53 146.32 97.36 132.5 112.48 119.49 98.96 91.84 129.2"/></g><polygon class="cls-8" points="88.84 132.2 241.7 132.2 241.7 72.51 219.68 94.95 214.06 77.29 193.73 98.77 189.66 89.22 178.28 101.96 168.52 87.63 150.64 107.53 143.32 100.36 129.5 115.48 116.49 101.96 88.84 132.2"/><g class="cls-6"><polygon class="cls-7" points="272.92 19.18 203.51 19.18 203.51 64.37 238.29 64.37 241.63 66.44 259.19 77.28 259.58 64.37 272.92 64.37 272.92 19.18"/></g><polygon class="cls-9" points="269.92 22.18 200.51 22.18 200.51 67.37 235.29 67.37 238.63 69.44 256.19 80.28 256.58 67.37 269.92 67.37 269.92 22.18"/><rect class="cls-10" x="210.81" y="36.06" width="4.67" height="22.04"/><rect class="cls-10" x="217.11" y="42.27" width="4.67" height="15.84"/><rect class="cls-10" x="223.42" y="28.72" width="4.67" height="29.39"/><rect class="cls-10" x="236.03" y="28.72" width="4.67" height="29.39"/><rect class="cls-10" x="242.34" y="50.02" width="4.67" height="8.09"/><rect class="cls-10" x="248.64" y="34.25" width="4.67" height="23.72"/><rect class="cls-10" x="254.95" y="29.48" width="4.67" height="28.48"/><rect class="cls-10" x="229.72" y="42.27" width="4.67" height="15.84"/><rect class="cls-4" x="116.5" y="65.09" width="37.09" height="2.25" rx="1.12" ry="1.12"/><rect class="cls-4" x="116.5" y="71.84" width="22.82" height="2.25" rx="1.12" ry="1.12"/><rect class="cls-4" x="116.3" y="78.59" width="31.21" height="2.25" rx="1.12" ry="1.12"/><g class="cls-6"><polygon class="cls-7" points="119.58 128.94 3 128.94 3 210.94 12.85 210.94 13.54 214.94 15.38 225.65 23.99 217.91 31.75 210.94 119.58 210.94 119.58 128.94"/></g><polygon class="cls-9" points="116.58 131.94 0 131.94 0 213.94 9.85 213.94 10.54 217.94 12.38 228.65 20.99 220.91 28.75 213.94 116.58 213.94 116.58 131.94"/><rect id="Rectangle-54-Copy" class="cls-11" x="4.76" y="136.38" width="107.36" height="73.17" rx="3.17" ry="3.17"/><rect id="Rectangle-62-2" data-name="Rectangle-62" class="cls-12" x="12.36" y="166.66" width="2.53" height="16.65"/><rect id="Rectangle-62-Copy" class="cls-12" x="20.46" y="161.11" width="2.53" height="22.2"/><rect id="Rectangle-62-Copy-2" class="cls-12" x="28.57" y="168.68" width="2.53" height="14.63"/><rect id="Rectangle-62-Copy-3" class="cls-12" x="36.67" y="159.6" width="2.53" height="23.72"/><rect id="Rectangle-62-Copy-4" class="cls-12" x="44.77" y="144.96" width="2.53" height="38.35"/><rect id="Rectangle-62-Copy-5" class="cls-12" x="52.88" y="144.96" width="2.53" height="38.35"/><path id="Oval-42" class="cls-8" d="M82.2,217.61a3,3,0,1,1,3-3A3,3,0,0,1,82.2,217.61Zm0-.81A2.22,2.22,0,1,0,80,214.58,2.22,2.22,0,0,0,82.2,216.8Z" transform="translate(-5.01 -22.69)"/><path id="Oval-42-Copy" class="cls-12" d="M92.33,217.61a3,3,0,1,1,3-3A3,3,0,0,1,92.33,217.61Zm0-.81a2.22,2.22,0,1,0-2.23-2.22A2.22,2.22,0,0,0,92.33,216.8Z" transform="translate(-5.01 -22.69)"/><path id="Oval-42-Copy-2" class="cls-8" d="M102.46,217.61a3,3,0,1,1,3-3A3,3,0,0,1,102.46,217.61Zm0-.81a2.22,2.22,0,1,0-2.23-2.22A2.21,2.21,0,0,0,102.46,216.8Z" transform="translate(-5.01 -22.69)"/><rect id="Rectangle-63" class="cls-12" x="12.87" y="191.89" width="43.55" height="1.01"/><rect id="Rectangle-63-Copy" class="cls-12" x="12.87" y="195.43" width="43.55" height="1.01"/><rect id="Rectangle-63-Copy-2" class="cls-12" x="12.87" y="198.96" width="43.55" height="1.01"/><rect id="Rectangle-63-Copy-3" class="cls-12" x="12.87" y="202.49" width="43.55" height="1.01"/><rect id="Rectangle-63-Copy-4" class="cls-12" x="74.15" y="202.49" width="15.7" height="1.01"/><circle class="cls-12" cx="82.15" cy="165.84" r="9.84"/><path class="cls-13" d="M83.56,174.44a10.09,10.09,0,0,0-10.21,7.2l-.1.37,11.23,3.35Z" transform="translate(-5.01 -22.69)"/><path class="cls-14" d="M91.54,189.33l0,.09a4.12,4.12,0,0,1,.3,2.32,4.17,4.17,0,0,1-1.58,2.67l4.25,8.06a11.73,11.73,0,0,0,7-9.41,11.52,11.52,0,0,0-1.11-6.36Z" transform="translate(-5.01 -22.69)"/><path class="cls-15" d="M90.24,194.3a4.78,4.78,0,0,1-3,.54,4.59,4.59,0,0,1-.82-.17l-1.05,6.54a10.64,10.64,0,0,0,2.47.62,9.38,9.38,0,0,0,5.84-1Z" transform="translate(-5.01 -22.69)"/><circle class="cls-4" cx="64.78" cy="29.03" r="29.03"/><path class="cls-16" d="M69.2,52.31V36.39A16.19,16.19,0,0,1,85.12,52.31Z" transform="translate(-5.01 -22.69)"/><path class="cls-8" d="M69.56,53.64H85.12a16.14,16.14,0,0,1-4.56,11Z" transform="translate(-5.01 -22.69)"/><path class="cls-12" d="M67.87,40.55A12.84,12.84,0,1,0,77,62.64l-9.15-9.15V40.55Z" transform="translate(-5.01 -22.69)"/></g></g></svg>