<svg xmlns="http://www.w3.org/2000/svg" viewBox="0 0 260.25 270.21"><defs><style>.cls-1{isolation:isolate;}.cls-2{fill:#010101;}.cls-3{fill:#3e4959;}.cls-4{fill:#fff;}.cls-5{fill:#cccbca;}.cls-6{fill:#1d1d1b;}.cls-7{fill:#e4003a;}.cls-8{fill:#dadada;}.cls-9{fill:#f0c808;}.cls-10{fill:none;stroke:#000;stroke-miterlimit:10;stroke-width:0.75px;}.cls-11{fill:#ffed00;}.cls-12{opacity:0.6;mix-blend-mode:multiply;}.cls-13{fill:#f6f6f6;}</style></defs><title>designV2</title><g class="cls-1"><g id="Calque_1" data-name="Calque 1"><path class="cls-2" d="M234.83,41a6.43,6.43,0,0,0-4.54-1.87H49.71a6.37,6.37,0,0,0-6.4,6.4v111.6H236.7V45.55A6.38,6.38,0,0,0,234.83,41Z" transform="translate(-12.08 -5)"/><circle class="cls-3" cx="127.92" cy="39.08" r="2.71"/><circle class="cls-4" cx="127.92" cy="39.08" r="1.17"/><rect class="cls-4" x="41.28" y="44" width="173.27" height="108.15"/><rect class="cls-4" x="10.71" y="152.15" width="234.4" height="2.9"/><path class="cls-5" d="M22.8,160.06a68.42,68.42,0,0,0,27.67,5.81H229.54a68.41,68.41,0,0,0,27.66-5.81Z" transform="translate(-12.08 -5)"/><rect class="cls-2" x="107.58" y="152.15" width="40.68" height="1.45"/><polygon class="cls-2" points="203.67 34.16 202.44 44 53.39 44 52.16 34.16 203.67 34.16"/><path class="cls-6" d="M118.07,87h-6.28V80.71h6.28Zm-5.76-.52h5.24V81.23h-5.24Z" transform="translate(-12.08 -5)"/><path class="cls-6" d="M140.16,108.67A24.85,24.85,0,0,0,164.8,86.73h.83a25.64,25.64,0,0,1-50.95,0h.83A24.86,24.86,0,0,0,140.16,108.67Z" transform="translate(-12.08 -5)"/><path class="cls-6" d="M164.8,81a24.81,24.81,0,0,0-49.29,0h-.83a25.64,25.64,0,0,1,50.95,0Z" transform="translate(-12.08 -5)"/><path class="cls-6" d="M168.22,87.13h-6.28V80.85h6.28Zm-5.76-.53h5.24V81.37h-5.24Z" transform="translate(-12.08 -5)"/><rect class="cls-6" x="125.19" y="101.33" width="5.76" height="5.76"/><rect class="cls-6" x="102.62" y="104.23" width="50.77" height="0.8"/><circle class="cls-6" cx="102.65" cy="104.76" r="1.92"/><circle class="cls-6" cx="153.46" cy="104.76" r="1.92"/><circle class="cls-7" cx="127.92" cy="78.58" r="12.18"/></g><g id="Calque_3" data-name="Calque 3"><path d="M152.72,149.48l33.24.2a11.4,11.4,0,0,1-.65-2l-32.58-.2a11,11,0,0,1-10.94-11.07l.1-15.5h-2l-.1,15.5A13,13,0,0,0,152.72,149.48Z" transform="translate(-12.08 -5)"/><path d="M128,208.5H94.76a12.33,12.33,0,0,1,.66,2H128a11,11,0,0,1,11,11V237h2V221.5A13,13,0,0,0,128,208.5Z" transform="translate(-12.08 -5)"/><path d="M14.08,197.5v-6.67a11,11,0,0,1,11-11H47.91v-2H25.08a13,13,0,0,0-13,13v6.67a13,13,0,0,0,13,13h80.67v-2H25.08A11,11,0,0,1,14.08,197.5Z" transform="translate(-12.08 -5)"/><rect x="71.42" y="172.83" width="22.25" height="2"/><path d="M259.33,147.67H178.67v2h80.66a11,11,0,0,1,11,11v6.66a11,11,0,0,1-11,11H231.92v2h27.41a13,13,0,0,0,13-13v-6.66A13,13,0,0,0,259.33,147.67Z" transform="translate(-12.08 -5)"/></g><g id="Calque_4" data-name="Calque 4"><path class="cls-8" d="M140.21,110.67l7.12,15.89s-2.9-.59-4.33,5.11a27.52,27.52,0,0,1-4.68.12,5.07,5.07,0,0,0-5-5.23C135.94,120.87,140.21,110.67,140.21,110.67Z" transform="translate(-12.08 -5)"/><rect class="cls-9" x="123.46" y="125.31" width="10.33" height="2.22" rx="1.11" ry="1.11"/><rect class="cls-9" x="125.95" y="127.71" width="5.35" height="3.73"/><line class="cls-10" x1="128.13" y1="105.66" x2="128.13" y2="114.09"/><polygon class="cls-4" points="208.13 179.57 219.05 174.1 208.12 168.65 208.13 179.57"/><rect class="cls-9" x="36.78" y="168.71" width="171.34" height="10.92"/><rect class="cls-11" x="36.78" y="168.71" width="171.34" height="5.46"/><polygon class="cls-2" points="214.78 176.25 219.05 174.1 214.77 171.96 214.78 176.25"/><rect class="cls-4" x="45.94" y="168.76" width="3.86" height="10.92"/><rect class="cls-2" x="36.78" y="168.76" width="9.16" height="10.92"/></g><g id="Calque_2" data-name="Calque 2"><g class="cls-12"><rect x="49.01" width="20.25" height="151.88"/><rect x="49.01" y="146.06" width="5.62" height="1.53"/><rect x="49.01" y="135.93" width="5.62" height="1.53"/><rect x="49.01" y="125.81" width="5.62" height="1.52"/><rect x="49.01" y="115.68" width="5.62" height="1.52"/><rect x="49.01" y="105.57" width="5.62" height="1.53"/><rect x="49.01" y="95.43" width="5.62" height="1.52"/><rect x="49.01" y="85.3" width="5.62" height="1.52"/><rect x="49.01" y="75.18" width="5.62" height="1.53"/><rect x="49.01" y="65.05" width="5.62" height="1.52"/><rect x="49.01" y="54.94" width="5.62" height="1.53"/><rect x="49.01" y="44.81" width="5.62" height="1.52"/><rect x="49.01" y="29.61" width="2.96" height="1.52"/><rect x="49.01" y="19.49" width="2.96" height="1.53"/><rect x="49.01" y="9.36" width="2.96" height="1.53"/><rect x="49.01" y="141.01" width="2.96" height="1.52"/><rect x="49.01" y="130.87" width="2.96" height="1.53"/><rect x="49.01" y="120.74" width="2.96" height="1.52"/><rect x="49.01" y="110.62" width="2.96" height="1.52"/><rect x="49.01" y="100.49" width="2.96" height="1.52"/><rect x="49.01" y="90.38" width="2.96" height="1.52"/><rect x="49.01" y="80.24" width="2.96" height="1.52"/><rect x="49.01" y="70.13" width="2.96" height="1.52"/><rect x="49.01" y="59.99" width="2.96" height="1.52"/><rect x="49.01" y="49.88" width="2.96" height="1.52"/><rect x="49.01" y="39.75" width="2.96" height="1.52"/><rect x="49.01" y="34.69" width="5.62" height="1.52"/><rect x="49.01" y="24.56" width="5.62" height="1.52"/><rect x="49.01" y="14.44" width="5.62" height="1.52"/><rect x="49.01" y="4.31" width="5.62" height="1.52"/></g><rect class="cls-2" x="43.34" width="20.25" height="151.88"/><rect class="cls-4" x="43.34" y="146.06" width="5.62" height="1.53"/><rect class="cls-4" x="43.34" y="135.93" width="5.62" height="1.53"/><rect class="cls-4" x="43.34" y="125.81" width="5.62" height="1.52"/><rect class="cls-4" x="43.34" y="115.68" width="5.62" height="1.52"/><rect class="cls-4" x="43.34" y="105.57" width="5.62" height="1.53"/><rect class="cls-4" x="43.34" y="95.43" width="5.62" height="1.52"/><rect class="cls-4" x="43.34" y="85.3" width="5.62" height="1.52"/><rect class="cls-4" x="43.34" y="75.18" width="5.62" height="1.53"/><rect class="cls-4" x="43.34" y="65.05" width="5.62" height="1.52"/><rect class="cls-4" x="43.34" y="54.94" width="5.62" height="1.53"/><rect class="cls-4" x="43.34" y="44.81" width="5.62" height="1.52"/><rect class="cls-4" x="43.34" y="29.61" width="2.96" height="1.52"/><rect class="cls-4" x="43.34" y="19.49" width="2.96" height="1.53"/><rect class="cls-4" x="43.34" y="9.36" width="2.96" height="1.53"/><rect class="cls-4" x="43.34" y="141.01" width="2.96" height="1.52"/><rect class="cls-4" x="43.34" y="130.87" width="2.96" height="1.53"/><rect class="cls-4" x="43.34" y="120.74" width="2.96" height="1.52"/><rect class="cls-4" x="43.34" y="110.62" width="2.96" height="1.52"/><rect class="cls-4" x="43.34" y="100.49" width="2.96" height="1.52"/><rect class="cls-4" x="43.34" y="90.38" width="2.96" height="1.52"/><rect class="cls-4" x="43.34" y="80.24" width="2.96" height="1.52"/><rect class="cls-4" x="43.34" y="70.13" width="2.96" height="1.52"/><rect class="cls-4" x="43.34" y="59.99" width="2.96" height="1.52"/><rect class="cls-4" x="43.34" y="49.88" width="2.96" height="1.52"/><rect class="cls-4" x="43.34" y="39.75" width="2.96" height="1.52"/><rect class="cls-4" x="43.34" y="34.69" width="5.62" height="1.52"/><rect class="cls-4" x="43.34" y="24.56" width="5.62" height="1.52"/><rect class="cls-4" x="43.34" y="14.44" width="5.62" height="1.52"/><rect class="cls-4" x="43.34" y="4.31" width="5.62" height="1.52"/><rect class="cls-13" x="125.4" y="223.28" width="29.29" height="51.94" rx="14.17" ry="14.17" transform="translate(-11.27 -5.46) rotate(0.19)"/><circle class="cls-6" cx="128.01" cy="229.71" r="2.52"/><path class="cls-8" d="M125.29,264s21.8,10.28,24-5.5c1.19-11.55-2.32-33.9-2.32-33.9s7.42,2.63,7.55,7.15c.12,4.18.23,35,.23,35a8.49,8.49,0,0,1-8.34,8.21c-5.89-.08-12.07-.1-12.07-.1a8.2,8.2,0,0,1-8.67-5.11,7.06,7.06,0,0,1-.5-3.22A25,25,0,0,0,125.29,264Z" transform="translate(-12.08 -5)"/></g></g></svg>