<svg xmlns="http://www.w3.org/2000/svg" viewBox="0 0 234.35 249.37"><defs><style>.cls-1{isolation:isolate;}.cls-2{fill:#1d1d1b;}.cls-3{fill:#3e4959;}.cls-4{fill:#fff;}.cls-5{fill:#d9d8d7;}.cls-6{fill:#ededed;}.cls-7{fill:#cccbca;}.cls-8{fill:#f0c808;}.cls-9{fill:#e4003a;}.cls-10{opacity:0.75;mix-blend-mode:multiply;}.cls-11,.cls-17{fill:none;stroke-miterlimit:10;}.cls-11{stroke:#000;}.cls-12{fill:#010101;}.cls-13{fill:#c6c6c6;}.cls-14{fill:#575756;}.cls-15{fill:#706f6f;}.cls-16{fill:#dadada;}.cls-17{stroke:#fff;}</style></defs><title>eshop</title><g class="cls-1"><g id="Calque_3" data-name="Calque 3"><path class="cls-2" d="M231.92,42.38a6.32,6.32,0,0,0-4.47-1.84H49.36a6.28,6.28,0,0,0-6.31,6.3V156.9H233.77V46.84A6.24,6.24,0,0,0,231.92,42.38Z" transform="translate(-22.82 -24.61)"/><circle class="cls-3" cx="115.58" cy="20.78" r="2.67"/><circle class="cls-4" cx="115.58" cy="20.78" r="1.15"/><rect class="cls-4" x="30.14" y="25.64" width="170.87" height="106.65"/><rect class="cls-4" y="132.29" width="231.16" height="2.86"/><polygon class="cls-2" points="190.28 15.93 189.08 25.64 42.08 25.64 40.88 15.93 190.28 15.93"/><polygon class="cls-5" points="189.08 25.64 183.26 72.06 47.9 72.06 42.08 25.64 189.08 25.64"/><polygon class="cls-5" points="183.26 72.06 182.57 77.76 48.59 77.76 47.9 72.06 183.26 72.06"/><polygon class="cls-5" points="182.57 77.76 181.85 83.48 49.31 83.48 48.59 77.76 182.57 77.76"/><polygon class="cls-5" points="181.85 83.48 175.75 132.29 55.41 132.29 49.31 83.48 181.85 83.48"/><rect class="cls-6" x="55.41" y="0.39" width="120.33" height="131.9"/><path class="cls-7" d="M26,160.07A67.33,67.33,0,0,0,53.3,165.8H229.89a67.33,67.33,0,0,0,27.29-5.73Z" transform="translate(-22.82 -24.61)"/><rect class="cls-2" x="99.29" y="90.55" width="65.5" height="1.67"/><rect class="cls-2" x="99.37" y="94.48" width="65.5" height="1.67"/><rect class="cls-2" x="128.21" y="98.42" width="37.07" height="1.67"/><rect class="cls-2" x="99.29" y="108.34" width="65.5" height="1.67"/><rect class="cls-2" x="99.37" y="112.27" width="65.5" height="1.67"/><rect class="cls-2" x="128.21" y="116.21" width="37.07" height="1.67"/><rect class="cls-8" x="55.47" width="120.25" height="10.31"/><rect class="cls-4" x="87.13" y="4.09" width="83.33" height="2.13"/><path class="cls-4" d="M82.1,31.28a1.53,1.53,0,0,1-1.53-1.52,1.5,1.5,0,0,1,1.5-1.51h0a1.52,1.52,0,1,1,0,3Z" transform="translate(-22.82 -24.61)"/><path class="cls-4" d="M88.17,31.28a1.53,1.53,0,0,1-1.53-1.52,1.5,1.5,0,0,1,1.5-1.51h0a1.52,1.52,0,1,1,0,3Z" transform="translate(-22.82 -24.61)"/><path class="cls-4" d="M94.24,31.28a1.53,1.53,0,0,1-1.53-1.52,1.5,1.5,0,0,1,1.5-1.51h0a1.52,1.52,0,1,1,0,3Z" transform="translate(-22.82 -24.61)"/><polygon class="cls-9" points="159.09 22.51 169.32 21.18 171.35 15.92 157.83 16.2 159.09 22.51"/><path d="M194.1,40.32a.36.36,0,0,0-.28-.14h-13.3l-.35-1.82c0-.14-.21-.28-.35-.28h-2.1a.35.35,0,0,0,0,.7h1.82l1.68,8.55a2.47,2.47,0,0,0,2.38,2h8.05a.35.35,0,1,0,0-.7h-8a1.61,1.61,0,0,1-1.4-.77l10.22-1.4a.3.3,0,0,0,.28-.28l1.4-5.61A.35.35,0,0,0,194.1,40.32Zm-2,5.47-10.22,1.33-1.26-6.31h12.67Z" transform="translate(-22.82 -24.61)"/><path d="M183.32,50a1.75,1.75,0,1,0,1.75,1.75A1.73,1.73,0,0,0,183.32,50Zm0,2.8a1.05,1.05,0,1,1,1.05-1A1.08,1.08,0,0,1,183.32,52.79Z" transform="translate(-22.82 -24.61)"/><path d="M190.32,50a1.75,1.75,0,1,0,1.75,1.75A1.73,1.73,0,0,0,190.32,50Zm0,2.8a1.05,1.05,0,1,1,1.05-1A1.08,1.08,0,0,1,190.32,52.79Z" transform="translate(-22.82 -24.61)"/><rect class="cls-9" x="76.95" y="39.7" width="25.3" height="25.3"/><rect class="cls-9" x="108.28" y="39.7" width="25.3" height="25.3"/><rect class="cls-9" x="139.6" y="39.7" width="25.3" height="25.3"/><rect class="cls-8" x="69.45" y="22.33" width="35.06" height="3.01"/><rect class="cls-2" x="76.81" y="67.27" width="25.3" height="1.67"/><rect class="cls-2" x="76.84" y="71.2" width="25.3" height="1.67"/><rect class="cls-2" x="87.98" y="75.14" width="14.32" height="1.67"/><rect class="cls-2" x="108.32" y="67.27" width="25.3" height="1.67"/><rect class="cls-2" x="108.36" y="71.2" width="25.3" height="1.67"/><rect class="cls-2" x="119.49" y="75.14" width="14.32" height="1.67"/><rect class="cls-2" x="139.41" y="67.27" width="25.3" height="1.67"/><rect class="cls-2" x="139.44" y="71.2" width="25.3" height="1.67"/><rect class="cls-2" x="150.58" y="75.14" width="14.32" height="1.67"/></g><g id="Calque_1" data-name="Calque 1"><g class="cls-10"><path d="M112.87,128.84,65.87,141a11.84,11.84,0,0,0-8.57,14.52l19.18,74.4A11.84,11.84,0,0,0,91,238.45l47-12.12a11.83,11.83,0,0,0,8.57-14.52L127.4,137.42A11.84,11.84,0,0,0,112.87,128.84Z" transform="translate(-22.82 -24.61)"/><rect x="70.39" y="144.97" width="62.96" height="76.82" transform="translate(-65.37 6.62) rotate(-14.45)"/><path d="M101.17,139l-16.11,4.15a1.19,1.19,0,0,1-1.35-.79h0a1.2,1.2,0,0,1,.8-1.36l16.11-4.15a1.19,1.19,0,0,1,1.35.8h0A1.19,1.19,0,0,1,101.17,139Z" transform="translate(-22.82 -24.61)"/><circle cx="57.93" cy="118.53" r="1.11"/><path d="M116.07,225.69a3.05,3.05,0,1,1-3.72-2.2A3.08,3.08,0,0,1,116.07,225.69Z" transform="translate(-22.82 -24.61)"/><path d="M119.81,171.6l0-3-2.18-.76h0a12.28,12.28,0,0,0-.51-1.94l1.53-1.72-1.47-2.58-2.26.43h0q-.33-.39-.69-.75a9.73,9.73,0,0,0-.74-.69h0l.46-2.26-2.56-1.5-1.74,1.51a11.47,11.47,0,0,0-1.93-.53h0l-.73-2.18-3,0-.76,2.17h0a12.45,12.45,0,0,0-1.93.51l-1.73-1.53-2.58,1.47.44,2.26h0a9.59,9.59,0,0,0-.75.68c-.24.24-.47.49-.69.74h0l-2.26-.46-1.5,2.56,1.5,1.74a12.78,12.78,0,0,0-.52,1.93h0l-2.19.73v3l2.17.76h0a12.45,12.45,0,0,0,.51,1.93l-1.53,1.73,1.47,2.58L96,178h0q.33.39.69.75a9.73,9.73,0,0,0,.74.69l-.47,2.25,2.56,1.5,1.74-1.5a13.73,13.73,0,0,0,1.93.53h0l.73,2.18h3l.76-2.17h0a13.66,13.66,0,0,0,1.93-.5l1.72,1.52,2.58-1.47-.43-2.26h0c.26-.21.51-.44.75-.67s.47-.49.69-.75h0l2.25.46,1.5-2.56-1.51-1.74a12.52,12.52,0,0,0,.54-1.93h0Zm-14.37,2a3.55,3.55,0,1,1,3.57-3.53A3.54,3.54,0,0,1,105.44,173.58Z" transform="translate(-22.82 -24.61)"/><path d="M105.5,163a7,7,0,1,0,7,7.08A7,7,0,0,0,105.5,163Zm-.06,10.59a3.55,3.55,0,1,1,3.57-3.53A3.54,3.54,0,0,1,105.44,173.58Z" transform="translate(-22.82 -24.61)"/><path d="M73.68,159.08a2.37,2.37,0,1,1-2.35-2.38A2.37,2.37,0,0,1,73.68,159.08Z" transform="translate(-22.82 -24.61)"/><path d="M123.54,202.48l-35.07-.21a4.17,4.17,0,0,1-4.15-4.2V198a4.16,4.16,0,0,1,3.3-4.06l29.43-6.29a1.29,1.29,0,1,1,.54,2.52l-29.43,6.3a1.5,1.5,0,0,0-.9.55,1.52,1.52,0,0,0-.36,1v.11a1.59,1.59,0,0,0,1.58,1.6l35.08.21a1.28,1.28,0,0,1,1.28,1.29A1.3,1.3,0,0,1,123.54,202.48Z" transform="translate(-22.82 -24.61)"/><path d="M89.41,196.13a1.29,1.29,0,0,1-1.26-1.1L83,161.77a1.63,1.63,0,0,0-.54-1,1.61,1.61,0,0,0-1-.39l-10.16-.06A1.28,1.28,0,0,1,70,159.06a1.29,1.29,0,0,1,1.29-1.29l10.16.06a4.22,4.22,0,0,1,2.71,1,4.14,4.14,0,0,1,1.4,2.53l5.11,33.26a1.28,1.28,0,0,1-1.08,1.47A.75.75,0,0,1,89.41,196.13Z" transform="translate(-22.82 -24.61)"/><rect x="88.16" y="201.22" width="6.07" height="3.04" transform="translate(-134.9 268.15) rotate(-89.67)"/><path d="M95,206.11a3.8,3.8,0,1,1-3.78-3.82A3.81,3.81,0,0,1,95,206.11Z" transform="translate(-22.82 -24.61)"/><path d="M93.17,206.11a1.9,1.9,0,1,1-1.88-1.91A1.88,1.88,0,0,1,93.17,206.11Z" transform="translate(-22.82 -24.61)"/><rect x="118" y="201.4" width="6.07" height="3.04" transform="translate(-105.41 298.15) rotate(-89.67)"/><circle cx="98.18" cy="181.65" r="3.79"/><circle cx="82.74" cy="145.67" r="4.49"/><path d="M123,206.28a1.9,1.9,0,1,1-1.89-1.91A1.91,1.91,0,0,1,123,206.28Z" transform="translate(-22.82 -24.61)"/><path d="M84.26,169.91,88,193.83l.19,1.2.21,1.36h0l35.36-7.57a1.45,1.45,0,0,0,.86-.52,1.5,1.5,0,0,0,.34-1l.09-15.69a1.52,1.52,0,0,0-1.51-1.52l-39.24-.23Z" transform="translate(-22.82 -24.61)"/><path d="M123.5,170.14l-39.24-.23,1.45,9.37,39.25.23.05-7.85a1.52,1.52,0,0,0-1.51-1.52Z" transform="translate(-22.82 -24.61)"/><path class="cls-11" d="M120.18,225.36a4.22,4.22,0,1,1-4.21-4.22A4.16,4.16,0,0,1,120.18,225.36Z" transform="translate(-22.82 -24.61)"/></g><path class="cls-12" d="M107.87,124.84,60.87,137a11.84,11.84,0,0,0-8.57,14.52l19.18,74.4A11.84,11.84,0,0,0,86,234.45l47-12.12a11.83,11.83,0,0,0,8.57-14.52L122.4,133.42A11.84,11.84,0,0,0,107.87,124.84Z" transform="translate(-22.82 -24.61)"/><rect class="cls-4" x="65.39" y="140.97" width="62.96" height="76.82" transform="translate(-64.53 5.24) rotate(-14.45)"/><path class="cls-4" d="M96.17,135l-16.11,4.15a1.19,1.19,0,0,1-1.35-.79h0a1.2,1.2,0,0,1,.8-1.36l16.11-4.15a1.19,1.19,0,0,1,1.35.8h0A1.19,1.19,0,0,1,96.17,135Z" transform="translate(-22.82 -24.61)"/><circle class="cls-4" cx="52.93" cy="114.53" r="1.11"/><path class="cls-12" d="M111.07,221.69a3.05,3.05,0,1,1-3.72-2.2A3.08,3.08,0,0,1,111.07,221.69Z" transform="translate(-22.82 -24.61)"/><path class="cls-9" d="M114.81,167.6l0-3-2.18-.76h0a12.28,12.28,0,0,0-.51-1.94l1.53-1.72-1.47-2.58-2.26.43h0q-.33-.39-.69-.75a9.73,9.73,0,0,0-.74-.69h0l.46-2.26-2.56-1.5-1.74,1.51a11.47,11.47,0,0,0-1.93-.53h0l-.73-2.18-3,0-.76,2.17h0a12.45,12.45,0,0,0-1.93.51l-1.73-1.53-2.58,1.47.44,2.26h0a9.59,9.59,0,0,0-.75.68c-.24.24-.47.49-.69.74h0l-2.26-.46-1.5,2.56,1.5,1.74a12.78,12.78,0,0,0-.52,1.93h0l-2.19.73v3l2.17.76h0a12.45,12.45,0,0,0,.51,1.93l-1.53,1.73,1.47,2.58L91,174h0q.33.39.69.75a9.73,9.73,0,0,0,.74.69l-.47,2.25,2.56,1.5,1.74-1.5a13.73,13.73,0,0,0,1.93.53h0l.73,2.18h3l.76-2.17h0a13.66,13.66,0,0,0,1.93-.5l1.72,1.52,2.58-1.47-.43-2.26h0c.26-.21.51-.44.75-.67s.47-.49.69-.75h0l2.25.46,1.5-2.56-1.51-1.74a12.52,12.52,0,0,0,.54-1.93h0Zm-14.37,2a3.55,3.55,0,1,1,3.57-3.53A3.54,3.54,0,0,1,100.44,169.58Z" transform="translate(-22.82 -24.61)"/><path class="cls-4" d="M100.5,159a7,7,0,1,0,7,7.08A7,7,0,0,0,100.5,159Zm-.06,10.59a3.55,3.55,0,1,1,3.57-3.53A3.54,3.54,0,0,1,100.44,169.58Z" transform="translate(-22.82 -24.61)"/><path class="cls-12" d="M68.68,155.08a2.37,2.37,0,1,1-2.35-2.38A2.37,2.37,0,0,1,68.68,155.08Z" transform="translate(-22.82 -24.61)"/><path class="cls-13" d="M118.54,198.48l-35.07-.21a4.17,4.17,0,0,1-4.15-4.2V194a4.16,4.16,0,0,1,3.3-4.06l29.43-6.29a1.29,1.29,0,1,1,.54,2.52l-29.43,6.3a1.5,1.5,0,0,0-.9.55,1.52,1.52,0,0,0-.36,1v.11a1.59,1.59,0,0,0,1.58,1.6l35.08.21a1.28,1.28,0,0,1,1.28,1.29A1.3,1.3,0,0,1,118.54,198.48Z" transform="translate(-22.82 -24.61)"/><path class="cls-13" d="M84.41,192.13a1.29,1.29,0,0,1-1.26-1.1L78,157.77a1.63,1.63,0,0,0-.54-1,1.61,1.61,0,0,0-1-.39l-10.16-.06A1.28,1.28,0,0,1,65,155.06a1.29,1.29,0,0,1,1.29-1.29l10.16.06a4.22,4.22,0,0,1,2.71,1,4.14,4.14,0,0,1,1.4,2.53l5.11,33.26a1.28,1.28,0,0,1-1.08,1.47A.75.75,0,0,1,84.41,192.13Z" transform="translate(-22.82 -24.61)"/><rect class="cls-14" x="83.16" y="197.22" width="6.07" height="3.04" transform="translate(-135.87 259.17) rotate(-89.67)"/><path class="cls-12" d="M90,202.11a3.8,3.8,0,1,1-3.78-3.82A3.81,3.81,0,0,1,90,202.11Z" transform="translate(-22.82 -24.61)"/><path class="cls-4" d="M88.17,202.11a1.9,1.9,0,1,1-1.88-1.91A1.88,1.88,0,0,1,88.17,202.11Z" transform="translate(-22.82 -24.61)"/><rect class="cls-14" x="113" y="197.4" width="6.07" height="3.04" transform="translate(-106.38 289.18) rotate(-89.67)"/><circle class="cls-12" cx="93.18" cy="177.65" r="3.79"/><circle class="cls-15" cx="77.74" cy="141.67" r="4.49"/><path class="cls-4" d="M118,202.28a1.9,1.9,0,1,1-1.89-1.91A1.91,1.91,0,0,1,118,202.28Z" transform="translate(-22.82 -24.61)"/><path class="cls-13" d="M79.26,165.91,83,189.83l.19,1.2.21,1.36h0l35.36-7.57a1.45,1.45,0,0,0,.86-.52,1.5,1.5,0,0,0,.34-1l.09-15.69a1.52,1.52,0,0,0-1.51-1.52l-39.24-.23Z" transform="translate(-22.82 -24.61)"/><path class="cls-16" d="M118.5,166.14l-39.24-.23,1.45,9.37,39.25.23.05-7.85a1.52,1.52,0,0,0-1.51-1.52Z" transform="translate(-22.82 -24.61)"/><path class="cls-17" d="M115.18,221.36a4.22,4.22,0,1,1-4.21-4.22A4.16,4.16,0,0,1,115.18,221.36Z" transform="translate(-22.82 -24.61)"/></g><g id="Calque_2" data-name="Calque 2"><path d="M225.55,192.78l-20.24,1.66c-2.47-8.44-9-14.88-16.95-16.5a21.57,21.57,0,0,0-10.26-4.23v-.19h-2.61v.15a26,26,0,0,0-23.24,25.12l-16.59,1.36,10.27,64.22L205.25,274l14.13-7.05,13.87-64.72Zm-23.09,1.89-4.11.34a27.3,27.3,0,0,0-5.14-12.26,21.27,21.27,0,0,1,9.25,11.92Zm-15.22-14.1a23.69,23.69,0,0,1,8.31,14.67l-29.8,2.44a21.75,21.75,0,0,1,19.91-17.29c.53,0,1.06.1,1.58.18Zm-10.5-4.19a18.18,18.18,0,0,1,6.11,1.52,24.57,24.57,0,0,0-20,20l-7.8.64a23.18,23.18,0,0,1,21.69-22.18Zm29.39,93.89L205,270l19.14-75.13,1.13.29Zm0,0" transform="translate(-22.82 -24.61)"/></g></g></svg>