<svg xmlns="http://www.w3.org/2000/svg" viewBox="0 0 245.67 269.75"><defs><style>.cls-1{isolation:isolate;}.cls-2{fill:#1f3750;}.cls-3{fill:#1d1d1b;}.cls-4{fill:#3e4959;}.cls-5{fill:#fff;}.cls-6{fill:#cccbca;}.cls-7{fill:#d6b21a;}.cls-8{fill:#f0c808;}.cls-9{fill:#d9d8d7;}.cls-10{fill:#ededed;}.cls-11{fill:#010101;}.cls-12{fill:#fdfeff;}.cls-13,.cls-14{fill:#e4003a;}.cls-14{opacity:0.7;}.cls-15{opacity:0.6;mix-blend-mode:multiply;}.cls-16,.cls-17,.cls-18{fill:none;stroke:#1d1d1b;stroke-miterlimit:10;}.cls-17{stroke-dasharray:2.73 2.73 2.73 2.73;}.cls-18{stroke-dasharray:2.73 2.73 2.73 2.73 2.73 2.73;}</style></defs><title>inte</title><g class="cls-1"><g id="Calque_1" data-name="Calque 1"><rect class="cls-2" x="211.44" y="111.46" width="8.45" height="10.07"/></g><g id="Calque_2" data-name="Calque 2"><path class="cls-3" d="M225.65,69.57A5.61,5.61,0,0,0,221.71,68H64.88a5.63,5.63,0,0,0-3.94,1.62,5.57,5.57,0,0,0-1.62,3.94v96.92h168V73.51A5.57,5.57,0,0,0,225.65,69.57Z" transform="translate(-2.5 -5.92)"/><circle class="cls-4" cx="140.79" cy="66.31" r="2.35"/><circle class="cls-5" cx="140.79" cy="66.31" r="1.01"/><rect class="cls-5" x="65.55" y="70.58" width="150.48" height="93.92"/><rect class="cls-5" x="39.01" y="164.51" width="203.57" height="2.52"/><path class="cls-6" d="M41.51,173a59.23,59.23,0,0,0,24,5.05H221.05a59.27,59.27,0,0,0,24-5.05Z" transform="translate(-2.5 -5.92)"/><polygon class="cls-5" points="44.51 121.52 32.49 116.49 44.51 111.45 44.51 121.52"/><rect class="cls-7" x="44.51" y="111.46" width="192.58" height="10.07"/><rect class="cls-8" x="44.51" y="111.46" width="192.58" height="5.04"/><rect class="cls-2" x="240.08" y="111.46" width="5.59" height="10.07"/><polygon class="cls-3" points="206.58 62.03 205.52 70.58 76.07 70.58 75 62.03 206.58 62.03"/><polygon class="cls-9" points="205.52 70.58 200.4 111.46 81.19 111.46 76.07 70.58 205.52 70.58"/><polygon class="cls-7" points="200.4 111.46 199.79 116.48 81.8 116.48 81.19 111.46 200.4 111.46"/><polygon class="cls-7" points="199.79 116.48 199.16 121.52 82.43 121.52 81.8 116.48 199.79 116.48"/><polygon class="cls-9" points="199.16 121.52 193.78 164.51 87.8 164.51 82.43 121.52 199.16 121.52"/><rect class="cls-10" x="87.81" width="105.97" height="164.5"/><rect class="cls-11" x="95.96" y="5.13" width="89.66" height="11.73"/><rect class="cls-5" x="105.92" y="10.05" width="9.96" height="1.88"/><rect class="cls-5" x="125.84" y="10.05" width="9.96" height="1.88"/><rect class="cls-5" x="145.77" y="10.05" width="9.96" height="1.88"/><rect class="cls-5" x="165.7" y="10.05" width="9.97" height="1.88"/><polygon class="cls-2" points="38.43 119.06 32.42 116.54 38.43 114.02 38.43 119.06"/><path class="cls-12" d="M191.36,139l-.79-5.07h-8.71l-.8,5.07a22.57,22.57,0,0,0-7.18,3l-4.15-3-6.17,6.17,3,4.13a22.76,22.76,0,0,0-3,7.18l-5,.8V166l5,.8a20.88,20.88,0,0,0,1.05,3.37h9.84a14.5,14.5,0,0,1,22-18.76V140.82A22.29,22.29,0,0,0,191.36,139Z" transform="translate(-2.5 -5.92)"/><path class="cls-12" d="M181.05,122.45v-7l-4.07-.63a18.25,18.25,0,0,0-2.39-5.77l2.43-3.32-5-5-3.33,2.42A18.33,18.33,0,0,0,163,100.8l-.64-4.06h-7l-.64,4.06a18.09,18.09,0,0,0-5.76,2.4l-3.32-2.43-5,5L143.1,109a18,18,0,0,0-2.4,5.77l-4.06.63v7l4.06.63a18,18,0,0,0,2.39,5.77l-2.42,3.32,5,5,3.32-2.42a18.27,18.27,0,0,0,5.76,2.38l.64,4.07h7l.64-4.07a18.23,18.23,0,0,0,5.77-2.38l3.32,2.42,5-5-2.42-3.32a18.23,18.23,0,0,0,2.38-5.77Zm-22.21,8.15a11.66,11.66,0,1,1,11.65-11.66A11.66,11.66,0,0,1,158.84,130.6Z" transform="translate(-2.5 -5.92)"/><rect class="cls-13" x="115.05" y="32.83" width="12.74" height="2.41"/><rect class="cls-12" x="115.25" y="38.46" width="20.14" height="2.41"/><rect class="cls-3" x="155.76" y="38.29" width="20.14" height="2.41"/><rect class="cls-14" x="141.17" y="38.46" width="11.02" height="2.41"/><rect class="cls-3" x="115.38" y="44.08" width="36" height="2.41"/><rect class="cls-13" x="168.01" y="43.91" width="15.04" height="2.41"/><rect class="cls-12" x="115.42" y="49.7" width="12.97" height="2.41"/><rect class="cls-14" x="131.55" y="49.7" width="27.19" height="2.41"/><rect class="cls-13" x="148.03" y="55.32" width="12.97" height="2.41"/><rect class="cls-13" x="115.21" y="66.57" width="14.22" height="2.41"/><rect class="cls-3" x="115.55" y="72.19" width="18.5" height="2.41"/><rect class="cls-12" x="115.39" y="77.81" width="18" height="2.41"/><rect class="cls-14" x="138.84" y="72.19" width="29.69" height="2.41"/><rect class="cls-14" x="115.85" y="83.43" width="9.17" height="2.41"/><rect class="cls-3" x="137.16" y="77.81" width="42.04" height="2.41"/><rect class="cls-12" x="166.68" y="55.15" width="10.78" height="2.41"/><rect class="cls-12" x="132.06" y="66.57" width="43.36" height="2.41"/><rect class="cls-12" x="162.58" y="49.53" width="28.21" height="2.41"/><rect class="cls-12" x="115.36" y="55.32" width="28.21" height="2.41"/><rect class="cls-14" x="115.36" y="60.95" width="28.21" height="2.41"/><rect class="cls-3" x="149.63" y="60.95" width="25.09" height="2.41"/><rect class="cls-12" x="155.23" y="44.08" width="9.21" height="2.41"/><rect class="cls-12" x="131.31" y="32.83" width="6.02" height="2.41"/><rect class="cls-12" x="105.63" y="32.27" width="2.41" height="76.12"/><rect class="cls-12" x="96.9" y="33.34" width="3.21" height="3.21"/><rect class="cls-12" x="96.9" y="39.77" width="3.21" height="3.21"/><rect class="cls-12" x="96.9" y="46.2" width="3.21" height="3.21"/><rect class="cls-12" x="96.9" y="52.62" width="3.21" height="3.21"/><rect class="cls-12" x="96.9" y="59.05" width="3.21" height="3.21"/><rect class="cls-12" x="96.9" y="65.47" width="3.21" height="3.21"/><rect class="cls-12" x="96.9" y="71.9" width="3.21" height="3.21"/><rect class="cls-12" x="96.9" y="78.32" width="3.21" height="3.21"/><rect class="cls-12" x="96.9" y="84.75" width="3.21" height="3.21"/><rect class="cls-12" x="96.9" y="91.17" width="3.21" height="3.21"/><rect class="cls-12" x="96.9" y="97.6" width="3.21" height="3.21"/><rect class="cls-12" x="96.9" y="104.03" width="3.21" height="3.21"/><g class="cls-15"><rect x="15.25" y="134.08" width="93.31" height="135.67"/></g><rect class="cls-10" x="12.25" y="131.08" width="93.31" height="135.67"/><rect class="cls-13" x="12.25" y="131.08" width="93.59" height="11.16"/><rect class="cls-8" x="12.36" y="179.74" width="92.91" height="35.08"/><rect class="cls-8" x="18.81" y="149.4" width="80.18" height="10.49"/><rect class="cls-5" x="27.71" y="153.8" width="8.91" height="1.69"/><rect class="cls-5" x="45.53" y="153.8" width="8.91" height="1.69"/><rect class="cls-5" x="63.36" y="153.8" width="8.91" height="1.69"/><rect class="cls-5" x="81.18" y="153.8" width="8.92" height="1.69"/><rect class="cls-3" x="30.28" y="164.47" width="57.24" height="2.55"/><rect class="cls-3" x="38.3" y="171.6" width="41.22" height="1.53"/><polygon class="cls-5" points="42.4 206.43 75.22 206.43 64.92 189.4 57.34 199.28 54.62 195.27 42.4 206.43"/><circle class="cls-5" cx="57.82" cy="190.56" r="2.45"/><rect class="cls-13" x="23.98" y="222.83" width="19.46" height="19.46"/><rect class="cls-13" x="49.17" y="222.83" width="19.46" height="19.46"/><rect class="cls-13" x="74.36" y="222.83" width="19.46" height="19.46"/><rect class="cls-3" x="24" y="244.58" width="19.44" height="1.14"/><rect class="cls-3" x="24.03" y="246.87" width="19.44" height="1.14"/><rect class="cls-3" x="24" y="249.16" width="11.01" height="1.14"/><rect class="cls-3" x="49.19" y="244.58" width="19.44" height="1.14"/><rect class="cls-3" x="49.21" y="246.87" width="19.44" height="1.14"/><rect class="cls-3" x="49.19" y="249.16" width="11.01" height="1.14"/><rect class="cls-3" x="74.38" y="244.58" width="19.44" height="1.14"/><rect class="cls-3" x="74.4" y="246.87" width="19.44" height="1.14"/><rect class="cls-3" x="74.38" y="249.16" width="11.01" height="1.14"/><polyline class="cls-16" points="33.5 230.58 33.5 232.08 32 232.08"/><line class="cls-17" x1="29.27" y1="232.08" x2="19.73" y2="232.08"/><line class="cls-18" x1="18.36" y1="232.08" x2="3.36" y2="232.08"/><polyline class="cls-16" points="2 232.08 0.5 232.08 0.5 230.58"/><line class="cls-17" x1="0.5" y1="227.85" x2="0.5" y2="218.31"/><line class="cls-18" x1="0.5" y1="216.94" x2="0.5" y2="201.94"/><polyline class="cls-16" points="0.5 200.58 0.5 199.08 2 199.08"/><line class="cls-17" x1="4.73" y1="199.08" x2="14.27" y2="199.08"/><line class="cls-18" x1="15.64" y1="199.08" x2="30.64" y2="199.08"/><polyline class="cls-16" points="32 199.08 33.5 199.08 33.5 200.58"/><line class="cls-17" x1="33.5" y1="203.31" x2="33.5" y2="212.85"/><line class="cls-18" x1="33.5" y1="214.22" x2="33.5" y2="229.22"/><rect class="cls-3" x="114.3" y="143.83" width="24.92" height="1.47"/><rect class="cls-3" x="114.33" y="146.76" width="24.92" height="1.47"/><rect class="cls-3" x="114.3" y="149.7" width="14.1" height="1.47"/><polygon class="cls-11" points="133.03 222.56 122.67 217.21 112.31 211.87 115.5 223.08 118.69 234.29 121.74 225.53 125.5 230.15 127.48 228.55 123.73 223.94 133.03 222.56"/></g></g></svg>