<svg xmlns="http://www.w3.org/2000/svg" xmlns:xlink="http://www.w3.org/1999/xlink" viewBox="0 0 178 84" id="rJ7XI3V3z" height="84" width="178">
    <style>
        
        @-webkit-keyframes SyVxmXU3VhM_SkWV8nNnf_Animation{0%{-webkit-transform: translate(200px, 0px);transform: translate(200px, 0px);}19.11%{-webkit-transform: translate(150px, 0px);transform: translate(150px, 0px);}26%{-webkit-transform: translate(-10px, 0px);transform: translate(-10px, 0px);}33.11%{-webkit-transform: translate(0px, 0px);transform: translate(0px, 0px);}100%{-webkit-transform: translate(0px, 0px);transform: translate(0px, 0px);}}
        
        @keyframes SyVxmXU3VhM_SkWV8nNnf_Animation{0%{-webkit-transform: translate(200px, 0px);transform: translate(200px, 0px);}19.11%{-webkit-transform: translate(150px, 0px);transform: translate(150px, 0px);}26%{-webkit-transform: translate(-10px, 0px);transform: translate(-10px, 0px);}33.11%{-webkit-transform: translate(0px, 0px);transform: translate(0px, 0px);}100%{-webkit-transform: translate(0px, 0px);transform: translate(0px, 0px);}}
        
        @-webkit-keyframes rk3Xm8h43f_rJq-v34hz_Animation{0%{-webkit-transform: translate(0px, 200px);transform: translate(0px, 200px);}15.11%{-webkit-transform: translate(0px, 0px);transform: translate(0px, 0px);}100%{-webkit-transform: translate(0px, 0px);transform: translate(0px, 0px);}}
        
        @keyframes rk3Xm8h43f_rJq-v34hz_Animation{0%{-webkit-transform: translate(0px, 200px);transform: translate(0px, 200px);}15.11%{-webkit-transform: translate(0px, 0px);transform: translate(0px, 0px);}100%{-webkit-transform: translate(0px, 0px);transform: translate(0px, 0px);}}

        @-webkit-keyframes B1t7QUh43G_Sy8Uv2V3M_Animation{0%{-webkit-transform: translate(0px, 200px);transform: translate(0px, 200px);}13.33%{-webkit-transform: translate(0px, 0px);transform: translate(0px, 0px);}100%{-webkit-transform: translate(0px, 0px);transform: translate(0px, 0px);}}

        @keyframes B1t7QUh43G_Sy8Uv2V3M_Animation{0%{-webkit-transform: translate(0px, 200px);transform: translate(0px, 200px);}13.33%{-webkit-transform: translate(0px, 0px);transform: translate(0px, 0px);}100%{-webkit-transform: translate(0px, 0px);transform: translate(0px, 0px);}}

        @-webkit-keyframes HygXQU2NhG_Animation{0%{opacity: 0;}11.33%{opacity: 1;}100%{opacity: 1;}}

        @keyframes HygXQU2NhG_Animation{0%{opacity: 0;}11.33%{opacity: 1;}100%{opacity: 1;}}

        #rJ7XI3V3z *{
            -webkit-animation-duration: 15s;
            animation-duration: 15s;
            animation-fill-mode:both;
            cubic-bezier(0, 0, 1, 1);
            animation-timing-function: cubic-bezier(0, 0, 1, 1);
        }

        #BJbmmLn4nz{fill: #00baee;}
        #r1MQ7InN2G{fill: #00baee;}
        #SkXQ7L2V2G{fill: #1d1d1b;
            -webkit-transform:  translate(-16.2px, -8.46px);
            transform:  translate(-16.2px, -8.46px);}
        #ry477L3Vhf{fill: #00baee;}
        #S1r77I2N3M{fill: #1d1d1b;-webkit-transform:  translate(-16.2px, -8.46px);transform:  translate(-16.2px, -8.46px);}
        #SJUQQLnNnf{fill: #1d1d1b;-webkit-transform:  translate(-16.2px, -8.46px);transform:  translate(-16.2px, -8.46px);}
        #SkvmmI24hM{fill: #1d1d1b;-webkit-transform:  translate(-16.2px, -8.46px);transform:  translate(-16.2px, -8.46px);}
        #S1umXL2N3M{fill: #1d1d1b;-webkit-transform:  translate(-16.2px, -8.46px);transform:  translate(-16.2px, -8.46px);}
        #r1qmQ8nEnG{fill: #00baee;}
        #r1oX7834nM{-webkit-transform:  translate(-16.2px, -8.46px);transform:  translate(-16.2px, -8.46px);}
        #Bk6mQLh4hf{fill: #00baee;}
        #H1C778243z{fill: #00baee;}
        #rJkeXXUhE3M{-webkit-transform:  translate(-16.2px, -8.46px);transform:  translate(-16.2px, -8.46px);}
        #Hyeg7XU2NhM{-webkit-clip-path: url(#clip-path);clip-path: url(#clip-path);}
        #B1blQmUnE3z{-webkit-transform:  translate(-16.2px, -8.46px);transform:  translate(-16.2px, -8.46px);}
        #S1MgQ7L24hf{-webkit-transform:  translate(-16.2px, -8.46px);transform:  translate(-16.2px, -8.46px);}
        #SymlXXUhV2M{-webkit-transform:  translate(-16.2px, -8.46px);transform:  translate(-16.2px, -8.46px);}
        #BkBxmmUn4hf{fill: #1d1d1b;-webkit-transform:  translate(-16.2px, -8.46px);transform:  translate(-16.2px, -8.46px);}
        #Bk8xmQI3V2f{fill: #1d1d1b;-webkit-transform:  translate(-16.2px, -8.46px);transform:  translate(-16.2px, -8.46px);}
        #BJDeX7L3V2z{fill: #1d1d1b;-webkit-transform:  translate(-16.2px, -8.46px);transform:  translate(-16.2px, -8.46px);}
        #SJOxXXL3NnM{fill: #1d1d1b;-webkit-transform:  translate(-16.2px, -8.46px);transform:  translate(-16.2px, -8.46px);}
        #r1Ke7mI3E2f{fill: #1d1d1b;-webkit-transform:  translate(-16.2px, -8.46px);transform:  translate(-16.2px, -8.46px);}
        #B19xXX82Enf{fill: #1d1d1b;-webkit-transform:  translate(-16.2px, -8.46px);transform:  translate(-16.2px, -8.46px);}
        #SJslmQL343G{fill: #1d1d1b;-webkit-transform:  translate(-16.2px, -8.46px);transform:  translate(-16.2px, -8.46px);}
        #HynxQXLhN3G{fill: #1d1d1b;-webkit-transform:  translate(-16.2px, -8.46px);transform:  translate(-16.2px, -8.46px);}
        #S1pxXXU2Enz{fill: #1d1d1b;-webkit-transform:  translate(-16.2px, -8.46px);transform:  translate(-16.2px, -8.46px);}
        #r1Rg7X8hE2z{fill: #1d1d1b;-webkit-transform:  translate(-16.2px, -8.46px);transform:  translate(-16.2px, -8.46px);}
        #rk1W7mL243f{fill: #1d1d1b;-webkit-transform:  translate(-16.2px, -8.46px);transform:  translate(-16.2px, -8.46px);}
        #rJeZm78hNhG{fill: #1d1d1b;-webkit-transform:  translate(-16.2px, -8.46px);transform:  translate(-16.2px, -8.46px);}
        #SJZZQmL2V2M{fill: #1d1d1b;-webkit-transform:  translate(-16.2px, -8.46px);transform:  translate(-16.2px, -8.46px);}
        #S1MZQmI34hf{fill: #1d1d1b;-webkit-transform:  translate(-16.2px, -8.46px);transform:  translate(-16.2px, -8.46px);}
        #Sk7Zm7UhNhM{fill: #1d1d1b;-webkit-transform:  translate(-16.2px, -8.46px);transform:  translate(-16.2px, -8.46px);}
        #H1NbQmLhN2z{fill: #1d1d1b;-webkit-transform:  translate(-16.2px, -8.46px);transform:  translate(-16.2px, -8.46px);}
        #rkH-77U2V2f{fill: #1d1d1b;-webkit-transform:  translate(-16.2px, -8.46px);transform:  translate(-16.2px, -8.46px);}
        #S1LZm7UnVnf{fill: #1d1d1b;-webkit-transform:  translate(-16.2px, -8.46px);transform:  translate(-16.2px, -8.46px);}
        #SyPbmmUhNnz{fill: #1d1d1b;-webkit-transform:  translate(-16.2px, -8.46px);transform:  translate(-16.2px, -8.46px);}
        #SkOZXQ83V2z{fill: #1d1d1b;-webkit-transform:  translate(-16.2px, -8.46px);transform:  translate(-16.2px, -8.46px);}
        #HJKbX7L3E2z{fill: #1d1d1b;-webkit-transform:  translate(-16.2px, -8.46px);transform:  translate(-16.2px, -8.46px);}
        #HygXQU2NhG{-webkit-animation-name: HygXQU2NhG_Animation;animation-name: HygXQU2NhG_Animation;-webkit-transform-origin: 50% 50%;transform-origin: 50% 50%;transform-box: fill-box;opacity: 0;}
        #B1t7QUh43G_Sy8Uv2V3M{
            -webkit-animation-name: B1t7QUh43G_Sy8Uv2V3M_Animation;
            animation-name: B1t7QUh43G_Sy8Uv2V3M_Animation;
            -webkit-transform-origin: 50% 50%;
            transform-origin: 50% 50%;
            transform-box: fill-box;
            -webkit-transform: translate(0px, 200px);
            transform: translate(0px, 200px);
        }
        #rk3Xm8h43f_rJq-v34hz{-webkit-animation-name: rk3Xm8h43f_rJq-v34hz_Animation;animation-name: rk3Xm8h43f_rJq-v34hz_Animation;-webkit-transform-origin: 50% 50%;transform-origin: 50% 50%;transform-box: fill-box;-webkit-transform: translate(0px, 200px);transform: translate(0px, 200px);}
        #SyVxmXU3VhM_SkWV8nNnf{-webkit-animation-name: SyVxmXU3VhM_SkWV8nNnf_Animation;animation-name: SyVxmXU3VhM_SkWV8nNnf_Animation;-webkit-transform-origin: 50% 50%;transform-origin: 50% 50%;transform-box: fill-box;-webkit-transform: translate(200px, 0px);transform: translate(200px, 0px);}
    </style>
    <defs>
        <clipPath id="clip-path" transform="translate(-16.2 -8.46)">
            <rect class="cls-1" x="95.23" y="25.13" width="26.86" height="26.87" transform="translate(-5.27 56.3) rotate(-28.39)"/>
        </clipPath>
    </defs>
    <title>
        logo_ezohiko
    </title>
    <g id="HygXQU2NhG">
        <rect x="2.49" y="6.57" width="3.29" height="20.22" id="BJbmmLn4nz"/>
        <rect x="2.29" y="36.32" width="12.1" height="3.34" id="r1MQ7InN2G"/>
        <path d="M20,34.27h5.19v3.09H20V46.6H30.6v3.1H17V14.34H30.6v3.09H20Z" id="SkXQ7L2V2G"/>
        <rect x="109.72" y="5.97" width="2.72" height="35.32" id="ry477L3Vhf"/>
        <path d="M140.53,25.31a13.89,13.89,0,0,1-8.73,12.88c0,3.78.36,8.47,4.36,8.47v3.09c-6.59,0-7.41-6-7.46-10.74a14.94,14.94,0,0,1-2,.14v10.6h-3.09V14.44h3.09V36.05a10.75,10.75,0,0,0,10.74-10.74V14.44h3.09Z" id="S1r77I2N3M"/>
        <path d="M53.73,43a1.22,1.22,0,0,1,1.12-.15,1.67,1.67,0,0,1,.79.67,1.63,1.63,0,0,1,.21,1,1.21,1.21,0,0,1-.67.94L51.06,48c-1.38.85-2.75,1.72-4.13,2.61-1,2.59-2.1,5.14-3.27,7.67s-2.39,5-3.64,7.43l-2.49,4.71q-1.28,2.39-2.76,4.73a40.63,40.63,0,0,1-3.25,4.4,24.25,24.25,0,0,1-3.88,3.64,7.79,7.79,0,0,1-3.46,1.51A6.07,6.07,0,0,1,21,84.33a6.78,6.78,0,0,1-2.64-2,9.62,9.62,0,0,1-1.76-3.4,8.37,8.37,0,0,1,.24-5.79,19.9,19.9,0,0,1,3.31-5.46,36.14,36.14,0,0,1,4.76-4.74c1.74-1.43,3.25-2.66,4.55-3.67q3.65-2.91,7.43-5.49t7.68-5.06c.44-1.13.84-2.26,1.21-3.37s.71-2.25,1-3.43c-.81.29-1.63.6-2.46.94s-1.65.68-2.45,1c-1,.45-2,.88-2.95,1.31l-3,1.3c-.48.21-1,.39-1.42.55A2.14,2.14,0,0,1,33,47a1,1,0,0,1-.52-.52,1.06,1.06,0,0,1-.15-.7,3.8,3.8,0,0,1,.52-1.6A13,13,0,0,1,34,42.5,19.42,19.42,0,0,1,35.22,41a12.15,12.15,0,0,0,1.09-1.33c.73-1,1.54-2,2.43-3.16A18.86,18.86,0,0,0,40.93,33c-1.06.21-2.09.45-3.1.73-1.54.45-3,.92-4.55,1.43s-3,1-4.49,1.61a1.2,1.2,0,0,1-1.12-.06,1.37,1.37,0,0,1-.58-.82,2,2,0,0,1,.06-1.07A1.31,1.31,0,0,1,28,34q2.73-1,5.46-2A47.91,47.91,0,0,1,39,30.52l1.1-.28A12.35,12.35,0,0,1,41.38,30a5,5,0,0,1,1.21,0,2.4,2.4,0,0,1,1.07.37A1.48,1.48,0,0,1,44.32,32a12.28,12.28,0,0,1-2,4.25L39.53,40l-1,1.34-1,1.33c.32-.16.64-.3.94-.42s.62-.27.94-.43l3.43-1.48a32.74,32.74,0,0,1,3.49-1.31q2.18-.66,3,.3a3.09,3.09,0,0,1,.27,2.92c-.2.68-.4,1.35-.61,2s-.4,1.31-.6,2l2.64-1.67C52,44.08,52.84,43.52,53.73,43ZM40.2,58.79c.44-.93.87-1.85,1.27-2.76s.81-1.83,1.21-2.76q-1.93,1.27-3.88,2.61c-1.29.88-2.59,1.8-3.88,2.73-1.86,1.37-3.69,2.78-5.49,4.21a46.89,46.89,0,0,0-5.07,4.7l-1.69,1.85A19.46,19.46,0,0,0,21,71.47a15.94,15.94,0,0,0-1.31,2.24,6.28,6.28,0,0,0-.6,2.37,5.63,5.63,0,0,0,.18,1.76,8.91,8.91,0,0,0,.7,1.88,5.68,5.68,0,0,0,1.15,1.58,3.17,3.17,0,0,0,1.55.84A3,3,0,0,0,24.24,82a7.34,7.34,0,0,0,1.52-.79,7.45,7.45,0,0,0,1.33-1.12c.41-.42.77-.8,1.1-1.12A47,47,0,0,0,35,69.34Q37.77,64.06,40.2,58.79Z" id="SJUQQLnNnf"/>
        <path d="M119.15,34.6c-6.52,0-13.09.08-19.7.23l-3.5.09L92.44,35c.16,3.82.32,7.62.48,11.38s.29,7.53.39,11.33a.94.94,0,0,1-.33.77,1.08,1.08,0,0,1-.72.27,1.19,1.19,0,0,1-.74-.27.93.93,0,0,1-.35-.77c-.09-3.8-.22-7.56-.39-11.31s-.32-7.51-.47-11.31q-1.87.09-3.69.12c-1.21,0-2.44.05-3.69.11q1,6.78,1.76,13.54t1.38,13.62a.8.8,0,0,1-.25.75,1,1,0,0,1-.7.26,1.24,1.24,0,0,1-.75-.26,1,1,0,0,1-.39-.75q-.63-6.83-1.43-13.58T80.8,35.38c-5.12,0-7.33.07-7.33.09s2.16,0,2.16,0a14.24,14.24,0,0,1-1.37-.64.94.94,0,0,1-.21-.42c0-.13-.25-.62-.06-.85s4.14-.25,6.53-.31q-.85-5.91-1.82-11.74t-2-11.69A1,1,0,0,1,76.88,9a1.38,1.38,0,0,1,.66-.45,1.07,1.07,0,0,1,.75,0,.82.82,0,0,1,.46.66q1.05,6,2,12c.66,4,1.28,8,1.89,12l3.78-.09c1.24,0,2.5-.07,3.78-.14q-.51-9.87-.82-19.79a.94.94,0,0,1,.31-.79,1.15,1.15,0,0,1,.73-.25,1.19,1.19,0,0,1,.75.25.9.9,0,0,1,.34.79q.19,5,.37,9.85c.12,3.26.26,6.55.41,9.85l4-.09,4-.09c6.49-.09,12.92-.12,19.29-.18,3.11,0,6-.25,7.06,0,.35.1,0,1.16.12,1.28C127.36,34.4,124.71,34.56,119.15,34.6Z" id="SkvmmI24hM"/>
        <path d="M157.19,25.85a5.87,5.87,0,0,0-.88-1.77,4,4,0,0,0-.77-.77,3.89,3.89,0,0,0-.95-.7,4.07,4.07,0,0,0-2-.41,5.92,5.92,0,0,0-2.38.64A11.8,11.8,0,0,0,148,24.25a18.69,18.69,0,0,0-2,1.8c-.62.65-1.17,1.25-1.66,1.79A34.52,34.52,0,0,0,140.52,33q-1.67,2.76-3.06,5.7a47.8,47.8,0,0,0-1.93,4.66,15.38,15.38,0,0,0-.72,2.94,15.37,15.37,0,0,0-.3,2.79.66.66,0,0,0,.23.53.81.81,0,0,0,.5.18.78.78,0,0,0,.49-.18.63.63,0,0,0,.23-.53l0-.46c0-.09.09-1,.12-1.3a14.14,14.14,0,0,1,.57-2.42c.45-1.38,1-2.7,1.51-4q1.08-2.44,2.39-4.75a46.76,46.76,0,0,1,2.87-4.5,36.38,36.38,0,0,1,3.22-3.84,19.37,19.37,0,0,1,3.9-3.12,8,8,0,0,1,1.8-.78,2.71,2.71,0,0,1,1.88.13,2.45,2.45,0,0,1,.64.42,3.74,3.74,0,0,1,.51.92,5.84,5.84,0,0,1,.29,1.09,6.94,6.94,0,0,1,.09,1.08,61.07,61.07,0,0,1-.61,7,41,41,0,0,1-1.62,7A32.32,32.32,0,0,1,150.64,48a21.55,21.55,0,0,1-4.48,5.35,9.49,9.49,0,0,1-.95.5,3.5,3.5,0,0,1-1,.28,2,2,0,0,1-.93-.14,1.84,1.84,0,0,1-.82-.7,4.78,4.78,0,0,1-.8-1.94,17.9,17.9,0,0,1-.26-2.08,20.48,20.48,0,0,1,.11-2.59,33.54,33.54,0,0,1,.54-3.41c.23-1.13.51-2.25.83-3.36s.65-2.18,1-3.23a1.34,1.34,0,0,0,0-.59c0-.37,0-.32-.15-.48a.71.71,0,0,0-.41-.29.81.81,0,0,0-.53,0,.6.6,0,0,0-.37.44c-.36,1.19-.72,2.41-1.08,3.65s-.64,2.51-.87,3.78a33.19,33.19,0,0,0-.48,3.85c0,.22,0,.44,0,.66,0,0,0,.06,0,.09a19.48,19.48,0,0,0,.15,3.9c.07.37.14.76.24,1.16a5.66,5.66,0,0,0,.4,1.18,6.34,6.34,0,0,0,.62,1.07,3.53,3.53,0,0,0,.85.83,3,3,0,0,0,1.2.5,3.44,3.44,0,0,0,1.24,0,5.67,5.67,0,0,0,1.21-.38,10.42,10.42,0,0,0,1.14-.61l.07,0,.06,0,0,0A22.9,22.9,0,0,0,152,49.65a35.57,35.57,0,0,0,3.12-6.81,41.75,41.75,0,0,0,1.76-7.38,59.74,59.74,0,0,0,.65-7.38v-.19A7.39,7.39,0,0,0,157.19,25.85Z" id="S1umXL2N3M"/>
    </g>
    <g id="B1t7QUh43G_Sy8Uv2V3M" data-animator-group="true" data-animator-type="0">
        <g id="B1t7QUh43G">
            <ellipse cx="47.42" cy="27.05" rx="6.85" ry="6.64" id="r1qmQ8nEnG"/>
            <path d="M69.25,31.82,71.11,30l2-2,1.7-1.7,1.19.22,3-3-2.76-.5-.5-2.76-3,3L73,24.36l-1.7,1.7a12.78,12.78,0,1,0,3,3.55L72.2,31.72a9.91,9.91,0,1,1-2.93-3.61L67.4,30a7.3,7.3,0,1,0,2.78,3.76l-2.53,2.53a4.42,4.42,0,1,1-7.54-3.43,4.45,4.45,0,0,1,5.2-.78l-2,2a1.91,1.91,0,1,0,1.3,3.25,1.89,1.89,0,0,0,.55-1.4l2-2Zm0,0" id="r1oX7834nM"/>
        </g>
    </g>
    <g id="rk3Xm8h43f_rJq-v34hz" data-animator-group="true" data-animator-type="0">
        <g id="rk3Xm8h43f">
            <rect x="89.28" y="23.32" width="8.54" height="5.59" id="Bk6mQLh4hf"/>
            <circle cx="99.83" cy="6.12" r="2.01" id="H1C778243z"/>
            <path d="M99.88,45.07c.4-3.57.55-5.82.66-7.48-2.84,1.87-3.69,7.12-3.69,7.12l3,.9a2.44,2.44,0,0,1,0-.54Zm0,0" id="rJkeXXUhE3M"/>
            <g id="Hyeg7XU2NhM">
                <path d="M112.05,49.24l3,.91s2.16-4.86.82-8c-.82,1.44-1.92,3.41-3.55,6.62a2,2,0,0,1-.29.45Zm0,0" id="B1blQmUnE3z"/>
                <path d="M108.51,49.84c-.26.32-.52.64-.8.95A17.84,17.84,0,0,1,105.22,53c-.37.27-.75.54-1.14.79a1,1,0,0,1-.07-.15,19.93,19.93,0,0,1-1.1-3.18,14.22,14.22,0,0,1-.31-1.58,8.47,8.47,0,0,1-.1-1l-.33-.1a6.41,6.41,0,0,0-.61,1.87,8.94,8.94,0,0,0,0,2.92,11,11,0,0,0,1,3,2.36,2.36,0,0,0,.22.38,1,1,0,0,0,.46.34.94.94,0,0,0,.55.05,1.61,1.61,0,0,0,.43-.17,10.49,10.49,0,0,0,2.29-1.74A7.9,7.9,0,0,0,109,49.77l-.33-.09-.12.16Zm0,0" id="S1MgQ7L24hf"/>
            </g>
            <path d="M113.92,20.76h0a.92.92,0,0,0-.71.07h0c-2.6,1.47-8.81,5.46-10.39,10.75a21.58,21.58,0,0,0-.93,5.88c-.11,1.71-.26,4.06-.7,8a.93.93,0,0,0,.65,1l8.1,2.41a1,1,0,0,0,.71-.07,1,1,0,0,0,.38-.4c1.8-3.56,3-5.61,3.82-7.1a21.3,21.3,0,0,0,2.43-5.42c1.58-5.31-1.43-12-2.79-14.69a1,1,0,0,0-.56-.46ZM113.19,34a3.08,3.08,0,1,1-2.07-3.83A3.07,3.07,0,0,1,113.19,34Zm0,0" id="SymlXXUhV2M"/>
        </g>
    </g>
    <g id="SyVxmXU3VhM_SkWV8nNnf" data-animator-group="true" data-animator-type="0">
        <g id="SyVxmXU3VhM" data-name="basse line">
            <path d="M71.51,62.77a.37.37,0,0,1,0,.28A4.46,4.46,0,0,1,71.28,65a5.55,5.55,0,0,1-.91,1.67A8.24,8.24,0,0,1,69,68.07a14.46,14.46,0,0,1-1.72,1.17c-.6.35-1.21.67-1.84,1s-1.21.54-1.76.77c-1,.43-2.08.82-3.13,1.17s-2.11.67-3.19,1c-.76.19-1.51.37-2.27.54s-1.51.33-2.29.48a59.49,59.49,0,0,1-.33,6.81q-.35,3.39-.73,6.79a.43.43,0,0,1-.18.34.52.52,0,0,1-.33.12.48.48,0,0,1-.31-.12.36.36,0,0,1-.1-.34q.39-3.36.72-6.71a60.41,60.41,0,0,0,.32-6.73c-.77.09-1.54.17-2.32.24a.44.44,0,0,1-.34-.14.47.47,0,0,1-.12-.32.52.52,0,0,1,.12-.33.42.42,0,0,1,.34-.15,21.85,21.85,0,0,0,2.3-.24,30.89,30.89,0,0,0-1.36-8l-.61.49-.57.51c-.37.35-.77.74-1.19,1.19A8.8,8.8,0,0,0,47,69a5.47,5.47,0,0,0-.64,1.6,2.77,2.77,0,0,0,.16,1.65.42.42,0,0,1,0,.38.56.56,0,0,1-.23.27.47.47,0,0,1-.33.06.34.34,0,0,1-.26-.25,3.68,3.68,0,0,1-.29-1.8,5.38,5.38,0,0,1,.48-1.74,8.21,8.21,0,0,1,1-1.59,15.07,15.07,0,0,1,1.23-1.37c.32-.32.65-.63,1-.92s.69-.58,1-.86l-.27-.75a6.52,6.52,0,0,0-.29-.73.36.36,0,0,1,0-.35.47.47,0,0,1,.27-.19.6.6,0,0,1,.35,0,.48.48,0,0,1,.28.26c.08.19.16.38.23.58s.15.39.21.58a26.24,26.24,0,0,1,2.38-1.5c.82-.45,1.64-.87,2.48-1.26s1.55-.67,2.33-1a20.46,20.46,0,0,1,2.37-.77,15.59,15.59,0,0,1,2.44-.43,12.7,12.7,0,0,1,2.54,0c.58.07,1.16.16,1.74.28a8.14,8.14,0,0,1,1.67.53,5.58,5.58,0,0,1,1.42.89,3.71,3.71,0,0,1,1,1.36.34.34,0,0,1,.08.16.2.2,0,0,0,0,0s0,0,0,0a1.83,1.83,0,0,1,.08.25A2,2,0,0,1,71.51,62.77Zm-8.86,7.6c.52-.2,1.1-.44,1.74-.71s1.28-.58,1.91-.92a14.55,14.55,0,0,0,1.81-1.14,7.29,7.29,0,0,0,1.47-1.4,4.65,4.65,0,0,0,.87-1.68,3.85,3.85,0,0,0,0-2,3.1,3.1,0,0,0-1.06-1.44,5.66,5.66,0,0,0-1.62-.84,8.89,8.89,0,0,0-1.87-.4,16.81,16.81,0,0,0-1.83-.1,13.57,13.57,0,0,0-2.12.17,15,15,0,0,0-2.06.48q-1,.31-2,.72T56,62c-.81.39-1.61.81-2.41,1.26s-1.57.95-2.33,1.48a30.42,30.42,0,0,1,1.52,8.42c.7-.12,1.38-.26,2.05-.42l2-.5c1-.27,2-.55,2.95-.86S61.69,70.74,62.65,70.37Z" id="BkBxmmUn4hf"/>
            <path d="M67.57,75a.38.38,0,0,1,.22.3.53.53,0,0,1-.31.56.39.39,0,0,1-.37,0c-.21-.12-.44-.27-.7-.45s-.52-.35-.8-.52a5.32,5.32,0,0,0-.83-.41,1.86,1.86,0,0,0-.79-.14.67.67,0,0,0-.49.27,1.15,1.15,0,0,0-.18.53,3.31,3.31,0,0,0,0,.63c0,.22,0,.4,0,.55a15.63,15.63,0,0,0,.36,2.19c.18.71.36,1.43.56,2.15a.39.39,0,0,1-.18.49.53.53,0,0,1-.5,0,.48.48,0,0,1-.24-.14,9,9,0,0,1-1.71-2.27,8.27,8.27,0,0,1-.89-2.69.5.5,0,0,1,.09-.38.57.57,0,0,1,.3-.2.44.44,0,0,1,.32,0,.35.35,0,0,1,.19.29A7.47,7.47,0,0,0,62.87,79l-.18-.8c0-.27-.1-.53-.14-.8s-.12-.82-.18-1.27a3.81,3.81,0,0,1,.06-1.27,2,2,0,0,1,.5-1,1.35,1.35,0,0,1,.79-.37,2.46,2.46,0,0,1,1,.12,6.81,6.81,0,0,1,1,.43q.52.26,1,.54Z" id="Bk8xmQI3V2f"/>
            <path d="M70.55,74.09a2.58,2.58,0,0,1,1.72.39A2,2,0,0,1,73,75.66a3.51,3.51,0,0,1,0,1.61A5.63,5.63,0,0,1,72.37,79a5.76,5.76,0,0,1-1.12,1.42,3.25,3.25,0,0,1-1.42.81A1.41,1.41,0,0,1,68.51,81a2,2,0,0,1-.61-1.11,5,5,0,0,1,0-1.64,8.34,8.34,0,0,1,.47-1.78A6.37,6.37,0,0,1,69.2,75a2.37,2.37,0,0,1,1.13-.86Zm-.82,6.14a2.81,2.81,0,0,0,.91-.65,5.45,5.45,0,0,0,.84-1.06,5.31,5.31,0,0,0,.58-1.23,2.73,2.73,0,0,0,.15-1.16,1.19,1.19,0,0,0-.45-.83A1.79,1.79,0,0,0,70.53,75a1.63,1.63,0,0,0-.69.49,3.85,3.85,0,0,0-.5.78,5.63,5.63,0,0,0-.34.89c-.08.31-.15.58-.19.82s0,.39-.08.69a4.05,4.05,0,0,0,0,.86,1.26,1.26,0,0,0,.28.64Q69.25,80.42,69.73,80.23Z" id="BJDeX7L3V2z"/>
            <path d="M75.85,84.41l.9,3.5a32.85,32.85,0,0,0,1.12,3.44.35.35,0,0,1,0,.36.44.44,0,0,1-.27.18.6.6,0,0,1-.35,0,.43.43,0,0,1-.26-.28A32.87,32.87,0,0,1,75.79,88c-.32-1.24-.63-2.48-.94-3.72-.12-.47-.23-.94-.35-1.42l-.33-1.46c-.21.15-.41.28-.61.4l-.57.34a.39.39,0,0,1-.37,0,.56.56,0,0,1-.26-.22.49.49,0,0,1-.06-.34.44.44,0,0,1,.21-.31l.74-.45.72-.47c-.13-.8-.22-1.6-.27-2.39a12.87,12.87,0,0,1,.09-2.33.4.4,0,0,1,.2-.3.47.47,0,0,1,.33,0,.53.53,0,0,1,.29.2.43.43,0,0,1,.08.37l0,.28a1.33,1.33,0,0,1,0,.28,16,16,0,0,1,1-1.27,4.65,4.65,0,0,1,1.11-1A1.54,1.54,0,0,1,77.83,74c.36.07.68.37,1,.92a.33.33,0,0,1,.1.24,3.58,3.58,0,0,1-.17,1.73,5,5,0,0,1-.85,1.51,8.59,8.59,0,0,1-1.31,1.32q-.75.61-1.53,1.14a.28.28,0,0,1,0,.13l0,.13c.11.56.23,1.12.35,1.67S75.71,83.85,75.85,84.41Zm-1.2-6.2q0,.41.09.78c0,.25.07.51.11.76a13.46,13.46,0,0,0,1.4-1.12q.33-.3.66-.66a4.5,4.5,0,0,0,.6-.78,3.32,3.32,0,0,0,.4-.88,2.14,2.14,0,0,0,.08-.94,1.19,1.19,0,0,0-.28-.42.37.37,0,0,0-.48,0,3.14,3.14,0,0,0-.52.38c-.16.15-.31.3-.46.46A10,10,0,0,0,75.38,77C75.12,77.36,74.88,77.78,74.65,78.21Z" id="SJOxXXL3NnM"/>
            <path d="M85,78a.45.45,0,0,1,.12.37.44.44,0,0,1-.15.31.5.5,0,0,1-.31.14.36.36,0,0,1-.32-.16A3.92,3.92,0,0,1,84,78.3L83.83,78a8.09,8.09,0,0,1-.61,2.14,3.39,3.39,0,0,1-.48.82,2.81,2.81,0,0,1-.66.63,1.53,1.53,0,0,1-.85.27,1.81,1.81,0,0,1-.85-.2,2.05,2.05,0,0,1-.64-.54,3.35,3.35,0,0,1-.44-.76,5.35,5.35,0,0,1-.25-.84A7.63,7.63,0,0,1,79,77a22.4,22.4,0,0,1,.53-2.37.41.41,0,0,1,.23-.29.53.53,0,0,1,.62.17.37.37,0,0,1,0,.36c-.16.57-.3,1.16-.44,1.76a7.31,7.31,0,0,0-.16,1.8c0,.15.05.33.09.55a6.19,6.19,0,0,0,.19.67,4.15,4.15,0,0,0,.29.64,1.66,1.66,0,0,0,.39.46.6.6,0,0,0,.48.11,1.1,1.1,0,0,0,.58-.41,3.92,3.92,0,0,0,.74-1.34,7.81,7.81,0,0,0,.33-1.54A12.31,12.31,0,0,0,83,76c0-.54,0-1.06,0-1.55a.42.42,0,0,1,.13-.33.56.56,0,0,1,.3-.12.47.47,0,0,1,.31.08.37.37,0,0,1,.18.27.35.35,0,0,1,.08.22c0,.28,0,.57.07.88s.08.61.14.91a4.1,4.1,0,0,0,.27.86A3,3,0,0,0,85,78Z" id="r1Ke7mI3E2f"/>
            <path d="M88.13,77.61a.37.37,0,0,1,.21-.29.48.48,0,0,1,.33,0,.52.52,0,0,1,.28.19.43.43,0,0,1,.08.37,8.85,8.85,0,0,1-.27.94,6.47,6.47,0,0,1-.47,1.12,3.77,3.77,0,0,1-.66.94,1.14,1.14,0,0,1-.86.4.85.85,0,0,1-.74-.39,3.3,3.3,0,0,1-.4-.93,8,8,0,0,1-.19-1.09c0-.37,0-.66-.07-.87-.12-1.09-.21-2.12-.28-3.07S85,73,84.9,72.1s-.12-1.84-.19-2.79-.15-2-.26-3.08a.38.38,0,0,1,.11-.33.49.49,0,0,1,.31-.11.6.6,0,0,1,.34.11.4.4,0,0,1,.18.33q.15,1.44.24,2.64c.07.8.13,1.58.18,2.35s.11,1.55.16,2.36.12,1.69.18,2.65c0,.61.09,1.24.14,1.87a9.26,9.26,0,0,0,.36,1.83,1,1,0,0,1,.09.31c0,.06.07,0,.17-.07a4,4,0,0,0,.56-.86,6.81,6.81,0,0,0,.39-.82A4.28,4.28,0,0,0,88.13,77.61Z" id="B19xXX82Enf"/>
            <path d="M93.13,77.13a.31.31,0,0,1,.31-.06.43.43,0,0,1,.23.19.39.39,0,0,1,.06.3.35.35,0,0,1-.18.27l-.85.56q-.4.28-.81.6a2.73,2.73,0,0,1,.2.5A2.4,2.4,0,0,1,92.16,81a3.68,3.68,0,0,1-.77,1.29.31.31,0,0,1-.08.1.31.31,0,0,1-.12.08,1.64,1.64,0,0,1-.83.35,1.21,1.21,0,0,1-.74-.13,1.11,1.11,0,0,1-.45-.56,1.47,1.47,0,0,1,0-.94,4.54,4.54,0,0,1,.65-1.28,9,9,0,0,1,1-1.08.76.76,0,0,0-.13-.17l-.15-.17c-.25-.27-.51-.53-.79-.79a8.39,8.39,0,0,1-.75-.83,3.43,3.43,0,0,1-.49-.8,2.89,2.89,0,0,1-.22-.91,2.34,2.34,0,0,1,.13-.91,2,2,0,0,1,.56-.78,2.09,2.09,0,0,1,.74-.42,2.44,2.44,0,0,1,.84-.12,1.87,1.87,0,0,1,.8.21,1.67,1.67,0,0,1,.64.57,2,2,0,0,1,.32.78,1.84,1.84,0,0,1,0,.81,1.62,1.62,0,0,1-.36.7,1.38,1.38,0,0,1-.73.43.34.34,0,0,1-.33,0,.53.53,0,0,1-.17-.25.51.51,0,0,1,0-.3.38.38,0,0,1,.26-.21c.34-.09.52-.27.55-.54a1.05,1.05,0,0,0-.2-.77,1.41,1.41,0,0,0-.69-.55,1,1,0,0,0-.92.14,1.39,1.39,0,0,0-.57.71,1.45,1.45,0,0,0,0,.8,2.87,2.87,0,0,0,.38.79,5.48,5.48,0,0,0,.56.68l.69.68a5.74,5.74,0,0,1,.65.74,9.41,9.41,0,0,1,.83-.62Zm-3.2,4.66c0,.13,0,.21.11.24a.36.36,0,0,0,.25,0,1.09,1.09,0,0,0,.27-.11.61.61,0,0,0,.17-.11,4.08,4.08,0,0,0,.59-.83,1.25,1.25,0,0,0,.05-1,2.08,2.08,0,0,0-.14-.4l-.17.19a1.37,1.37,0,0,1-.17.19c-.16.19-.32.39-.48.62a3.55,3.55,0,0,0-.38.72c0,.08,0,.16-.08.25A.72.72,0,0,0,89.93,81.79Z" id="SJslmQL343G"/>
            <path d="M97.83,75.91a2,2,0,0,1-.69.92c-.34.27-.65.5-1,.7a9.24,9.24,0,0,1-1,.61,11.26,11.26,0,0,1-1.11.49v0a3.36,3.36,0,0,0,.17.83,2.06,2.06,0,0,0,.53.69,1,1,0,0,0,.5.27,1,1,0,0,0,.5,0,2.05,2.05,0,0,0,.48-.22,3.83,3.83,0,0,0,.46-.33.49.49,0,0,1,.37-.11.54.54,0,0,1,.31.15.47.47,0,0,1,.14.3.33.33,0,0,1-.16.32,5.78,5.78,0,0,1-.6.43,2.78,2.78,0,0,1-.67.33,2.16,2.16,0,0,1-.71.12,1.6,1.6,0,0,1-.72-.18,2.42,2.42,0,0,1-1-.92,3.73,3.73,0,0,1-.48-1.26,6.32,6.32,0,0,1,0-1.5,4.88,4.88,0,0,1,.34-1.39A4.11,4.11,0,0,1,94.25,75a4,4,0,0,1,1.24-.88,0,0,0,0,1,0,0,1.34,1.34,0,0,1,.9-.16,1.9,1.9,0,0,1,.85.35,1.61,1.61,0,0,1,.55.71A1.27,1.27,0,0,1,97.83,75.91Zm-3.72,1.7A8.75,8.75,0,0,0,96,76.51l.29-.23a2.82,2.82,0,0,0,.36-.33,1.25,1.25,0,0,0,.26-.37.32.32,0,0,0,0-.35.81.81,0,0,0-.5-.34.73.73,0,0,0-.6.12.78.78,0,0,1-.18.08,3,3,0,0,0-1,1.08A5.15,5.15,0,0,0,94.11,77.61Z" id="HynxQXLhN3G"/>
            <path d="M107.23,79.29a.39.39,0,0,1,.37-.05.52.52,0,0,1,.26.22.49.49,0,0,1,.07.34.38.38,0,0,1-.22.31l-1.36.84-1.36.86c-.33.85-.69,1.7-1.08,2.53s-.78,1.65-1.2,2.45c-.26.51-.54,1-.82,1.55s-.58,1-.91,1.56a11.79,11.79,0,0,1-1.07,1.45,7.65,7.65,0,0,1-1.28,1.2,2.48,2.48,0,0,1-1.14.5,2.06,2.06,0,0,1-1-.12,2.24,2.24,0,0,1-.87-.66A3.39,3.39,0,0,1,95,91.15a2.79,2.79,0,0,1,.08-1.91,7,7,0,0,1,1.09-1.8,12.18,12.18,0,0,1,1.57-1.56l1.5-1.21c.8-.64,1.62-1.24,2.45-1.81s1.68-1.12,2.53-1.67c.15-.37.28-.74.4-1.11s.24-.74.34-1.13l-.81.31-.81.33-1,.43-1,.43a4.52,4.52,0,0,1-.47.18.7.7,0,0,1-.49,0,.39.39,0,0,1-.17-.17.42.42,0,0,1,0-.23,1.42,1.42,0,0,1,.17-.53,5.49,5.49,0,0,1,.35-.54q.21-.27.42-.51a3.91,3.91,0,0,0,.36-.44l.8-1A5.42,5.42,0,0,0,103,76q-.51.1-1,.24c-.5.15-1,.3-1.5.47s-1,.34-1.48.53a.4.4,0,0,1-.37,0,.47.47,0,0,1-.19-.27.7.7,0,0,1,0-.35.43.43,0,0,1,.28-.26c.6-.23,1.2-.44,1.8-.65a14.76,14.76,0,0,1,1.84-.51l.36-.09.41-.08a1.81,1.81,0,0,1,.4,0,.7.7,0,0,1,.35.12.49.49,0,0,1,.22.54,4,4,0,0,1-.67,1.4l-.91,1.26c-.1.15-.21.29-.32.44s-.21.29-.32.44l.31-.14.31-.14,1.13-.49a10.74,10.74,0,0,1,1.15-.43c.48-.15.81-.11,1,.1a1,1,0,0,1,.09,1c-.06.23-.13.45-.2.66s-.13.43-.2.66l.87-.55Zm-4.46,5.22c.15-.31.29-.61.42-.91s.27-.6.4-.91l-1.28.86-1.28.9c-.61.45-1.21.92-1.81,1.39a15.26,15.26,0,0,0-1.67,1.55L97,88a7.23,7.23,0,0,0-.55.69,6.17,6.17,0,0,0-.43.74,2.14,2.14,0,0,0-.2.78,2,2,0,0,0,.06.58,3.56,3.56,0,0,0,.23.62,2,2,0,0,0,.38.52,1.08,1.08,0,0,0,.51.28.93.93,0,0,0,.52-.06,2.38,2.38,0,0,0,.5-.26,2.61,2.61,0,0,0,.44-.37l.36-.37A15.39,15.39,0,0,0,101,88C101.66,86.83,102.24,85.67,102.77,84.51Z" id="S1pxXXU2Enz"/>
            <path d="M121.81,74.51a.4.4,0,0,1,.22-.29.47.47,0,0,1,.33,0,.57.57,0,0,1,.29.2.43.43,0,0,1,.08.37c-.16.69-.33,1.38-.5,2.06s-.37,1.36-.6,2c0,.12-.08.27-.13.45s-.11.36-.18.55a5.38,5.38,0,0,1-.24.55,2,2,0,0,1-.31.47.61.61,0,0,1-.2.22.24.24,0,0,0-.12,0,1,1,0,0,1-.32.08H120a.34.34,0,0,1-.12-.06,1.41,1.41,0,0,1-.59-.33,4.59,4.59,0,0,1-.53-.55,6.26,6.26,0,0,1-.43-.62c-.13-.21-.24-.4-.33-.56-.47-.76-.91-1.54-1.33-2.34s-.84-1.6-1.25-2.4a.46.46,0,0,1,0-.38.56.56,0,0,1,.23-.27.47.47,0,0,1,.33-.06.4.4,0,0,1,.28.23c.32.64.65,1.28,1,1.91l1,1.91c.15.27.3.54.46.81a8.28,8.28,0,0,0,.52.79l.15.2.24.3c.09.11.17.21.26.3l.19.18s0-.07,0-.14a.76.76,0,0,0,.13-.2,2.59,2.59,0,0,0,.17-.38l.15-.4q.3-.86.54-1.74C121.37,76.48,121.61,75.51,121.81,74.51Z" id="r1Rg7X8hE2z"/>
            <path d="M125.49,74.09a2.58,2.58,0,0,1,1.72.39,2,2,0,0,1,.77,1.18,3.66,3.66,0,0,1,0,1.61,5.91,5.91,0,0,1-.65,1.69,6,6,0,0,1-1.12,1.42,3.25,3.25,0,0,1-1.42.81,1.41,1.41,0,0,1-1.32-.17,1.89,1.89,0,0,1-.61-1.11,4.7,4.7,0,0,1,0-1.64,7.79,7.79,0,0,1,.47-1.78,6.37,6.37,0,0,1,.85-1.52,2.37,2.37,0,0,1,1.13-.86Zm-.82,6.14a2.92,2.92,0,0,0,.91-.65,6.32,6.32,0,0,0,.84-1.06,5.31,5.31,0,0,0,.58-1.23,2.73,2.73,0,0,0,.15-1.16,1.19,1.19,0,0,0-.45-.83,1.79,1.79,0,0,0-1.23-.27,1.52,1.52,0,0,0-.69.49,3.85,3.85,0,0,0-.5.78,5.63,5.63,0,0,0-.34.89,7.15,7.15,0,0,0-.19.82c0,.16,0,.39-.08.69a3.06,3.06,0,0,0,0,.86,1.26,1.26,0,0,0,.28.64Q124.19,80.42,124.67,80.23Z" id="rk1W7mL243f"/>
            <path d="M133.53,77.13a.31.31,0,0,1,.31-.06.43.43,0,0,1,.23.19.51.51,0,0,1,.06.3.35.35,0,0,1-.18.27c-.29.19-.58.37-.85.56l-.81.6a3.69,3.69,0,0,1,.2.5,2.4,2.4,0,0,1,.07,1.51,3.83,3.83,0,0,1-.77,1.29.31.31,0,0,1-.08.1.62.62,0,0,1-.12.08,1.67,1.67,0,0,1-.83.35,1.19,1.19,0,0,1-.74-.13,1,1,0,0,1-.45-.56,1.47,1.47,0,0,1,0-.94,4.3,4.3,0,0,1,.65-1.28,8.16,8.16,0,0,1,1-1.08.76.76,0,0,0-.13-.17,1.29,1.29,0,0,1-.15-.17c-.25-.27-.52-.53-.79-.79a8.39,8.39,0,0,1-.75-.83,3.43,3.43,0,0,1-.49-.8,2.64,2.64,0,0,1-.22-.91,2.17,2.17,0,0,1,.13-.91,1.89,1.89,0,0,1,.56-.78,2,2,0,0,1,.74-.42,2.44,2.44,0,0,1,.84-.12,1.87,1.87,0,0,1,.8.21,1.74,1.74,0,0,1,.64.57,2,2,0,0,1,.32.78,2,2,0,0,1,0,.81,1.62,1.62,0,0,1-.36.7,1.38,1.38,0,0,1-.73.43.34.34,0,0,1-.33,0,.47.47,0,0,1-.17-.25.44.44,0,0,1,0-.3.38.38,0,0,1,.26-.21c.33-.09.52-.27.55-.54a1.1,1.1,0,0,0-.2-.77,1.5,1.5,0,0,0-.69-.55,1,1,0,0,0-.92.14,1.3,1.3,0,0,0-.57.71,1.45,1.45,0,0,0,0,.8,2.87,2.87,0,0,0,.38.79,4.72,4.72,0,0,0,.56.68l.69.68a6.62,6.62,0,0,1,.65.74,8.14,8.14,0,0,1,.83-.62Zm-3.2,4.66c0,.13,0,.21.11.24a.36.36,0,0,0,.25,0,1.53,1.53,0,0,0,.27-.11.82.82,0,0,0,.17-.11,4.08,4.08,0,0,0,.59-.83,1.29,1.29,0,0,0,.05-1,3.09,3.09,0,0,0-.14-.4l-.17.19-.17.19c-.16.19-.32.39-.48.62a3.11,3.11,0,0,0-.38.72c0,.08-.05.16-.08.25A.54.54,0,0,0,130.33,81.79Z" id="rJeZm78hNhG"/>
            <path d="M144.23,74.09a2.58,2.58,0,0,1,1.72.39,2,2,0,0,1,.77,1.18,3.66,3.66,0,0,1,0,1.61,5.91,5.91,0,0,1-.65,1.69,6,6,0,0,1-1.12,1.42,3.25,3.25,0,0,1-1.42.81,1.41,1.41,0,0,1-1.32-.17,1.89,1.89,0,0,1-.61-1.11,4.7,4.7,0,0,1,0-1.64,7.79,7.79,0,0,1,.47-1.78,6.37,6.37,0,0,1,.85-1.52,2.37,2.37,0,0,1,1.13-.86Zm-.82,6.14a2.92,2.92,0,0,0,.91-.65,6.32,6.32,0,0,0,.84-1.06,5.31,5.31,0,0,0,.58-1.23,2.73,2.73,0,0,0,.15-1.16,1.19,1.19,0,0,0-.45-.83,1.79,1.79,0,0,0-1.23-.27,1.52,1.52,0,0,0-.69.49,3.85,3.85,0,0,0-.5.78,5.63,5.63,0,0,0-.34.89,7.15,7.15,0,0,0-.19.82c0,.16-.05.39-.08.69a3.06,3.06,0,0,0,0,.86,1.26,1.26,0,0,0,.28.64Q142.93,80.42,143.41,80.23Z" id="SJZZQmL2V2M"/>
            <path d="M156.29,78A2.16,2.16,0,0,1,156,79.1a2.7,2.7,0,0,1-.74.84,4.23,4.23,0,0,1-1,.58,7.31,7.31,0,0,1-1.13.35,12.7,12.7,0,0,1-3,.32,11.16,11.16,0,0,1-3-.44.33.33,0,0,1-.26-.23.47.47,0,0,1,0-.33.58.58,0,0,1,.23-.26.45.45,0,0,1,.38,0,9.94,9.94,0,0,0,2.44.38,11.15,11.15,0,0,0,2.46-.18c.24,0,.53-.11.88-.2a5,5,0,0,0,1-.38,2.92,2.92,0,0,0,.81-.59,1.07,1.07,0,0,0,.29-.87,1.51,1.51,0,0,0-.48-1.15,1.32,1.32,0,0,0-1-.21,3.59,3.59,0,0,0-1.25.45,12.11,12.11,0,0,0-1.31.84,12.29,12.29,0,0,0-1.13,1,6.07,6.07,0,0,0-.71.78.4.4,0,0,1-.35.2.46.46,0,0,1-.33-.18.37.37,0,0,1-.2-.3,26.56,26.56,0,0,1-.6-3.78c-.11-1.28-.21-2.55-.3-3.82,0-.63-.07-1.18-.1-1.65s0-.93-.05-1.38,0-.91,0-1.39,0-1-.07-1.7a.37.37,0,0,1,.14-.33.44.44,0,0,1,.32-.06.64.64,0,0,1,.33.16.44.44,0,0,1,.15.35c0,.64,0,1.2,0,1.68s0,.95,0,1.4,0,.92.07,1.39.06,1,.1,1.65c.08,1.08.16,2.16.26,3.25a31.71,31.71,0,0,0,.43,3.23,9.82,9.82,0,0,1,1.7-1.49A7.28,7.28,0,0,1,153,76a3.5,3.5,0,0,1,1.16-.16,2.52,2.52,0,0,1,1.07.26,2,2,0,0,1,.78.71A2.17,2.17,0,0,1,156.29,78Z" id="S1MZQmI34hf"/>
            <path d="M160.35,79.17a.36.36,0,0,1,.33.11.49.49,0,0,1,.11.31.62.62,0,0,1-.11.34.4.4,0,0,1-.33.18l-.66.08-.66.1c.12,1,.21,1.92.26,2.88s.06,1.92,0,2.88-.08,1.71-.17,2.58a11.63,11.63,0,0,1-.55,2.54c-.07.17-.14.37-.22.59a3.26,3.26,0,0,1-.31.62,2.07,2.07,0,0,1-.45.48A.88.88,0,0,1,157,93h-.06l-.06,0a1.61,1.61,0,0,1-.87-.5,4.25,4.25,0,0,1-.64-.91,6.66,6.66,0,0,1-.46-1.06c-.12-.37-.22-.69-.3-1a17.5,17.5,0,0,1-.59-3,21,21,0,0,1-.11-3.06,4.16,4.16,0,0,1,.55-2.09,3.71,3.71,0,0,1,1.72-1.33,8.14,8.14,0,0,1,.87-.31c.3-.09.61-.16.92-.23a43,43,0,0,0-1.11-5.14.39.39,0,0,1,0-.36.59.59,0,0,1,.28-.19.5.5,0,0,1,.34,0,.42.42,0,0,1,.24.29,44.49,44.49,0,0,1,1.14,5.2l.72-.11Zm-2,5.12c0-.64-.06-1.28-.11-1.91s-.1-1.27-.17-1.91l-.58.14c-.19,0-.37.11-.56.18s-.57.22-.86.35a2.09,2.09,0,0,0-.74.53,1.8,1.8,0,0,0-.45,1,7.16,7.16,0,0,0-.05,1.12c0,.85,0,1.7.1,2.55a13.82,13.82,0,0,0,.44,2.53c.05.21.12.49.21.82a9.57,9.57,0,0,0,.33,1,4.69,4.69,0,0,0,.47.89,1.23,1.23,0,0,0,.65.52q.24,0,.42-.45a6.18,6.18,0,0,0,.31-.92c.09-.34.16-.67.21-1s.09-.52.12-.63c.12-.8.2-1.6.24-2.41S158.4,85.09,158.37,84.29Zm-1.88-11.92a1.18,1.18,0,0,1-.86-.49,1.23,1.23,0,0,1-.18-1,1.34,1.34,0,0,1,.44-.79.79.79,0,0,1,.84-.17l.12.06a.91.91,0,0,1,.56.44,1.16,1.16,0,0,1,.16.72,1.36,1.36,0,0,1-.08.44,1.39,1.39,0,0,1-.21.4,1,1,0,0,1-.33.29A.71.71,0,0,1,156.49,72.37Z" id="Sk7Zm7UhNhM"/>
            <path d="M164.69,75.91a2,2,0,0,1-.69.92c-.34.27-.66.5-.95.7a11.37,11.37,0,0,1-1.05.61,11.26,11.26,0,0,1-1.11.49v0a3,3,0,0,0,.17.83,1.94,1.94,0,0,0,.53.69,1,1,0,0,0,.5.27,1.05,1.05,0,0,0,.5,0,2.05,2.05,0,0,0,.48-.22,4.84,4.84,0,0,0,.46-.33.48.48,0,0,1,.37-.11.54.54,0,0,1,.31.15.47.47,0,0,1,.14.3.35.35,0,0,1-.16.32c-.19.15-.39.29-.6.43a3,3,0,0,1-.67.33,2.16,2.16,0,0,1-.71.12,1.6,1.6,0,0,1-.72-.18,2.42,2.42,0,0,1-1-.92,3.73,3.73,0,0,1-.48-1.26,5.83,5.83,0,0,1-.05-1.5,4.88,4.88,0,0,1,.34-1.39,4.11,4.11,0,0,1,.77-1.19,3.91,3.91,0,0,1,1.24-.88,0,0,0,0,1,0,0,1.34,1.34,0,0,1,.9-.16,2,2,0,0,1,.85.35,1.61,1.61,0,0,1,.55.71A1.27,1.27,0,0,1,164.69,75.91ZM161,77.61a8.75,8.75,0,0,0,1.92-1.1l.29-.23a2.82,2.82,0,0,0,.36-.33,1.47,1.47,0,0,0,.26-.37.32.32,0,0,0,0-.35.84.84,0,0,0-.5-.34.73.73,0,0,0-.6.12.78.78,0,0,1-.18.08,2.91,2.91,0,0,0-1,1.08A4.59,4.59,0,0,0,161,77.61Z" id="H1NbQmLhN2z"/>
            <path d="M172.27,78.81a.41.41,0,0,1,.37,0,.56.56,0,0,1,.26.22.47.47,0,0,1,.06.33.45.45,0,0,1-.23.3c-.29.15-.67.32-1.13.53a12.55,12.55,0,0,1-1.51.57,11.94,11.94,0,0,1-1.67.4,5.23,5.23,0,0,1-1.57,0,2.62,2.62,0,0,1-1.25-.5,2,2,0,0,1-.71-1.22,4.63,4.63,0,0,1-.09-1.31,5.44,5.44,0,0,1,.27-1.38,5.18,5.18,0,0,1,.61-1.25,3.08,3.08,0,0,1,.95-.92,2.89,2.89,0,0,1,1.33-.45,3,3,0,0,1,1.27.17,3.43,3.43,0,0,1,1.11.69,3.64,3.64,0,0,1,.83,1.13.43.43,0,0,1,0,.38.56.56,0,0,1-.23.27.45.45,0,0,1-.32.06.4.4,0,0,1-.27-.23,2.79,2.79,0,0,0-.85-1,2.36,2.36,0,0,0-1.11-.47,1.91,1.91,0,0,0-1.14.2,2.29,2.29,0,0,0-.94,1,5.65,5.65,0,0,0-.36.8,4.81,4.81,0,0,0-.26,1,3.22,3.22,0,0,0,0,1,1.26,1.26,0,0,0,.42.77,1.47,1.47,0,0,0,.65.35,2.8,2.8,0,0,0,.77.08,5.16,5.16,0,0,0,.79-.08l.73-.15c.56-.15,1.1-.31,1.63-.5A11.43,11.43,0,0,0,172.27,78.81Z" id="rkH-77U2V2f"/>
            <path d="M182.41,72.29a.41.41,0,0,1,.33.17.57.57,0,0,1,.11.33.49.49,0,0,1-.11.31.36.36,0,0,1-.33.11c-.68-.07-1.36-.12-2-.17a17.67,17.67,0,0,0-2.06,0c-.49,0-1,.06-1.56.11a5.72,5.72,0,0,0-1.56.35c.15,1.41.25,2.82.31,4.23s.12,2.8.19,4.19a.43.43,0,0,1-.14.34.47.47,0,0,1-.31.12.51.51,0,0,1-.32-.12.45.45,0,0,1-.17-.34c0-.56-.05-1.12-.07-1.69s0-1.14-.07-1.71l0,0a5.33,5.33,0,0,0-.44-.85q-.28-.45-.54-.93c-.17-.32-.33-.64-.47-1a2.69,2.69,0,0,1-.23-1,1.83,1.83,0,0,1,.19-.89,2,2,0,0,1,.77-.76L174,73l.15-.09L174,71c-.06-.55-.13-1.09-.22-1.6s-.2-1-.33-1.57-.32-1.15-.56-1.84a.36.36,0,0,1,0-.35.47.47,0,0,1,.27-.19.51.51,0,0,1,.34,0,.46.46,0,0,1,.26.27c.23.68.41,1.28.55,1.8s.25,1,.34,1.53.16,1,.22,1.57l.21,1.9a8.16,8.16,0,0,1,1.79-.4,14.7,14.7,0,0,1,1.88-.09c.63,0,1.26,0,1.88.1Zm-7.94,3.9c0-.37-.05-.75-.08-1.12s0-.75-.08-1.12a1.2,1.2,0,0,0-.35.46,1,1,0,0,0-.05.51,2.1,2.1,0,0,0,.17.56,5.07,5.07,0,0,0,.33.59Z" id="S1LZm7UnVnf"/>
            <path d="M181.41,71.39a1.32,1.32,0,0,1-.24.77,1.3,1.3,0,0,1-.66.49.86.86,0,0,1-.5.06,1.66,1.66,0,0,1-.49-.16,1.75,1.75,0,0,1-.42-.31,1.4,1.4,0,0,1-.29-.41,1.3,1.3,0,0,1-.11-.58,1.94,1.94,0,0,1,.12-.58,1.84,1.84,0,0,1,.31-.52,1.51,1.51,0,0,1,.46-.38.39.39,0,0,1,.5,0,.53.53,0,0,1,.2.45,1.86,1.86,0,0,1,.76.37A1,1,0,0,1,181.41,71.39ZM179.69,71l0,0Zm1,3.3a7.34,7.34,0,0,1,.44,1.52,13.86,13.86,0,0,1,.16,1.58c0,.53,0,1.07,0,1.6s0,1.06,0,1.58a.43.43,0,0,1-.14.34.49.49,0,0,1-.32.12.54.54,0,0,1-.33-.12.41.41,0,0,1-.15-.34c0-.49,0-1,0-1.51s0-1,0-1.54a14.86,14.86,0,0,0-.14-1.51,6,6,0,0,0-.41-1.46.36.36,0,0,1,0-.35A.47.47,0,0,1,180,74a.6.6,0,0,1,.35,0A.46.46,0,0,1,180.66,74.31Z" id="SyPbmmUhNnz"/>
            <path d="M188.61,73.71a.4.4,0,0,1,.29.22.47.47,0,0,1,0,.33.51.51,0,0,1-.2.28.39.39,0,0,1-.35,0,2,2,0,0,0-.94,0,3.69,3.69,0,0,0-.93.37,7,7,0,0,0-.85.57,7.48,7.48,0,0,0-.7.62c-.23.23-.44.45-.64.67l-.61.67c0,.12,0,.24-.07.36s0,.24-.07.36a3,3,0,0,1,.8,1,12.79,12.79,0,0,1,.62,1.41q.27.73.45,1.41c.12.45.21.78.26,1A14.65,14.65,0,0,1,186,84.9a7.34,7.34,0,0,1,0,1.87c0,.19-.06.39-.11.61a3,3,0,0,1-.21.62,1.64,1.64,0,0,1-.36.5,1.07,1.07,0,0,1-.54.27.51.51,0,0,1-.16,0,1.93,1.93,0,0,1-1.17-.38,2.58,2.58,0,0,1-.74-.94,4.69,4.69,0,0,1-.38-1.3,14,14,0,0,1-.14-1.45c0-.49,0-1,0-1.4s0-.82,0-1.13c0-.51,0-1,.09-1.52s.11-1,.19-1.52l0,0s0,0-.05,0a.34.34,0,0,1-.3.15.49.49,0,0,1-.28-.11.6.6,0,0,1-.2-.25.35.35,0,0,1,.06-.33l.54-.78c.2-.28.42-.57.65-.86.27-1.37.59-2.73,1-4.07s.71-2.68,1-4a.4.4,0,0,1,.22-.29.44.44,0,0,1,.32,0,.59.59,0,0,1,.28.19.37.37,0,0,1,.06.36c-.24,1-.48,2-.71,3s-.48,2-.75,3a1.8,1.8,0,0,0-.1.38,10.32,10.32,0,0,1,1-.88,5.59,5.59,0,0,1,1.08-.66,4.79,4.79,0,0,1,1.15-.36A3,3,0,0,1,188.61,73.71Zm-4.52,7.12c-.07-.19-.16-.44-.29-.75a5.09,5.09,0,0,0-.41-.81c-.07.39-.12.76-.15,1.13s-.06.74-.07,1.13c0,.6,0,1.2,0,1.81a12.13,12.13,0,0,0,.07,1.81c0,.23,0,.49.08.79a5,5,0,0,0,.2.87,2.1,2.1,0,0,0,.4.72.93.93,0,0,0,.7.32.51.51,0,0,0,.31-.3,2.64,2.64,0,0,0,.17-.52,3.72,3.72,0,0,0,.08-.57c0-.19,0-.34,0-.45a8.21,8.21,0,0,0-.05-1.23,9.17,9.17,0,0,0-.23-1.21c-.11-.47-.22-.93-.34-1.39A12.52,12.52,0,0,0,184.09,80.83Z" id="SkOZXQ83V2z"/>
            <path d="M194.11,77.13a.31.31,0,0,1,.31-.06.43.43,0,0,1,.23.19.51.51,0,0,1,.06.3.35.35,0,0,1-.18.27c-.29.19-.58.37-.85.56s-.54.39-.81.6a3.69,3.69,0,0,1,.2.5,2.4,2.4,0,0,1,.07,1.51,3.83,3.83,0,0,1-.77,1.29.31.31,0,0,1-.08.1.62.62,0,0,1-.12.08,1.67,1.67,0,0,1-.83.35,1.19,1.19,0,0,1-.74-.13,1,1,0,0,1-.45-.56,1.47,1.47,0,0,1,0-.94,4.3,4.3,0,0,1,.65-1.28,8.16,8.16,0,0,1,.95-1.08.76.76,0,0,0-.13-.17,1.29,1.29,0,0,1-.15-.17c-.25-.27-.52-.53-.79-.79a8.39,8.39,0,0,1-.75-.83,3.43,3.43,0,0,1-.49-.8,2.64,2.64,0,0,1-.22-.91,2.17,2.17,0,0,1,.13-.91,1.89,1.89,0,0,1,.56-.78,2,2,0,0,1,.74-.42,2.44,2.44,0,0,1,.84-.12,1.87,1.87,0,0,1,.8.21,1.74,1.74,0,0,1,.64.57,2,2,0,0,1,.32.78,2,2,0,0,1,0,.81,1.62,1.62,0,0,1-.36.7,1.38,1.38,0,0,1-.73.43.34.34,0,0,1-.33,0,.47.47,0,0,1-.17-.25.44.44,0,0,1,0-.3.38.38,0,0,1,.26-.21c.33-.09.52-.27.55-.54a1.1,1.1,0,0,0-.2-.77,1.5,1.5,0,0,0-.69-.55,1,1,0,0,0-.92.14,1.3,1.3,0,0,0-.57.71,1.45,1.45,0,0,0,0,.8,2.87,2.87,0,0,0,.38.79,4.72,4.72,0,0,0,.56.68l.69.68a6.62,6.62,0,0,1,.65.74,8.14,8.14,0,0,1,.83-.62Zm-3.2,4.66c0,.13,0,.21.11.24a.36.36,0,0,0,.25,0,1.53,1.53,0,0,0,.27-.11.82.82,0,0,0,.17-.11,4.08,4.08,0,0,0,.59-.83,1.29,1.29,0,0,0,0-1,3.09,3.09,0,0,0-.14-.4l-.17.19-.17.19c-.16.19-.32.39-.48.62a3.11,3.11,0,0,0-.38.72c0,.08,0,.16-.08.25A.54.54,0,0,0,190.91,81.79Z" id="HJKbX7L3E2z"/>
        </g>
    </g>
</svg>