<svg xmlns="http://www.w3.org/2000/svg" xmlns:xlink="http://www.w3.org/1999/xlink" viewBox="0 0 245.34 251.18"><defs><style>.cls-1{isolation:isolate;}.cls-2{fill:none;stroke:#1d1d1b;stroke-miterlimit:10;stroke-width:2px;}.cls-3{opacity:0.6;}.cls-16,.cls-3{mix-blend-mode:multiply;}.cls-4{fill:#fff;}.cls-5{fill:#1d1d1b;}.cls-6{fill:#d9d8d7;}.cls-7{fill:#cccbca;}.cls-8{fill:#00baee;}.cls-9{fill:#242d3c;}.cls-10{fill:#e4003a;}.cls-11{fill:#3e4959;}.cls-12{fill:#e64717;}.cls-13{fill:#f0c808;}.cls-14{fill:#ffed00;}.cls-15{fill:#010101;}.cls-16{opacity:0.75;}.cls-17{fill:#dadada;}.cls-18{clip-path:url(#clip-path);}.cls-19{fill:#f6f6f6;}.cls-20{fill:#ededed;}</style><clipPath id="clip-path" transform="translate(-18.83 -14.41)"/></defs><title>proto</title><g class="cls-1"><g id="Calque_1" data-name="Calque 1"><line class="cls-2" x1="111.58" y1="96.6" x2="111.11" y2="96.6"/><g class="cls-3"><path d="M36.46,37.83v110.9H182a16.41,16.41,0,0,0,16.41-16.41V37.83Z" transform="translate(-18.83 -14.41)"/><path d="M182,21.41V115.9a16.42,16.42,0,0,1,16.41,16.42V37.83A16.42,16.42,0,0,0,182,21.41Z" transform="translate(-18.83 -14.41)"/></g><path class="cls-4" d="M31.46,30.83v110.9H177a16.41,16.41,0,0,0,16.41-16.41V30.83Z" transform="translate(-18.83 -14.41)"/><path class="cls-5" d="M177,14.41V108.9a16.42,16.42,0,0,1,16.41,16.42V30.83A16.42,16.42,0,0,0,177,14.41Z" transform="translate(-18.83 -14.41)"/><rect class="cls-6" x="105.25" y="54.82" width="1.73" height="7.51"/><rect class="cls-6" x="116.47" y="72.75" width="10.37" height="1.73"/><rect class="cls-6" x="136.33" y="84.88" width="1.73" height="7.51"/><rect class="cls-6" x="105.25" y="84.88" width="1.73" height="7.51"/><rect class="cls-6" x="63.49" y="54.82" width="1.73" height="7.51"/><rect class="cls-6" x="43.09" y="39.8" width="1.73" height="7.51"/><rect class="cls-6" x="63.49" y="77.36" width="1.73" height="7.51"/><rect class="cls-7" x="43.93" y="95.29" width="10.06" height="1.73"/><rect class="cls-8" x="33.58" y="47.31" width="103.62" height="7.51"/><rect class="cls-4" x="119.07" y="50.2" width="15.54" height="1.73"/><rect class="cls-9" x="95.76" y="47.31" width="20.72" height="7.51"/><rect class="cls-4" x="98.34" y="50.2" width="15.53" height="1.73"/><rect class="cls-4" x="77.61" y="50.2" width="15.53" height="1.73"/><rect class="cls-4" x="56.89" y="50.2" width="15.54" height="1.73"/><rect class="cls-4" x="36.18" y="50.2" width="15.54" height="1.73"/><rect class="cls-8" x="95.76" y="62.34" width="20.72" height="22.54"/><rect class="cls-10" x="54.01" y="62.34" width="20.71" height="15.02"/><rect class="cls-10" x="23.23" y="92.39" width="20.71" height="7.51"/><rect class="cls-10" x="126.84" y="92.39" width="20.71" height="15.03"/><rect class="cls-5" x="126.84" y="62.34" width="20.71" height="22.54"/><rect class="cls-8" x="95.76" y="92.39" width="20.72" height="7.51"/><rect class="cls-5" x="33.58" y="32.29" width="20.71" height="7.51"/><rect class="cls-5" x="54.01" y="84.88" width="20.71" height="22.54"/><rect class="cls-11" x="36.18" y="35.18" width="15.54" height="1.73"/><rect class="cls-12" x="25.82" y="95.29" width="15.54" height="1.73"/><rect class="cls-12" x="56.59" y="65.24" width="15.54" height="1.72"/><rect class="cls-12" x="60.6" y="72.75" width="7.51" height="1.73"/><rect class="cls-12" x="129.42" y="95.29" width="15.53" height="1.73"/><rect class="cls-12" x="129.42" y="102.8" width="9.19" height="1.73"/><rect class="cls-11" x="56.59" y="87.78" width="15.54" height="1.73"/><rect class="cls-11" x="63.49" y="95.29" width="8.63" height="1.73"/><rect class="cls-11" x="56.59" y="95.29" width="4.32" height="1.73"/><rect class="cls-11" x="63.84" y="102.8" width="3.97" height="1.73"/><rect class="cls-11" x="56.59" y="102.8" width="6.13" height="1.73"/><rect class="cls-4" x="98.34" y="95.29" width="15.54" height="1.73"/><rect class="cls-4" x="106.12" y="65.24" width="7.77" height="1.72"/><rect class="cls-4" x="98.34" y="65.24" width="5.42" height="1.72"/><rect class="cls-4" x="98.34" y="72.75" width="15.54" height="1.73"/><rect class="cls-4" x="98.34" y="80.26" width="10.98" height="1.72"/><rect class="cls-11" x="129.42" y="65.24" width="15.53" height="1.72"/><rect class="cls-11" x="129.42" y="72.75" width="9.47" height="1.73"/><rect class="cls-11" x="140.9" y="72.75" width="4.05" height="1.73"/><rect class="cls-11" x="129.42" y="80.26" width="6.91" height="1.72"/><polygon class="cls-4" points="0.12 14.87 5.58 3.95 11.04 14.88 0.12 14.87"/><rect class="cls-13" x="0.06" y="14.87" width="10.92" height="171.34"/><rect class="cls-14" x="5.52" y="14.87" width="5.46" height="171.34"/><polygon class="cls-15" points="3.44 8.22 5.58 3.95 7.73 8.23 3.44 8.22"/><rect class="cls-4" x="0.01" y="173.2" width="10.92" height="3.86"/><rect class="cls-15" y="177.05" width="10.92" height="9.16"/><g class="cls-16"><rect x="111.42" y="154.17" width="58.17" height="60.5"/></g><rect class="cls-17" x="105.42" y="150.17" width="58.17" height="60.5"/><rect class="cls-5" x="109.67" y="157.55" width="17.52" height="1.47"/><rect class="cls-5" x="109.68" y="160.48" width="33.71" height="1.47"/><rect class="cls-5" x="109.67" y="163.41" width="33.71" height="1.47"/><rect class="cls-5" x="109.65" y="170.14" width="17.52" height="1.47"/><rect class="cls-5" x="109.65" y="173.07" width="33.71" height="1.47"/><rect class="cls-5" x="109.69" y="176.01" width="33.71" height="1.47"/><rect class="cls-5" x="109.69" y="178.94" width="33.71" height="1.47"/><rect class="cls-5" x="109.69" y="181.87" width="33.71" height="1.47"/><rect class="cls-5" x="131.11" y="186.27" width="7.82" height="1.47"/><path class="cls-5" d="M225.9,265.59H171.64a10.52,10.52,0,0,1-10.49-10.48V140.64a10.52,10.52,0,0,1,10.49-10.48h54.27a10.52,10.52,0,0,1,10.48,10.48V255.11A10.52,10.52,0,0,1,225.9,265.59Z" transform="translate(-18.83 -14.41)"/><rect class="cls-4" x="147.28" y="126.43" width="65.31" height="106.78"/><path class="cls-17" d="M208.57,136.62H195.2a1.09,1.09,0,0,1-1.09-1.09h0a1.1,1.1,0,0,1,1.09-1.1h13.37a1.1,1.1,0,0,1,1.09,1.1h0A1.09,1.09,0,0,1,208.57,136.62Z" transform="translate(-18.83 -14.41)"/><circle class="cls-17" cx="170.15" cy="121.11" r="1.09"/><path class="cls-17" d="M198.77,261.77a5.17,5.17,0,1,1,5.16-5.16A5.17,5.17,0,0,1,198.77,261.77Zm0-9.27a4.11,4.11,0,1,0,4.1,4.1A4.11,4.11,0,0,0,198.77,252.5Z" transform="translate(-18.83 -14.41)"/><path class="cls-4" d="M192,211.84h-2.31V214h2.57v.64h-3.33V208.7h3.2v.63h-2.44v1.87H192Z" transform="translate(-18.83 -14.41)"/><path class="cls-4" d="M193.24,211.51c0-.44,0-.79,0-1.15h.68l.05.71h0a1.55,1.55,0,0,1,1.41-.8c.59,0,1.5.35,1.5,1.81v2.54h-.77v-2.46c0-.68-.26-1.26-1-1.26a1.09,1.09,0,0,0-1,.8,1,1,0,0,0-.06.36v2.56h-.77v-3.11Z" transform="translate(-18.83 -14.41)"/><path class="cls-4" d="M198.13,211.69c0-.5,0-.93,0-1.33h.67l0,.84h0a1.28,1.28,0,0,1,1.18-.93.51.51,0,0,1,.22,0V211l-.26,0a1.08,1.08,0,0,0-1,1,1.94,1.94,0,0,0,0,.36v2.26h-.77Z" transform="translate(-18.83 -14.41)"/><path class="cls-4" d="M204.77,212.45a2.08,2.08,0,0,1-2.12,2.26,2,2,0,0,1-2-2.19,2.07,2.07,0,0,1,2.11-2.25A2,2,0,0,1,204.77,212.45Zm-3.37.05c0,.93.54,1.63,1.29,1.63s1.3-.69,1.3-1.65c0-.72-.36-1.64-1.28-1.64S201.4,211.69,201.4,212.5Z" transform="translate(-18.83 -14.41)"/><path class="cls-4" d="M205.76,208.38h.77v6.24h-.77Z" transform="translate(-18.83 -14.41)"/><path class="cls-4" d="M207.84,208.38h.77v6.24h-.77Z" transform="translate(-18.83 -14.41)"/><rect class="cls-5" x="174.46" y="211.16" width="10.97" height="1.47"/><rect class="cls-5" x="165.67" y="214.74" width="28.58" height="1.47"/><rect class="cls-5" x="151.16" y="130.29" width="14.86" height="1.47"/><rect class="cls-5" x="151.2" y="133.22" width="28.58" height="1.47"/><rect class="cls-5" x="151.23" y="136.16" width="28.58" height="1.47"/><g class="cls-16"><rect x="201.6" y="123.6" width="43.74" height="16.38"/></g><rect class="cls-13" x="198.6" y="118.6" width="43.74" height="16.38"/><g class="cls-16"><circle cx="182.94" cy="176.94" r="23.6"/><g class="cls-18"><path d="M208.52,176.52l-4.79,30.68,3.42.81c7.25-6.26,10.36-31.49,1.37-31.49Zm0,0" transform="translate(-18.83 -14.41)"/><path d="M208.52,176.52c-1.19-.86-7.52-3-12.32,0-5.9,3.73-11.07,17.09-2.74,30.68,0,0,6.16-.81,6.16-.81Zm0,0" transform="translate(-18.83 -14.41)"/></g><path d="M206.65,198.52h0V197h-9.35v1.56c0,1.52,0,3.18-1.34,4.19v15h12v-15c-1.3-1-1.3-2.65-1.3-4.16Zm0,0" transform="translate(-18.83 -14.41)"/><path d="M201.94,211a15.32,15.32,0,0,1-4-.52v7.2h9.35V210a14.62,14.62,0,0,1-5.34,1Zm0,0" transform="translate(-18.83 -14.41)"/><path d="M207.28,205.64a3.07,3.07,0,0,0,.67.12v-3.08c-1.3-1-1.3-2.65-1.3-4.16v-1.6l-7.39,0-2,.66c1.33,1.51,5.43,6.77,10,8Zm0,0" transform="translate(-18.83 -14.41)"/><path d="M211.29,188.27c0,5.35-5.32,12-9.35,12s-9.36-6.68-9.36-12,4.19-7.35,9.36-7.35,9.35,2,9.35,7.35Zm0,0" transform="translate(-18.83 -14.41)"/><path d="M203.27,177.58a13.85,13.85,0,0,0-2.59.79l-.08-.12-.38.29-1,.37.16.26c-2.54,2-8.32,6.57-8.84,7.09-.67.67,4,17.72,4,8,0-8.1,4.5-9.7,8.68-10.69a3.15,3.15,0,0,0,2.68-2.67c.22-1.12-2-3.34-2.68-3.34Zm0,0" transform="translate(-18.83 -14.41)"/><path d="M205.28,181.59c1.22,4.4,3.67,6.39,6,7,1.26.32.71-3.63.71-3.63s-1.78-4.57-2-4.68a42.88,42.88,0,0,1-2-4l-4,3.34Zm0,0" transform="translate(-18.83 -14.41)"/><path d="M196.66,201.91c-.63,1-1.91,1.73-4.53,1.73h-.22a7.35,7.35,0,0,0-7.35,7.35v4.68a2,2,0,0,0,2,2h13.71Zm0,0" transform="translate(-18.83 -14.41)"/><path d="M207.22,201.91c.62,1,1.9,1.73,4.52,1.73H212a7.35,7.35,0,0,1,7.35,7.35v4.68a2,2,0,0,1-2,2H203.59Zm0,0" transform="translate(-18.83 -14.41)"/><path d="M210.3,188.33c1.09-.25,1.81.29,1.81,1.34,0,1.39-1.47,4.8-3,2.67s1.21-4,1.21-4Zm0,0" transform="translate(-18.83 -14.41)"/></g><circle class="cls-10" cx="179.94" cy="173.94" r="23.6"/><g class="cls-18"><path class="cls-5" d="M205.52,173.52l-4.79,30.68,3.42.81c7.25-6.26,10.36-31.49,1.37-31.49Zm0,0" transform="translate(-18.83 -14.41)"/><path class="cls-5" d="M205.52,173.52c-1.19-.86-7.52-3-12.32,0-5.9,3.73-11.07,17.09-2.74,30.68,0,0,6.16-.81,6.16-.81Zm0,0" transform="translate(-18.83 -14.41)"/></g><path class="cls-19" d="M203.65,195.52h0V194h-9.35v1.56c0,1.52,0,3.18-1.34,4.19v15h12v-15c-1.3-1-1.3-2.65-1.3-4.16Zm0,0" transform="translate(-18.83 -14.41)"/><path class="cls-5" d="M198.94,208a15.32,15.32,0,0,1-4-.52v7.2h9.35V207a14.62,14.62,0,0,1-5.34,1Zm0,0" transform="translate(-18.83 -14.41)"/><path class="cls-17" d="M204.28,202.64a3.07,3.07,0,0,0,.67.12v-3.08c-1.3-1-1.3-2.65-1.3-4.16v-1.6l-7.39,0-2,.66c1.33,1.51,5.43,6.77,10,8Zm0,0" transform="translate(-18.83 -14.41)"/><path class="cls-19" d="M208.29,185.27c0,5.35-5.32,12-9.35,12s-9.36-6.68-9.36-12,4.19-7.35,9.36-7.35,9.35,2,9.35,7.35Zm0,0" transform="translate(-18.83 -14.41)"/><path class="cls-5" d="M200.27,174.58a13.85,13.85,0,0,0-2.59.79l-.08-.12-.38.29-1,.37.16.26c-2.54,2-8.32,6.57-8.84,7.09-.67.67,4,17.72,4,8,0-8.1,4.5-9.7,8.68-10.69a3.15,3.15,0,0,0,2.68-2.67c.22-1.12-2-3.34-2.68-3.34Zm0,0" transform="translate(-18.83 -14.41)"/><path class="cls-5" d="M202.28,178.59c1.22,4.4,3.67,6.39,6,7,1.26.32.71-3.63.71-3.63s-1.78-4.57-2-4.68a42.88,42.88,0,0,1-2-4l-4,3.34Zm0,0" transform="translate(-18.83 -14.41)"/><path class="cls-20" d="M193.66,198.91c-.63,1-1.91,1.73-4.53,1.73h-.22a7.35,7.35,0,0,0-7.35,7.35v4.68a2,2,0,0,0,2,2h13.71Zm0,0" transform="translate(-18.83 -14.41)"/><path class="cls-20" d="M204.22,198.91c.62,1,1.9,1.73,4.52,1.73H209a7.35,7.35,0,0,1,7.35,7.35v4.68a2,2,0,0,1-2,2H200.59Zm0,0" transform="translate(-18.83 -14.41)"/><path class="cls-19" d="M207.3,185.33c1.09-.25,1.81.29,1.81,1.34,0,1.39-1.47,4.8-3,2.67s1.21-4,1.21-4Zm0,0" transform="translate(-18.83 -14.41)"/></g></g></svg>