<svg xmlns="http://www.w3.org/2000/svg" viewBox="0 0 257.6 267.32"><defs><style>.cls-1{isolation:isolate;}.cls-2{fill:#1f3750;}.cls-3{fill:#c1c1c1;}.cls-4{fill:#9e9e9e;}.cls-5{fill:#666;}.cls-6{fill:#fff;}.cls-7{fill:#f0c808;}.cls-8{fill:#b2b2b2;}.cls-9{fill:#1d1d1b;}.cls-10{opacity:0.75;mix-blend-mode:multiply;}.cls-11{fill:#9d9d9c;}.cls-12{fill:#dadada;}.cls-13,.cls-15{opacity:0.84;}.cls-14,.cls-17{opacity:0.6;}.cls-15,.cls-16,.cls-17{fill:#e4003a;}</style></defs><title>reseau</title><g class="cls-1"><g id="Calque_1" data-name="Calque 1"><rect class="cls-2" x="238.71" y="100.1" width="3.25" height="9.76"/><rect class="cls-2" x="244.96" y="100.1" width="3.25" height="9.76"/><rect class="cls-2" x="251.72" y="100.1" width="3.25" height="9.76"/><path d="M115.87,109.41V11.31A3.2,3.2,0,0,1,119,8.16H267.74a3.2,3.2,0,0,1,3.15,3.15v98.1Z" transform="translate(-13.29 -8.16)"/><path class="cls-3" d="M270.89,109.41V122a3.2,3.2,0,0,1-3.15,3.14H119a3.2,3.2,0,0,1-3.14-3.14v-12.6Z" transform="translate(-13.29 -8.16)"/><rect class="cls-3" x="146.9" y="139.28" width="66.37" height="3.15"/><polygon class="cls-4" points="202.13 139.28 158.04 139.28 161.19 117 198.98 117 202.13 139.28"/><polygon class="cls-5" points="198.98 117 161.19 117 159.44 129.43 199.55 121 198.98 117"/><rect class="cls-6" x="125.88" y="21.18" width="9.89" height="1.21"/><rect class="cls-6" x="125.88" y="26.44" width="24.02" height="1.21"/><rect class="cls-6" x="166.52" y="21.18" width="9.89" height="1.21"/><rect class="cls-6" x="166.52" y="26.44" width="24.02" height="1.21"/><rect class="cls-6" x="207.18" y="21.19" width="9.89" height="1.21"/><rect class="cls-6" x="207.18" y="26.44" width="24.02" height="1.21"/><rect class="cls-7" x="172.48" y="54.98" width="10.79" height="1.73" rx="0.86" ry="0.86" transform="translate(78.3 -117.58) rotate(45)"/><rect class="cls-7" x="172.27" y="61.25" width="10.79" height="1.73" rx="0.86" ry="0.86" transform="translate(-15.63 108.92) rotate(-36.25)"/><rect class="cls-7" x="171.7" y="55.73" width="28.61" height="1.9" rx="0.95" ry="0.95"/><path d="M13.29,199.71v-98.1a3.21,3.21,0,0,1,3.15-3.15H165.17a3.22,3.22,0,0,1,3.15,3.15v98.1Z" transform="translate(-13.29 -8.16)"/><path class="cls-3" d="M168.32,199.71v12.6a3.21,3.21,0,0,1-3.15,3.15H16.44a3.2,3.2,0,0,1-3.15-3.15v-12.6Z" transform="translate(-13.29 -8.16)"/><rect class="cls-3" x="44.33" y="229.58" width="66.37" height="3.15"/><polygon class="cls-4" points="99.56 229.59 55.47 229.59 58.62 207.3 96.41 207.3 99.56 229.59"/><rect class="cls-6" x="6.3" y="96.6" width="142.43" height="88.66"/><polygon class="cls-5" points="96.41 207.3 58.62 207.3 56.86 219.74 96.97 211.3 96.41 207.3"/><rect x="6.23" y="95.89" width="142.74" height="11.68"/><path class="cls-6" d="M78.88,113.57H29.61c-2,0-3.64-1.3-3.64-2.9h0c0-1.61,1.63-2.91,3.64-2.91H78.88c2,0,3.64,1.3,3.64,2.91h0C82.52,112.27,80.89,113.57,78.88,113.57Z" transform="translate(-13.29 -8.16)"/><path class="cls-8" d="M123.43,126.8c1.86,0,1.22.65,2.16,1,.75.24.24-.15,1.12-.19.27,0,.54.06.8,0,.77-.07.37-.1.64-.23a7.06,7.06,0,0,1,3,0,5.57,5.57,0,0,0,1.17.43c1,.21,2.06-.2,2.92.25.55.3.31.39,1.17.4a8.71,8.71,0,0,1,2,0c.76.18.26,0,1.17-.17a1.36,1.36,0,0,1,.72.09c.64.21.5.35,1.35.31,1.5-.09,2.42.62,3.77.81.92.13,1.87-.07,1.8,1.05-1,.12-1.74-.73-2.64-.2,0,.85.52.31,1,1l-.12,0a2.27,2.27,0,0,0-1.53,1,3.53,3.53,0,0,0-2,.22c-.13,1.16,1.37.86,1.19,2.58,0,.32,0,.85-.06,1.29-.64-.05-2.15-1.67-2.44-2.15-.54-.87,1-2.81.1-2.76-.33,0-.12.21-.46.55-.9,0-.48-.71-1.59-.3-.25,1,.37.85-.11,1.11s-.88-.12-1.25-.18c-.08,0-2.48.11-2.6.16a10.54,10.54,0,0,0-.86,1.85,2.59,2.59,0,0,0,1.61.37c.39,0,.51.24.82.31.9.22,0-.29.75,0l1.64,1.77-.28.67c-.59-.44-.67-1.37-1.4-1.63-.11,1,.85.51.32,2.75-.46,2-.8,1.22-1.63,1.44A6.52,6.52,0,0,0,135,142c.61.57,1.36.86,1.32,2a1.24,1.24,0,0,1-1.06.22c-.51-2-.35-1-1-1.62s.17-1.23-1.6-.52c-.27-.39-.1-.35-.24-.78a1.86,1.86,0,0,0-1.2,1.09,6.55,6.55,0,0,0,.88.48c.37,0,.54-.23,1,.09-.28.56-.48.44-.71,1,.41.66,1.11,1.14,1.35,2a.76.76,0,0,0,0,.11c.14.46.24.11.26.74a3,3,0,0,1-.38,1.2c-.83,2.16-2,1.86-3.67,2.66,0,.59.54,1.56-.65,1.34-.09-1,.42-.47.32-1.39-.78-.27-1.23.1-1.57.91.31,1.44,2,1.55,1.58,3.74l-1.59,1.32c-.49-.31,0-.08-.42-.65a15.44,15.44,0,0,0-1.59-1.46l-.12.24a2.74,2.74,0,0,0-.29,1.46,4.21,4.21,0,0,0,.68,1.31c.38.36.77.44.9,1,.05.2.24,1.68.24,1.77-1.58-.58-1.11-1.62-1.68-2.64-.24-.45-.3-.35-.62-.79a11.33,11.33,0,0,0,0-2.33c-.12-.5-.37-1.23-.49-1.73-.57.12-1.08.91-1.21.14a3.1,3.1,0,0,1-.06-.39c-.34-1.44-.81-1-1.29-2.42a8,8,0,0,1-1.72.42h0v.05c-.36.51,0,.3-.62.82a18.94,18.94,0,0,1-2.11,2,13.07,13.07,0,0,1-.15,2.14c-.09.38-.54,1.43-1.06,1.35a10.82,10.82,0,0,1-1-2.19,17.2,17.2,0,0,1-.8-2.3c-.11-.49-.19-1.42-.31-1.75-.54.08-.52.42-1,.06-.37-.26-.2-.42-.41-.81-.43-.4-.87-.8-1.32-1.19-.34-.11-1.66.08-2.22,0-1-.09-1.1,0-1.7-.82-1.05,0-1,.44-2-.43-.68-.56-.55-1.45-1.53-.94,0,.81.37,1,.74,1.37s.6.49.74.88c0,0,.07.38.09.42,1,.06,1.18-.38,1.7-.76.51.47,0,.55.75.91.59.29.47.12.85.59.19.63-1.31,2.33-1.8,2.64s-.59.1-.93.38c-.51.42.06.36-.83.67a11.44,11.44,0,0,1-2.9,1.12c-.22-.58-.43-1.17-.65-1.75-.63-2-.61-1.23-1.26-2.26-.3-.45-.18-.74-.38-1.14s-.36-.43-.55-.79c-.29-.57-.63-1.46-1.31-1.37L98.18,146l.32,0c.14-.28,1.17-2.81-.16-2.49-.4.1-.13.24-.69.1s0-.26-.67-.17-1.4.64-1.9-1.24c-.19-.68-.53-1.27-1.32-.24a7.7,7.7,0,0,0,.57.71A5,5,0,0,1,94,143c-.44.42.18.22-.53.31-.38-.28-.3-.64-.67-1.13-.65-.93-.23-.5-.56-1.39a10.63,10.63,0,0,0-1-.61h0l0,0a2.48,2.48,0,0,1-.26-.19c-.56-.48-.67-.92-1.29-.81a.82.82,0,0,0,.28.77c.86,1.06.6.7,1.27,1.09h0a6.36,6.36,0,0,1,.6.39c-.87.74-.07.82-.6,1.07h0l-.14.06c-.18-.44.22-.23-.24-.86a2,2,0,0,0-.89-.61c-1-.46-.87-.82-1.48-1.42-.68,0-.53.23-1,.47s-.49-.05-1.18,0c-.56,1,.24.16-.77,1-1.23.92-.22,1.89-2.18,2.18a1.26,1.26,0,0,0-.33,0c-.36.12-.17,0-.35.21h-.32c-.05-.41-.51-.48-1-.49-.26-.89-.26-.67-.06-1.48.12-.46,0-.68.12-1.14.25-1.14,2.25,0,2.82-.48a1.3,1.3,0,0,0,0-1.43c-.32-.47-.74-.41-1-.86.48-.31.12,0,.54-.13s.43-.24,1-.35.85-.57,1.36-.89c.72-.46.38-.87,1.26-1,1.41-.23.49-.2.65-1.48l.62-.26c.45.57-.11.34.42.72l.46-.24c-.08-.62-.37-.5-.56-1.26-.7.1-1,.68-1.52.47s-.57-1-.54-1.6c.2-.48,1.22-.74,1.61-.86.64-.2.55-.62,1.14-1.19.76-.75.2,0,.57-1,.84,0,.44-.06.94-.31h.07c.29-.13.67-.16,1-.29a3.5,3.5,0,0,1,3,.18c.79.32,3.17.33,3.35,1.3-.58.59-1.12.16-2,.21.15.76.22.76.92,1,.11-.36,0-.22.14-.45l.68.13c.23-.77.5-.66,1.28-.75-.13-.53-.27-.38,0-.8.8.08.15,0,.55.64.56-.07,1.1-.68,1.88-.75.48-.05.46.12,1.14.06s.54-.26,1.1,0c.2-.37,0-.36.49-.45.77-.13,1.43.33,2.17.43-.55-.66-1.07-.53-.4-1.63.85-.17.93,0,1.3.58.25-.14.33-.28.47-.32.38-.09.51.23,1.33-.25.53-.29-.33-.1.62-.36.36-.09.36.06.69-.2.76-.27,1.49-.55,2.24-.83.8,0,.4.23,1.31-.11,1.25-.44,1.61,0,2.55.06,2.2.08,1.42,1.31,4.86,1.31.55,0,.51-.21,1.29-.22h.13Zm13.44,18.11a1.26,1.26,0,0,0,.73,1c.43-.68-.1-.72,1.47-1.2a2.09,2.09,0,0,0,.3-.11c1.35-.76.42-.21,1.43-.61a14.82,14.82,0,0,0-.19-1.69c0-.75-.28-1-1-1.16-.06,1.39.9.94-.66,2.38-.82.77-1.35-.13-2.13,1.37ZM128,163.73a4.31,4.31,0,0,1,.34-1.24c.6,0,.06.48,1,.37a1.27,1.27,0,0,0,.09-.88.75.75,0,0,0-.82.24l-.26-.3c-.42-.3-.37.39-.77-.39s.06-.82-.86-1.37a5,5,0,0,1-1.21-1c-.79-.83-.09-.46-1.4-.86,0,.91.18.37.88,1.43l.86,1.49c.42.69.86,2.56,2.19,2.51Zm2-1.31c1.14.17,2,.58,2.27.36.34-.39.23-.64.57-1.21.46-.74.14-.51.73-1.16-.34-1.18-.49-.65.15-1.86a2.06,2.06,0,0,0-.7-1c-.37.23-.05,0-.31.3-.44.48-.9,1-1.33,1.46s-.23.09-.82.55l-.51.27c-.28.1-.46-.22-.52.6a9.74,9.74,0,0,0,.47,1.74Zm-27.11-23.17a3.3,3.3,0,0,0,1.35,2.24c-.07.58-.21.43-.19,1.24a2,2,0,0,0,1.89.48c.12-1-.2-.92-.51-1.59a.94.94,0,0,1,.22-.2c.23-.3.12.12.23-.39-.6-.18-1.57-.78-1.64-1.57.29-.23.2-.09.42-.23.47-.3.11.16.39-.34-.24-.46-.51-.54-1.09-.31A7.35,7.35,0,0,0,102.93,139.25Zm-5.2.32c-.4-.53-.37-.8-1.13-.82a3.59,3.59,0,0,0-.83,1.28c-.26.74-.08.23,0,1a.27.27,0,0,0,0,.09c0,.48-.13-.09,0,.35.6-.12.14-.11.58-.25a7.33,7.33,0,0,1,2.08-.42c.87.2,1.61.87,2.6.2-.05-.87-1.12-1.2-1.85-1.58,0-.79.25-.17.2-.93a1.3,1.3,0,0,0-.65,0c-.57.25-.25.32-.25.4,0,.43.57-.08,0,.44a1.14,1.14,0,0,1-.63.16Zm-14.85-6c0,1.39.47.92.94,1.61-.22.59-.26.13-.5.74s.05.05-.09.93a13.74,13.74,0,0,0,1.4-.15c.69-.06.68-.12.92-.8-.38-.46-.76-.92-1.16-1.38-.5-.73,0-.23-.15-.84-.12-.22-.22-.44-.32-.66a1.86,1.86,0,0,0-1,.55Z" transform="translate(-13.29 -8.16)"/><path class="cls-8" d="M98.5,147.6c-.14.44.63,2,.82,2.32s.49.53.58,1.06c.13.73,0,.64.39,1.12.85,1,0,.83,1.28,1.82,1,.73.74,1,1.16,1.94.65.18,2.58-.67,2.91-.42.39.69-.46,1.78-.67,2.38-.72,2-2,2-2.92,3.5a14.6,14.6,0,0,0-1.24,1.93c-.55,1.13,1.1,4.24.11,5.55-.21.3-.91.48-1.79,1.38s0,.82-.33,2.46c-.28.38-.62.4-1,.67-.13.39,0,.69-.24,1.17s-.27.27-.6.74a6.59,6.59,0,0,1-.49.86,3.67,3.67,0,0,1-.6.59,5.27,5.27,0,0,1-3.69.89c-.56-.47-.18-.59-.32-1.25a5.33,5.33,0,0,0-.71-1.5v0l0,0a3,3,0,0,1-.3-.63c-.46-1.41-.3-2.49-1.1-3.92-1-1.85.56-2.82.5-3.86,0-.28-.13-.45-.15-.67a5.79,5.79,0,0,0-1.1-3.1c-.86-1-.75-.63-.47-2.25.36-1.87-.46-1.39-1.6-1.44-.56-1.69-1.66-.87-2.75-.37-.69.31-.94-.09-1.72,0-1.73.23-.37,1-2.68-.83-1-.75-.32-.37-.89-1.31a15.18,15.18,0,0,0-1-1.12c-.88-1.08.16-2.16,0-3.4-.27-2.29-.65-.3.66-3.06.69-1.48,1.73-1.49,2-2.14s.07-1,.51-1.55.92-.35,1.14-1a1.21,1.21,0,0,0,.08-.49h.32l0,0c.17.38-.06.32.6.41,1.21.16,1.36-.57,2.24-.75a28.64,28.64,0,0,1,3.33-.15c.59.64.1,1.09.1,1.62.64.33,1.54.41,1.91.75s.22.33.42.4h0l.37.13a2.86,2.86,0,0,0,1,.31c.5-1.62,0-1.45,2.38-.71s1.37.07,2.43.18c.42,0,.41.16.78.15l.33,1.63ZM104.76,167c-.56.28-.63.91-1.05,1.27s-1.07.22-1.25,1c-.23.94.38.65-.29,1.89a2.16,2.16,0,0,0,.11,1.94c1.11,1,1.71-1.59,2-2.42.19-.59.37-1.25.57-1.8S105.31,167.78,104.76,167Z" transform="translate(-13.29 -8.16)"/><path class="cls-8" d="M60.62,169.84c-.34-.56-1.18-.81-1.86-1.26,0,0-.06,0-.07,0-.93-.64-1.81-3.14-2.55-4.07-.34-.45-.56-.25-.71-1s.09-.54.31-1.07c-1.14-2,1.46-2,.92-4.44a2.69,2.69,0,0,0-.72-1.28c-.54.23-.28.36-.56.8l-1.29-.72c-1.31-1.23-.61-.34-1-1.14-.79-1.7-1.54-.75-2.48-1.59-.43-.34-.5-.89-1.2-.79-1.06.14-.47.3-1.57-.2a11.28,11.28,0,0,1-2.54-1.5c0-.9.31-.94-.27-1.78-.28-.42-.66-.77-.89-1.11-.4-.65.19-.06-.82-1.34-.68-.84.11-.92-.65-1.51-1,.47.57,1.79,1.07,3.93a1.13,1.13,0,0,1-.89-.87c-.26-.79,0-.59-.78-.92,0-1.35.31-.16-.25-1.5-.2-.5-.08-.72-.27-1.23s.07,0-.18-.28.08,0-.15-.25,0,0-.22-.18a1.81,1.81,0,0,1-.71-1.49c-.25-2.27.51-2.45,1.39-4.08.67-1.16.54-1,0-1.95.13-.48.29-.49.25-1.14s-.08-.42.09-1a.18.18,0,0,0-.09-.06l-.08,0-.11-.05-.42-.14c.07-1.21.26-1.93-1.15-2.07-.63-.06-1-.32-1.23-.31s-.7.29-1.14.4c-.79.21-.37.19-1.09.06a13.74,13.74,0,0,1-2.44-.21l.13-1.31a2.63,2.63,0,0,0,1.47-.44c-.37-.31-.75-.09-1.3-.28.1-1,1.61-.64,2.27-.64.09-.72-.3-.7.06-1a18.45,18.45,0,0,1,5.12-1l4.43.8c.9.09,2.34-.52,3.27-.48.7,0,.06.18.93.24.59,0,.62-.13,1.28.06s.32.23,1,.23c.12-.39.23-.79.36-1.18a3.88,3.88,0,0,1-1.64.18c0-.58.79-.82,1.19-1,1.39-.7,2.34.45,3.85.56.55,0,1-.35,1.61-.37-.22.41-.36.32-.66.85.28.74-.12-.24.22.42a.68.68,0,0,1,.14.29c-1,.25-.4.37-1.85.26.18.25-.15.11.41.37a3.77,3.77,0,0,0,1.64.08c.17-.3.27-.56.56-.67a1.13,1.13,0,0,1,.44,0c0,.15.07.3.11.45s0,.11,0,.09,0,.06,0,.09c.8-.46.12-.47.56-1.3-.68-.13-.59,0-1-.47a2.4,2.4,0,0,1,1.78-.54c0,.39-.23.39-.07.72.45-.27.77-1,1.51-.88.14.1.31.19.46.28a4.38,4.38,0,0,1-1.45.56c-.22,2.16.7.35.39,1.84a1.7,1.7,0,0,0,1.29-.83c-.21-.26-.5-.26-.67-.57A1.46,1.46,0,0,1,63,127a2.27,2.27,0,0,1,.93-.18c4,0,2.13.21,3.37.76.28.12.78.18.94.42s0,.74.42,1,.41,0,.88.57a.87.87,0,0,1-.84.67c-.69,0-.28-.45-1-.38,0,.68.7.94.07,1.31s-.21-.12-.63.11l-.06,0-.06.07-.21.22c-1-.27-.82-.15-1.43-.81a.61.61,0,0,0-.68-.28c-.25,0-.58.12-.82-.1.49-.61.73,0,1.46-.38a8.34,8.34,0,0,0,1-.8c-.21-.48,0-.08-.34-.39-.71-.71-.91-.53-1.88-.53-.45.51-.79,1.14-1.29,1.41h0a1.21,1.21,0,0,1-1.12,0c.22.86.78.2.83,1.24-.37-.07-.56-.25-.94-.12-.81.3-.09.27,0,.43,0,0,.39.05,0,.19s-.06-.08-.87-.55l.34-.62a16.66,16.66,0,0,0-2.26.89,10,10,0,0,0-2.2,1.36c0,.75.12.25.2,1.14,1.18.07.8.41,2,.74.23.06.53.12.88.18,0,.56-.51,1-.15,1.56.83.56.85-.54,1.06-1.25,2.79-.57,1.45-1.37,2.17-2.88h0a3.59,3.59,0,0,1,.48-.72c.22,0,1.1.1,1.29.14.63.11.29.26,1,.56,0,.53-.3,1.23.52,1.1.62-.11.48-.59,1.25-.71a6.92,6.92,0,0,1,.4,2.07c1.83.7,1,1.27.66,2.57.23.11.47.21.72.31,0,.38,0,.75,0,1.12,0,0-2-.41-2.09-.45.29-.82.83-.83,1.17-1.66-.68.12-.63.32-1.13.47a7.39,7.39,0,0,1-1.26.1c-.16.54,0-.46,0,.22,0,.26.15,0,0,.29-.64-.29-.42-1-1.61-.34l.82.34c0,.77-.1.19-.27.7-.41,1.3,1.11.49,1.5.43-.1.68-.53.68-1.14.87s-.88.47-1.42.59c0-.82-.12-.13.25-.7a4.84,4.84,0,0,0-1.44.5l0,0h0c-.66.26-.75.3-.83,1.11a3.78,3.78,0,0,0-1.6.76l-1.17,1.09-.09.08c.14,1,0,1-.64,1.45a7.51,7.51,0,0,0-1.2.75c-1.59,1.4-.83.75-.74,3.15l-1-.32c-.24-1.59.09-1.06-1.22-1.43s-1.22.28-1.8.4-1-.58-1.91,0c-.52.34-1,.57-1.15,1.19a7.41,7.41,0,0,0-.44,2.12c.09,2.24,2.17,2.37,2.71,1.32.35-.69.27-1.07,1.42-.89a2.68,2.68,0,0,1-.21,1.49c-.11.27-.39.76-.25,1.13.83.33.86-.29,2,.34.08,1.07-.5,2.27.34,2.88.65.47.69.05,1.26-.05s.52.28,1.11.37c.33-.4.19-.15.41-.64.38-.84.48-.44,1.38-1l.26-.16c.1.21.21.41.32.61.66-.77.73,0,1.5.19a3.25,3.25,0,0,0,.74.12h0c.55,0,.61-.26,1.37,0a1.51,1.51,0,0,0,.3.1s0,0,0,0l.07,0a3.62,3.62,0,0,1,.24.43l1.55,1.46c1,.38,1-.34,2.15.74.48.45.27.44.54,1,0,.09.11.18.16.29s.22.52.33.78c.52.67,1.24.25,2,.94.42.4.1.28,1,.44,1.44.23.88.1,2,.9.42.3.52.13.92.39a1.81,1.81,0,0,1,0,2.21c-1.41,2-.93,1.68-1,3.28-.06.91-.32,2.8-1.2,3-3.19.88-1.34,1.49-2.17,3-.25.44-.43.55-.58.9-.63,1.45-.19,1.94-2.07,1.61a3,3,0,0,0,.24.37c.56.85.65,1.49-.5,1.7-1,.18-.54,0-.63,1-.37.15-.54,0-.78.24.33.6,0,.1.59.44-.1.33-.18.65-.27,1-.21.77-.28.06-.35,1,.33.15.55.12.85.51,0,.3-.35,1.11-.43,1.58.47.69.85,1.43,1.85,1.5,0,.57.13.51-.38.63a3.74,3.74,0,0,1-1.73-.49,4.65,4.65,0,0,1-1.72-1.47,5.56,5.56,0,0,0-.42-.54c-.48-.6-.29-.88-.43-1.29a1.52,1.52,0,0,1-.3-1.27c0-.22.39-1.27,0-1.09s.33.1-.27.38a9,9,0,0,1-.33-1.4c-.15-.79-.34-.82-.43-1.3-.19-1.1.29-1.22-.24-3.07-.36-1.21-.22-4.1-.58-5.58a2.34,2.34,0,0,0-.23-.59Z" transform="translate(-13.29 -8.16)"/><circle class="cls-6" cx="132.4" cy="101.77" r="1.79"/><circle class="cls-6" cx="126.63" cy="101.77" r="1.79"/><circle class="cls-6" cx="138.16" cy="101.73" r="1.79"/><rect class="cls-9" x="111.69" y="166.8" width="28.54" height="2.2"/><rect class="cls-9" x="111.69" y="171.19" width="28.54" height="2.2"/><rect class="cls-9" x="111.69" y="175.58" width="20.84" height="2.2"/><g class="cls-10"><rect x="151.49" y="181.61" width="60.97" height="75.53"/><path d="M223.64,183.53h-56.8a5.37,5.37,0,0,0-5.36,5.36v78.23a5.36,5.36,0,0,0,5.36,5.36h56.79a5.37,5.37,0,0,0,5.36-5.36V188.89a5.36,5.36,0,0,0-5.36-5.36Zm-28.39,3.08a.8.8,0,1,1-.81.8.8.8,0,0,1,.81-.8Zm0,82.92a1.61,1.61,0,1,1,1.6-1.61,1.61,1.61,0,0,1-1.6,1.61Zm29.47-5H165.77V191.43h58.94Zm0,0" transform="translate(-13.29 -8.16)"/></g><rect class="cls-6" x="147.49" y="184.61" width="60.97" height="75.53"/><path d="M219.64,186.53h-56.8a5.37,5.37,0,0,0-5.36,5.36v78.23a5.36,5.36,0,0,0,5.36,5.36h56.79a5.37,5.37,0,0,0,5.36-5.36V191.89a5.36,5.36,0,0,0-5.36-5.36Zm-28.39,3.08a.8.8,0,1,1-.81.8.8.8,0,0,1,.81-.8Zm0,82.92a1.61,1.61,0,1,1,1.6-1.61,1.61,1.61,0,0,1-1.6,1.61Zm29.47-5H161.77V194.43h58.94Zm0,0" transform="translate(-13.29 -8.16)"/></g><g id="Calque_2" data-name="Calque 2"><path class="cls-7" d="M191.24,234.1a17.7,17.7,0,1,1,17.7-17.7A17.71,17.71,0,0,1,191.24,234.1Zm0-31a13.27,13.27,0,1,0,13.28,13.27A13.28,13.28,0,0,0,191.24,203.13Z" transform="translate(-13.29 -8.16)"/><path class="cls-11" d="M178.08,214.74a13.32,13.32,0,0,1,4.77-8.61l-2.92-3.32a17.62,17.62,0,0,0-6.29,11.8Z" transform="translate(-13.29 -8.16)"/><path class="cls-12" d="M204.39,214.65h4.46a17.72,17.72,0,0,0-17.5-16v4.43A13.29,13.29,0,0,1,204.39,214.65Z" transform="translate(-13.29 -8.16)"/><path class="cls-12" d="M191.37,229.67h-.13A13.28,13.28,0,0,1,178,216.4a12.36,12.36,0,0,1,.11-1.62l-4.45-.14c0,.58-.08,1.16-.08,1.76a17.71,17.71,0,0,0,17.69,17.7h.13Z" transform="translate(-13.29 -8.16)"/><g class="cls-10"><rect class="cls-13" x="199.45" y="236.14" width="6.59" height="25.98"/><rect class="cls-13" x="177.49" y="236.14" width="6.59" height="25.98"/><rect x="188.47" y="230.32" width="6.59" height="31.84"/><rect class="cls-14" x="155.54" y="236.11" width="6.59" height="25.98"/><rect x="166.52" y="230.29" width="6.59" height="31.84"/></g><rect class="cls-15" x="196.62" y="233.31" width="6.59" height="25.98"/><rect class="cls-15" x="174.66" y="233.31" width="6.59" height="25.98"/><rect class="cls-16" x="185.64" y="227.48" width="6.59" height="31.84"/><rect class="cls-17" x="152.7" y="233.27" width="6.59" height="25.98"/><rect class="cls-16" x="163.68" y="227.45" width="6.59" height="31.84"/></g></g></svg>