<svg xmlns="http://www.w3.org/2000/svg" viewBox="0 0 263 268.44"><defs><style>.cls-1{fill:#f0c808;}.cls-1,.cls-2,.cls-3,.cls-4{stroke:#1d1d1b;stroke-miterlimit:10;stroke-width:2px;}.cls-2{fill:none;}.cls-3{fill:#e4003a;}.cls-4{fill:#fff;}</style></defs><title>RS</title><g id="Calque_1" data-name="Calque 1"><circle class="cls-1" cx="114.43" cy="128.02" r="44.26"/><circle class="cls-2" cx="220.31" cy="232.09" r="35.34"/><circle class="cls-3" cx="195.07" cy="45.27" r="27.32"/><circle class="cls-1" cx="48.38" cy="192.21" r="22.01"/><circle class="cls-2" cx="56.28" cy="71.69" r="13.59"/><circle class="cls-4" cx="113.38" cy="127.88" r="21.75"/><circle class="cls-2" cx="129.23" cy="10.52" r="9.52"/><circle class="cls-3" cx="182.7" cy="128.33" r="9.52"/><circle class="cls-3" cx="8.25" cy="112.47" r="7.25"/><circle class="cls-2" cx="49.94" cy="136.03" r="5.44"/><circle class="cls-3" cx="110.66" cy="57.19" r="7.25"/><circle class="cls-1" cx="248.86" cy="141.92" r="13.14"/><circle class="cls-2" cx="119.27" cy="235.27" r="12.23"/><line class="cls-2" x1="66.25" y1="80.75" x2="82.56" y2="97.06"/><line class="cls-2" x1="144.19" y1="96.16" x2="175" y2="66.25"/><line class="cls-2" x1="81.66" y1="158.69" x2="64.44" y2="175"/><line class="cls-2" x1="145.09" y1="158.69" x2="194.03" y2="208.53"/></g><g id="Calque_2" data-name="Calque 2"><path d="M264.67,140.46l-.06-.07a4,4,0,0,0-5.68,0L255.32,144a4,4,0,0,0,0,5.68l.07.06a3.52,3.52,0,0,0,.41.36l1.32-1.32a2.3,2.3,0,0,1-.43-.34l-.07-.06a2.18,2.18,0,0,1,0-3.08l3.61-3.61a2.18,2.18,0,0,1,3.08,0l.06.07a2.17,2.17,0,0,1,0,3.07l-1.63,1.63a5.73,5.73,0,0,1,.41,2.2l2.52-2.53a4,4,0,0,0,0-5.67Zm-5.34,5.2a4.47,4.47,0,0,0-.41-.35l-1.32,1.32a2.24,2.24,0,0,1,.43.33l.07.07a2.17,2.17,0,0,1,0,3.07l-3.62,3.62a2.17,2.17,0,0,1-3.07,0l-.07-.07a2.19,2.19,0,0,1,0-3.07l1.64-1.64a5.71,5.71,0,0,1-.41-2.19L250,149.28a4,4,0,0,0,0,5.67l.07.07a4,4,0,0,0,5.67,0l3.62-3.62a4,4,0,0,0,0-5.67Zm0,0" transform="translate(-8.5 -5.78)"/><path d="M207,72.73h-8.12V51.05h-5.42V43.58h5.42v-4.4c0-6.1,1.65-9.8,8.83-9.8h6v7.47h-3.73c-2.8,0-2.93,1-2.93,3l0,3.74h6.72l-.79,7.47H207Zm0,0" transform="translate(-8.5 -5.78)"/><polygon points="65.02 190.13 60.86 190.13 60.86 185.97 58.78 185.97 58.78 190.13 54.62 190.13 54.62 192.21 58.78 192.21 58.78 196.37 60.86 196.37 60.86 192.21 65.02 192.21 65.02 190.13"/><path d="M50.64,200.07h5.89a6.24,6.24,0,1,1-5.89-8.32,6.1,6.1,0,0,1,4,1.51l2.74-3.14A10.39,10.39,0,1,0,61,198v-2.08H50.64Z" transform="translate(-8.5 -5.78)"/><path d="M70.6,71.07H59a.58.58,0,0,0-.58.58V83.29a.58.58,0,0,0,.58.58H70.6a.58.58,0,0,0,.58-.58V71.65a.58.58,0,0,0-.58-.58Zm-5.82,4.17a2.23,2.23,0,1,1-2.23,2.23,2.23,2.23,0,0,1,2.23-2.23Zm4.8,7H60v-5.6H61a4.17,4.17,0,0,0-.08.8,3.83,3.83,0,0,0,7.66,0,4.17,4.17,0,0,0-.08-.8h1Zm0-7.2h-2.4v-2.4h2.4Zm0,0" transform="translate(-8.5 -5.78)"/><path d="M239.08,222.41H218.54a5.21,5.21,0,0,0-5.19,5.2v20.53a5.21,5.21,0,0,0,5.19,5.2h20.54a5.22,5.22,0,0,0,5.2-5.2V227.61a5.22,5.22,0,0,0-5.2-5.2ZM225,247.54h-3.87V234H225ZM223,232.08a1.94,1.94,0,1,1,1.94-1.94,1.94,1.94,0,0,1-1.94,1.94Zm15.47,15.46h-3.87v-7.73a1.93,1.93,0,0,0-3.86,0v7.73h-3.87V234h3.87v2.4c.79-1.1,2-2.4,3.38-2.4a4.61,4.61,0,0,1,4.35,4.83Zm0,0" transform="translate(-8.5 -5.78)"/></g></svg>