<svg xmlns="http://www.w3.org/2000/svg" viewBox="0 0 274.23 267.87"><defs><style>.cls-1{isolation:isolate;}.cls-15,.cls-16,.cls-2{fill:none;}.cls-2,.cls-5{stroke:#1d1d1b;}.cls-15,.cls-2,.cls-5{stroke-miterlimit:10;}.cls-2{stroke-width:3px;}.cls-3{fill:#1d1d1b;}.cls-4{fill:#e4003a;}.cls-14,.cls-5,.cls-9{fill:#fff;}.cls-5{stroke-width:4px;}.cls-6{fill:#c1c1c1;}.cls-7{fill:#9e9e9e;}.cls-8{fill:#666;}.cls-9{font-size:40px;font-family:ArialMT, Arial;}.cls-10{opacity:0.75;mix-blend-mode:multiply;}.cls-11{fill:#6b6b6b;}.cls-12{fill:#f0c808;}.cls-13{fill:#fcde60;}.cls-15{stroke:#949493;}.cls-15,.cls-16{stroke-linecap:round;stroke-width:1.6px;}.cls-16{stroke:#38454f;stroke-linejoin:round;}</style></defs><title>security</title><g class="cls-1"><g id="Calque_2" data-name="Calque 2"><rect class="cls-2" x="2.33" y="51.5" width="8" height="34" rx="4" ry="4"/><rect class="cls-3" y="42.91" width="3.5" height="51.17"/><circle class="cls-2" cx="37.6" cy="66.85" r="5.27"/><line class="cls-2" x1="42.13" y1="62.42" x2="63.54" y2="37.7"/><rect class="cls-3" x="103.24" y="44.1" width="4" height="17.5" transform="translate(14.53 -26.85) rotate(14.46)"/><rect class="cls-4" x="25.31" y="31.07" width="73.5" height="22" transform="translate(10.47 -16.41) rotate(14.46)"/><polygon class="cls-5" points="101.2 35.98 118.04 25.9 118.04 25.9 118.04 25.9 27.01 2.44 20.49 27.72 85.9 44.58 101.2 35.98"/><line class="cls-2" x1="32.33" y1="66.85" x2="10" y2="66.85"/></g><g id="Calque_1" data-name="Calque 1"><path d="M75.69,167.92V86.53a2.66,2.66,0,0,1,2.61-2.62H201.7a2.66,2.66,0,0,1,2.61,2.62v81.39Z" transform="translate(-2 -2.25)"/><path class="cls-6" d="M204.31,167.92v10.45A2.65,2.65,0,0,1,201.7,181H78.3a2.65,2.65,0,0,1-2.61-2.61V167.92Z" transform="translate(-2 -2.25)"/><rect class="cls-6" x="110.47" y="197.22" width="55.07" height="2.61"/><polygon class="cls-7" points="156.29 197.22 119.71 197.22 122.32 178.73 153.68 178.73 156.29 197.22"/><polygon class="cls-8" points="153.68 178.73 122.32 178.73 120.86 189.05 154.15 182.05 153.68 178.73"/><text class="cls-9" transform="translate(85.79 137.86)">****---</text><g class="cls-10"><rect class="cls-11" x="122.81" y="228.32" width="41.24" height="16.9"/><rect class="cls-11" x="165.77" y="228.32" width="41.25" height="16.9"/><rect class="cls-11" x="208.73" y="228.32" width="41.25" height="16.9"/><rect class="cls-11" x="122.81" y="191.08" width="41.24" height="16.9"/><rect class="cls-11" x="165.77" y="191.08" width="41.25" height="16.9"/><rect class="cls-11" x="208.73" y="191.08" width="41.25" height="16.9"/><rect class="cls-11" x="104.09" y="246.93" width="41.25" height="16.9"/><rect class="cls-11" x="147.05" y="246.93" width="41.25" height="16.9"/><rect class="cls-11" x="190.02" y="246.93" width="41.25" height="16.9"/><rect class="cls-11" x="232.98" y="246.93" width="41.25" height="16.9"/><rect class="cls-11" x="104.09" y="209.71" width="41.25" height="16.9"/><rect class="cls-11" x="147.05" y="209.71" width="41.25" height="16.9"/><rect class="cls-11" x="190.02" y="209.71" width="41.25" height="16.9"/><rect class="cls-11" x="232.98" y="209.71" width="41.25" height="16.9"/></g><rect class="cls-3" x="120.81" y="231.32" width="41.24" height="16.9"/><rect class="cls-3" x="163.77" y="231.32" width="41.25" height="16.9"/><rect class="cls-3" x="206.73" y="231.32" width="41.25" height="16.9"/><rect class="cls-3" x="120.81" y="194.08" width="41.24" height="16.9"/><rect class="cls-3" x="163.77" y="194.08" width="41.25" height="16.9"/><rect class="cls-3" x="206.73" y="194.08" width="41.25" height="16.9"/><rect class="cls-3" x="102.09" y="249.93" width="41.25" height="16.9"/><rect class="cls-3" x="145.05" y="249.93" width="41.25" height="16.9"/><rect class="cls-3" x="188.02" y="249.93" width="41.25" height="16.9"/><rect class="cls-3" x="230.98" y="249.93" width="41.25" height="16.9"/><rect class="cls-3" x="102.09" y="212.71" width="41.25" height="16.9"/><rect class="cls-3" x="145.05" y="212.71" width="41.25" height="16.9"/><rect class="cls-3" x="188.02" y="212.71" width="41.25" height="16.9"/><rect class="cls-3" x="230.98" y="212.71" width="41.25" height="16.9"/><path class="cls-12" d="M226.45,270.12c22.56,0,31.68-18.83,29.62-32.37-1.22-7.95-4.7-13.09-8.63-18a15.24,15.24,0,0,1,1.12-20.43c-10,4.48-17.41,13.89-8.57,38.53-4.19,2-15.47,5-19.67,4.45-2.49-10.27-5.1-25.67-17.57-26.5,6.79,3.55,3.51,11,2.41,12.66-2.72,4-6.11,8.91-6.11,16.54C199.05,261.32,212.14,270.12,226.45,270.12Z" transform="translate(-2 -2.25)"/><path class="cls-13" d="M205.21,245.78c-.79,12.8,7.3,24.34,21.24,24.34,13.59,0,25.76-13.27,22.27-31.43-3.54-18.44-20.38-16.36-11.77-39.8,4.44-12.09-.61-22.59-9.25-28.32,8,8.51,6.44,18.53.67,24.44-10.43,10.67-8.09,17.52-8.19,22.17-.37-6.13-6.5-7.18-1.44-17.61-10.7,11.11-2.37,21-5,27C210.62,233.52,205.78,236.52,205.21,245.78Z" transform="translate(-2 -2.25)"/><path class="cls-12" d="M227.24,270.1c10.7,0,17.83-11.5,15.76-21.77-2.9-14.38-18.83-17-12.78-31.13-9.93,11.77-3,20.7-4.63,25.27-.4-5.38-3.49-11.85-7.15-13.83,3.82,6.88-3.38,11.69-5.77,21.89C210.54,259.65,216,270.1,227.24,270.1Z" transform="translate(-2 -2.25)"/><g class="cls-10"><circle class="cls-11" cx="72.33" cy="187.02" r="54.3"/></g><circle class="cls-14" cx="68.33" cy="191.02" r="54.3"/><path class="cls-15" d="M80.7,188.19H60V171.61a10.37,10.37,0,0,1,20.74,0Zm0,0" transform="translate(-2 -2.25)"/><rect class="cls-4" x="47.59" y="181.8" width="41.47" height="35.25"/><path class="cls-14" d="M76.54,198.56a6.22,6.22,0,1,0-8.22,5.87,2.09,2.09,0,0,0-.07.36V211a2.07,2.07,0,1,0,4.14,0v-6.22a2.09,2.09,0,0,0-.07-.36,6.2,6.2,0,0,0,4.22-5.87Zm0,0" transform="translate(-2 -2.25)"/><path class="cls-16" d="M70.33,247.11a53.89,53.89,0,1,1,38.31-16m-38.31,16L57.89,259.56m12.44-12.45L57.89,234.68" transform="translate(-2 -2.25)"/></g></g></svg>