<svg xmlns="http://www.w3.org/2000/svg" viewBox="0 0 252.14 269.35"><defs><style>.cls-1{isolation:isolate;}.cls-2{fill:#c1c1c1;}.cls-3{fill:#9e9e9e;}.cls-4{fill:#fff;}.cls-5{fill:#666;}.cls-6{fill:#e4003a;}.cls-7{fill:#f0c808;}.cls-8{fill:#1d1d1b;}.cls-9{fill:#dadada;}.cls-10{opacity:0.6;mix-blend-mode:multiply;}</style></defs><title>siteV3</title><g class="cls-1"><g id="Calque_2" data-name="Calque 2"><path d="M45.91,170.94V51.86A3.89,3.89,0,0,1,49.73,48H230.27a3.89,3.89,0,0,1,3.82,3.82V170.94Z" transform="translate(-9.45 -9.82)"/><path class="cls-2" d="M234.09,170.94v15.29a3.89,3.89,0,0,1-3.82,3.82H49.73a3.89,3.89,0,0,1-3.82-3.82V170.94Z" transform="translate(-9.45 -9.82)"/><rect class="cls-2" x="90.27" y="207.28" width="80.56" height="3.82"/><polygon class="cls-3" points="157.31 207.28 103.8 207.28 107.62 180.23 153.49 180.23 157.31 207.28"/><rect class="cls-4" x="44.11" y="45.86" width="172.89" height="107.62"/><polygon class="cls-5" points="153.49 180.23 107.62 180.23 105.48 195.33 154.18 185.09 153.49 180.23"/><circle class="cls-4" cx="197.17" cy="52.14" r="2.17"/><circle class="cls-4" cx="190.17" cy="52.14" r="2.17"/><circle class="cls-4" cx="204.17" cy="52.09" r="2.17"/><rect class="cls-6" x="44.19" y="45.75" width="172.81" height="9.65"/><path class="cls-4" d="M58.71,61.8a1.41,1.41,0,0,1-1.42-1.4A1.39,1.39,0,0,1,58.68,59h0a1.41,1.41,0,0,1,0,2.81Z" transform="translate(-9.45 -9.82)"/><path class="cls-4" d="M64.32,61.8a1.41,1.41,0,0,1-1.42-1.4A1.4,1.4,0,0,1,64.29,59h0a1.41,1.41,0,0,1,0,2.81Z" transform="translate(-9.45 -9.82)"/><path class="cls-4" d="M69.93,61.8a1.42,1.42,0,0,1-1.42-1.4A1.4,1.4,0,0,1,69.9,59h0a1.41,1.41,0,0,1,0,2.81Z" transform="translate(-9.45 -9.82)"/><rect class="cls-4" x="121.22" y="49.59" width="91.75" height="1.97"/><rect class="cls-7" x="43.97" y="54.7" width="173.26" height="40.23"/><polygon class="cls-4" points="116.22 85.42 144.97 85.42 135.95 67.96 129.3 78.08 126.92 73.97 116.22 85.42"/><ellipse class="cls-4" cx="129.73" cy="69.15" rx="2.14" ry="2.51"/><rect class="cls-8" x="98.21" y="118.18" width="75.8" height="1.83"/><rect class="cls-8" x="98.2" y="123.01" width="75.81" height="1.83"/><rect class="cls-8" x="98.2" y="127.85" width="75.8" height="1.83"/><rect class="cls-8" x="97.84" y="132.67" width="37.9" height="1.83"/><rect class="cls-6" x="54.53" y="85.11" width="20.3" height="20.3"/><rect class="cls-8" x="195.69" y="94.01" width="19.48" height="1.44"/><rect class="cls-8" x="172.9" y="94.01" width="19.48" height="1.44"/><rect class="cls-8" x="150.12" y="94.01" width="19.48" height="1.44"/></g><g id="Calque_4" data-name="Calque 4"><circle class="cls-9" cx="130.55" cy="1.26" r="1.26"/></g><g id="Calque_5" data-name="Calque 5"><g class="cls-10"><rect x="21.73" y="165.55" width="78.92" height="97.76" transform="translate(-31.47 -2.27) rotate(-5.99)"/><path d="M91.78,154l-73.12,7.67a7,7,0,0,0-6.18,7.62L23,270a7,7,0,0,0,7.63,6.17l73.12-7.67a6.94,6.94,0,0,0,6.17-7.62L99.4,160.13A6.94,6.94,0,0,0,91.78,154Zm-36.14,7.8a1,1,0,1,1-.93,1.14,1,1,0,0,1,.93-1.14ZM66.83,268.5a2.08,2.08,0,1,1,1.85-2.28,2.08,2.08,0,0,1-1.85,2.28Zm37.27-10.36-75.88,8-9.88-94.16,75.89-8Zm0,0" transform="translate(-9.45 -9.82)"/></g><rect class="cls-4" x="18.73" y="168.55" width="78.92" height="97.76" transform="translate(-31.8 -2.56) rotate(-5.99)"/><path d="M88.78,157l-73.12,7.67a7,7,0,0,0-6.18,7.62L20,273a7,7,0,0,0,7.63,6.17l73.12-7.67a6.94,6.94,0,0,0,6.17-7.62L96.4,163.13A6.94,6.94,0,0,0,88.78,157Zm-36.14,7.8a1,1,0,1,1-.93,1.14,1,1,0,0,1,.93-1.14ZM63.83,271.5a2.08,2.08,0,1,1,1.85-2.28,2.08,2.08,0,0,1-1.85,2.28Zm37.27-10.36-75.88,8-9.88-94.16,75.89-8Zm0,0" transform="translate(-9.45 -9.82)"/><rect class="cls-4" x="214.25" y="184.5" width="39.83" height="62.99" transform="translate(18.74 -36.85) rotate(7.03)"/><g class="cls-10"><path d="M247,255.41l-30.4-3.75a5.94,5.94,0,0,1-5.15-6.6l7.91-64.13a5.93,5.93,0,0,1,6.59-5.15l30.41,3.75a5.94,5.94,0,0,1,5.15,6.6l-7.91,64.13A6,6,0,0,1,247,255.41Z" transform="translate(-9.45 -9.82)"/><path d="M246.23,182l-7.49-.92a.62.62,0,0,1-.54-.69h0a.62.62,0,0,1,.69-.53l7.49.92a.61.61,0,0,1,.53.69h0A.62.62,0,0,1,246.23,182Z" transform="translate(-9.45 -9.82)"/><circle cx="225.88" cy="170.17" r="0.62"/><path d="M232.09,251.39a2.91,2.91,0,1,1,3.25-2.53A2.91,2.91,0,0,1,232.09,251.39Zm.64-5.19a2.32,2.32,0,1,0,2,2.58A2.32,2.32,0,0,0,232.73,246.2Z" transform="translate(-9.45 -9.82)"/><rect x="206.95" y="195.54" width="60.27" height="36.87" transform="translate(-13.74 413.27) rotate(-82.97)"/></g><path class="cls-8" d="M244,257.41l-30.4-3.75a5.94,5.94,0,0,1-5.15-6.6l7.91-64.13a5.93,5.93,0,0,1,6.59-5.15l30.41,3.75a5.94,5.94,0,0,1,5.15,6.6l-7.91,64.13A6,6,0,0,1,244,257.41Z" transform="translate(-9.45 -9.82)"/><path class="cls-4" d="M243.23,184l-7.49-.92a.62.62,0,0,1-.54-.69h0a.62.62,0,0,1,.69-.53l7.49.92a.61.61,0,0,1,.53.69h0A.62.62,0,0,1,243.23,184Z" transform="translate(-9.45 -9.82)"/><circle class="cls-4" cx="222.88" cy="172.17" r="0.62"/><path class="cls-4" d="M229.09,253.39a2.91,2.91,0,1,1,3.25-2.53A2.91,2.91,0,0,1,229.09,253.39Zm.64-5.19a2.32,2.32,0,1,0,2,2.58A2.32,2.32,0,0,0,229.73,248.2Z" transform="translate(-9.45 -9.82)"/><rect class="cls-4" x="203.95" y="197.54" width="60.27" height="36.87" transform="translate(-18.36 412.05) rotate(-82.97)"/><rect class="cls-6" x="219.1" y="185.58" width="36.92" height="4.29" transform="translate(15.31 -37.48) rotate(7.03)"/><rect class="cls-6" x="249.4" y="193.5" width="4.95" height="0.75" rx="0.37" ry="0.37" transform="translate(16.17 -39.18) rotate(7.03)"/><rect class="cls-6" x="249.22" y="194.99" width="4.95" height="0.75" rx="0.37" ry="0.37" transform="translate(16.35 -39.15) rotate(7.03)"/><rect class="cls-6" x="249.04" y="196.47" width="4.95" height="0.75" rx="0.37" ry="0.37" transform="translate(16.53 -39.12) rotate(7.03)"/><rect class="cls-4" x="234.27" y="187.88" width="20.41" height="1.4" transform="translate(15.47 -38.32) rotate(7.03)"/><rect class="cls-8" x="234" y="193.98" width="1.49" height="28.33" transform="translate(-10.01 405.84) rotate(-82.97)"/><rect class="cls-8" x="233.63" y="196.95" width="1.49" height="28.33" transform="translate(-13.28 408.07) rotate(-82.97)"/><rect class="cls-8" x="233.26" y="199.91" width="1.49" height="28.33" transform="translate(-16.54 410.32) rotate(-82.97)"/><rect class="cls-8" x="225.74" y="209.08" width="1.49" height="14.16" transform="translate(-25.21 404.67) rotate(-82.97)"/><rect class="cls-7" x="221.98" y="222.21" width="18.18" height="22.75" transform="translate(-38.48 424.51) rotate(-82.97)"/><rect class="cls-7" x="17.41" y="174.99" width="76.35" height="33.52" transform="translate(-28.69 -3.16) rotate(-5.85)"/><polygon class="cls-4" points="34.21 190.37 58.1 187.53 48.88 173.97 44.36 183.01 41.97 179.84 34.21 190.37"/><ellipse class="cls-4" cx="53.28" cy="185.39" rx="1.79" ry="2.09" transform="translate(-31 -2.22) rotate(-6.79)"/><rect class="cls-6" x="82.83" y="176.42" width="5.8" height="0.87" rx="0.39" ry="0.39" transform="translate(-29.58 1.45) rotate(-6.73)"/><rect class="cls-6" x="83.03" y="178.15" width="5.8" height="0.87" rx="0.39" ry="0.39" transform="translate(-29.79 1.48) rotate(-6.73)"/><rect class="cls-6" x="83.24" y="179.89" width="5.8" height="0.87" rx="0.39" ry="0.39" transform="translate(-29.99 1.52) rotate(-6.73)"/><polygon class="cls-4" points="212.88 227.76 230.37 230.07 226.27 218.76 221.42 224.37 220.3 221.69 212.88 227.76"/><ellipse class="cls-4" cx="231.84" cy="228.8" rx="1.53" ry="1.31" transform="translate(-34.75 418.93) rotate(-82.49)"/><rect class="cls-6" x="23.74" y="204.03" width="13.98" height="13.98" transform="translate(-34.65 -4.58) rotate(-6.92)"/><rect class="cls-6" x="221.16" y="191.7" width="9.29" height="9.29" transform="translate(18.45 -37.91) rotate(7.59)"/><path class="cls-4" d="M228.56,187.42a1,1,0,0,1-.88-1.11,1,1,0,0,1,1.11-.87h0a1,1,0,0,1,.86,1.11A1,1,0,0,1,228.56,187.42Z" transform="translate(-9.45 -9.82)"/><path class="cls-4" d="M232.52,187.91a1,1,0,0,1-.87-1.11,1,1,0,0,1,1.1-.87h0a1,1,0,0,1,.87,1.11A1,1,0,0,1,232.52,187.91Z" transform="translate(-9.45 -9.82)"/><path class="cls-4" d="M224.83,186.83a1,1,0,0,1-.87-1.11,1,1,0,0,1,1.1-.87h0a1,1,0,1,1-.25,2Z" transform="translate(-9.45 -9.82)"/></g><g id="Calque_1" data-name="Calque 1"><rect class="cls-6" x="15.35" y="170.79" width="76.27" height="4.39" transform="translate(-27.51 -3.16) rotate(-6.09)"/><rect class="cls-4" x="42.83" y="171.01" width="44.27" height="1.43" transform="translate(-27.31 -1.95) rotate(-6.09)"/><path class="cls-4" d="M18.21,177.78a1,1,0,1,1-.23-2h0a1,1,0,1,1,.21,2Z" transform="translate(-9.45 -9.82)"/><path class="cls-4" d="M22.27,177.35a1,1,0,0,1-1.13-.91,1,1,0,0,1,.9-1.12h0a1,1,0,1,1,.21,2Z" transform="translate(-9.45 -9.82)"/><path class="cls-4" d="M26.33,176.91a1,1,0,0,1-1.13-.9,1,1,0,0,1,.9-1.12h0a1,1,0,1,1,.21,2Z" transform="translate(-9.45 -9.82)"/><rect class="cls-8" x="28.24" y="224.74" width="63.16" height="1.53" transform="translate(-33.05 -2.19) rotate(-6.09)"/><rect class="cls-8" x="28.66" y="228.75" width="63.16" height="1.53" transform="translate(-33.47 -2.13) rotate(-6.09)"/><rect class="cls-8" x="29.1" y="232.75" width="63.16" height="1.53" transform="translate(-33.89 -2.06) rotate(-6.09)"/><rect class="cls-8" x="29.32" y="238.46" width="31.58" height="1.53" transform="translate(-34.58 -3.68) rotate(-6.09)"/></g></g></svg>